Pliska-Bold.ufo
<glyph name="quotedbl" format="1">
  <advance width="555"/>
  <unicode hex="0022"/>
  <outline>
    <contour>
      <point x="83" y="620" type="curve" smooth="yes"/>
      <point x="83" y="663"/>
      <point x="109" y="691"/>
      <point x="147" y="691" type="curve" smooth="yes"/>
      <point x="184" y="691"/>
      <point x="212" y="662"/>
      <point x="212" y="624" type="curve" smooth="yes"/>
      <point x="212" y="602"/>
      <point x="202" y="551"/>
      <point x="168" y="404" type="curve"/>
      <point x="127" y="404" type="line"/>
      <point x="122" y="426"/>
      <point x="118" y="445"/>
      <point x="116" y="452" type="curve" smooth="yes"/>
      <point x="95" y="535"/>
      <point x="83" y="599"/>
    </contour>
    <contour>
      <point x="343" y="620" type="curve" smooth="yes"/>
      <point x="343" y="663"/>
      <point x="369" y="691"/>
      <point x="407" y="691" type="curve" smooth="yes"/>
      <point x="444" y="691"/>
      <point x="472" y="662"/>
      <point x="472" y="624" type="curve" smooth="yes"/>
      <point x="472" y="602"/>
      <point x="459" y="537"/>
      <point x="428" y="404" type="curve"/>
      <point x="387" y="404" type="line"/>
      <point x="382" y="425"/>
      <point x="377" y="445"/>
      <point x="376" y="452" type="curve" smooth="yes"/>
      <point x="355" y="536"/>
      <point x="343" y="599"/>
    </contour>
  </outline>
</glyph>
<glyph name="dollar" format="1">
  <advance width="500"/>
  <unicode hex="0024"/>
  <outline>
    <contour>
      <point x="29" y="496" type="curve" smooth="yes"/>
      <point x="29" y="559"/>
      <point x="60" y="612"/>
      <point x="115" y="644" type="curve" smooth="yes"/>
      <point x="146" y="661"/>
      <point x="168" y="667"/>
      <point x="214" y="672" type="curve"/>
      <point x="214" y="750" type="line"/>
      <point x="269" y="750" type="line"/>
      <point x="269" y="674" type="line"/>
      <point x="347" y="661"/>
      <point x="381" y="650"/>
      <point x="428" y="622" type="curve"/>
      <point x="428" y="481" type="line"/>
      <point x="407" y="481" type="line"/>
      <point x="378" y="581"/>
      <point x="340" y="625"/>
      <point x="269" y="641" type="curve"/>
      <point x="269" y="426" type="line"/>
      <point x="366" y="376"/>
      <point x="396" y="356"/>
      <point x="431" y="316" type="curve" smooth="yes"/>
      <point x="457" y="287"/>
      <point x="472" y="244"/>
      <point x="472" y="196" type="curve" smooth="yes"/>
      <point x="472" y="140"/>
      <point x="455" y="95"/>
      <point x="422" y="63" type="curve" smooth="yes"/>
      <point x="390" y="32"/>
      <point x="351" y="15"/>
      <point x="269" y="0" type="curve"/>
      <point x="269" y="-99" type="line"/>
      <point x="214" y="-99" type="line"/>
      <point x="214" y="0" type="line"/>
      <point x="152" y="3"/>
      <point x="128" y="9"/>
      <point x="46" y="43" type="curve"/>
      <point x="46" y="199" type="line"/>
      <point x="67" y="197" type="line"/>
      <point x="99" y="89"/>
      <point x="139" y="44"/>
      <point x="213" y="30" type="curve"/>
      <point x="213" y="281" type="line"/>
      <point x="79" y="348"/>
      <point x="29" y="407"/>
    </contour>
    <contour>
      <point x="124" y="554" type="curve" smooth="yes"/>
      <point x="124" y="508"/>
      <point x="153" y="475"/>
      <point x="213" y="454" type="curve"/>
      <point x="213" y="644" type="line"/>
      <point x="150" y="628"/>
      <point x="124" y="602"/>
    </contour>
    <contour>
      <point x="269" y="30" type="line"/>
      <point x="332" y="42"/>
      <point x="362" y="75"/>
      <point x="362" y="134" type="curve" smooth="yes"/>
      <point x="362" y="188"/>
      <point x="349" y="205"/>
      <point x="269" y="250" type="curve"/>
    </contour>
  </outline>
</glyph>
<glyph name="ampersand" format="1">
  <advance width="833"/>
  <unicode hex="0026"/>
  <outline>
    <contour>
      <point x="62" y="161" type="curve" smooth="yes"/>
      <point x="62" y="255"/>
      <point x="116" y="318"/>
      <point x="258" y="388" type="curve"/>
      <point x="218" y="457"/>
      <point x="206" y="489"/>
      <point x="206" y="533" type="curve" smooth="yes"/>
      <point x="206" y="630"/>
      <point x="281" y="691"/>
      <point x="401" y="691" type="curve" smooth="yes"/>
      <point x="502" y="691"/>
      <point x="568" y="643"/>
      <point x="568" y="569" type="curve" smooth="yes"/>
      <point x="568" y="506"/>
      <point x="522" y="462"/>
      <point x="416" y="423" type="curve"/>
      <point x="567" y="209" type="line"/>
      <point x="625" y="281"/>
      <point x="643" y="314"/>
      <point x="643" y="354" type="curve" smooth="yes"/>
      <point x="643" y="383"/>
      <point x="636" y="388"/>
      <point x="577" y="395" type="curve"/>
      <point x="577" y="419" type="line"/>
      <point x="783" y="419" type="line"/>
      <point x="783" y="395" type="line"/>
      <point x="740" y="391"/>
      <point x="728" y="384"/>
      <point x="710" y="355" type="curve" smooth="yes"/>
      <point x="683" y="311" type="line" smooth="yes"/>
      <point x="656" y="268"/>
      <point x="645" y="252"/>
      <point x="590" y="176" type="curve"/>
      <point x="646" y="104"/>
      <point x="671" y="85"/>
      <point x="709" y="85" type="curve" smooth="yes"/>
      <point x="733" y="85"/>
      <point x="750" y="96"/>
      <point x="767" y="123" type="curve"/>
      <point x="787" y="111" type="line"/>
      <point x="771" y="85" type="line" smooth="yes"/>
      <point x="746" y="44"/>
      <point x="733" y="28"/>
      <point x="717" y="15" type="curve" smooth="yes"/>
      <point x="693" y="-3"/>
      <point x="655" y="-16"/>
      <point x="624" y="-16" type="curve" smooth="yes"/>
      <point x="571" y="-16"/>
      <point x="535" y="6"/>
      <point x="475" y="72" type="curve"/>
      <point x="393" y="11"/>
      <point x="327" y="-15"/>
      <point x="253" y="-15" type="curve" smooth="yes"/>
      <point x="141" y="-15"/>
      <point x="62" y="58"/>
    </contour>
    <contour>
      <point x="201" y="264" type="curve" smooth="yes"/>
      <point x="201" y="212"/>
      <point x="230" y="148"/>
      <point x="273" y="103" type="curve" smooth="yes"/>
      <point x="298" y="77"/>
      <point x="332" y="61"/>
      <point x="362" y="61" type="curve" smooth="yes"/>
      <point x="388" y="61"/>
      <point x="413" y="72"/>
      <point x="452" y="100" type="curve"/>
      <point x="420" y="142"/>
      <point x="398" y="174"/>
      <point x="323" y="286" type="curve" smooth="yes"/>
      <point x="275" y="358" type="line"/>
      <point x="220" y="326"/>
      <point x="201" y="301"/>
    </contour>
    <contour>
      <point x="323" y="602" type="curve" smooth="yes"/>
      <point x="323" y="561"/>
      <point x="344" y="518"/>
      <point x="397" y="452" type="curve"/>
      <point x="447" y="469"/>
      <point x="467" y="492"/>
      <point x="467" y="533" type="curve" smooth="yes"/>
      <point x="467" y="600"/>
      <point x="424" y="658"/>
      <point x="375" y="658" type="curve" smooth="yes"/>
      <point x="343" y="658"/>
      <point x="323" y="637"/>
    </contour>
  </outline>
</glyph>
<glyph name="quotesingle" format="1">
  <advance width="278"/>
  <unicode hex="0027"/>
  <outline>
    <contour>
      <point x="75" y="620" type="curve" smooth="yes"/>
      <point x="75" y="663"/>
      <point x="101" y="691"/>
      <point x="139" y="691" type="curve" smooth="yes"/>
      <point x="176" y="691"/>
      <point x="204" y="662"/>
      <point x="204" y="624" type="curve" smooth="yes"/>
      <point x="204" y="602"/>
      <point x="193" y="548"/>
      <point x="160" y="404" type="curve"/>
      <point x="119" y="404" type="line"/>
      <point x="114" y="425"/>
      <point x="109" y="445"/>
      <point x="108" y="452" type="curve" smooth="yes"/>
      <point x="87" y="535"/>
      <point x="75" y="599"/>
    </contour>
  </outline>
</glyph>
<glyph name="plus" format="1">
  <advance width="570"/>
  <unicode hex="002B"/>
  <outline>
    <contour>
      <point x="33" y="209" type="line"/>
      <point x="33" y="297" type="line"/>
      <point x="241" y="297" type="line"/>
      <point x="241" y="506" type="line"/>
      <point x="329" y="506" type="line"/>
      <point x="329" y="297" type="line"/>
      <point x="537" y="297" type="line"/>
      <point x="537" y="209" type="line"/>
      <point x="329" y="209" type="line"/>
      <point x="329" y="0" type="line"/>
      <point x="241" y="0" type="line"/>
      <point x="241" y="209" type="line"/>
    </contour>
  </outline>
</glyph>
<glyph name="comma" format="1">
  <advance width="250"/>
  <unicode hex="002C"/>
  <outline>
    <contour>
      <point x="39" y="72" type="curve" smooth="yes"/>
      <point x="39" y="122"/>
      <point x="72" y="155"/>
      <point x="122" y="155" type="curve" smooth="yes"/>
      <point x="182" y="155"/>
      <point x="223" y="108"/>
      <point x="223" y="39" type="curve" smooth="yes"/>
      <point x="223" y="-47"/>
      <point x="173" y="-113"/>
      <point x="57" y="-180" type="curve"/>
      <point x="46" y="-158" type="line"/>
      <point x="121" y="-106"/>
      <point x="155" y="-64"/>
      <point x="155" y="-26" type="curve" smooth="yes"/>
      <point x="155" y="-13"/>
      <point x="147" y="-4"/>
      <point x="136" y="-4" type="curve" smooth="yes"/>
      <point x="130" y="-4"/>
      <point x="126" y="-6"/>
      <point x="112" y="-6" type="curve" smooth="yes"/>
      <point x="69" y="-6"/>
      <point x="39" y="26"/>
    </contour>
  </outline>
</glyph>
<glyph name="hyphen" format="2">
  <advance width="333"/>
  <unicode hex="002D"/>
  <outline>
    <contour>
      <point x="44" y="171" type="line"/>
      <point x="44" y="287" type="line"/>
      <point x="287" y="287" type="line"/>
      <point x="287" y="171" type="line"/>
    </contour>
  </outline>
</glyph>
<glyph name="period" format="2">
  <advance width="250"/>
  <unicode hex="002E"/>
  <outline>
    <contour>
      <point x="41" y="72" type="curve" smooth="yes"/>
      <point x="41" y="117"/>
      <point x="79" y="156"/>
      <point x="125" y="156" type="curve" smooth="yes"/>
      <point x="172" y="156"/>
      <point x="210" y="117"/>
      <point x="210" y="70" type="curve" smooth="yes"/>
      <point x="210" y="24"/>
      <point x="172" y="-13"/>
      <point x="124" y="-13" type="curve" smooth="yes"/>
      <point x="77" y="-13"/>
      <point x="41" y="24"/>
    </contour>
  </outline>
</glyph>
<glyph name="zero" format="1">
  <advance width="500"/>
  <unicode hex="0030"/>
  <outline>
    <contour>
      <point x="24" y="332" type="curve" smooth="yes"/>
      <point x="24" y="584"/>
      <point x="150" y="688"/>
      <point x="251" y="688" type="curve" smooth="yes"/>
      <point x="356" y="688"/>
      <point x="476" y="572"/>
      <point x="476" y="332" type="curve" smooth="yes"/>
      <point x="476" y="152"/>
      <point x="390" y="-13"/>
      <point x="250" y="-13" type="curve" smooth="yes"/>
      <point x="122" y="-13"/>
      <point x="24" y="131"/>
    </contour>
    <contour>
      <point x="182" y="222" type="line" smooth="yes"/>
      <point x="182" y="74"/>
      <point x="201" y="15"/>
      <point x="251" y="15" type="curve" smooth="yes"/>
      <point x="301" y="15"/>
      <point x="318" y="74"/>
      <point x="318" y="222" type="curve" smooth="yes"/>
      <point x="318" y="451" type="line" smooth="yes"/>
      <point x="318" y="598"/>
      <point x="298" y="660"/>
      <point x="249" y="660" type="curve" smooth="yes"/>
      <point x="201" y="660"/>
      <point x="182" y="602"/>
      <point x="182" y="451" type="curve" smooth="yes"/>
    </contour>
  </outline>
</glyph>
<glyph name="two" format="1">
  <advance width="500"/>
  <unicode hex="0032"/>
  <outline>
    <contour>
      <point x="17" y="0" type="line"/>
      <point x="17" y="23" type="line"/>
      <point x="179" y="196"/>
      <point x="300" y="328"/>
      <point x="300" y="446" type="curve" smooth="yes"/>
      <point x="300" y="474"/>
      <point x="284" y="574"/>
      <point x="181" y="574" type="curve" smooth="yes"/>
      <point x="158" y="574"/>
      <point x="96" y="568"/>
      <point x="59" y="484" type="curve"/>
      <point x="31" y="484" type="line"/>
      <point x="51" y="541"/>
      <point x="110" y="688"/>
      <point x="251" y="688" type="curve" smooth="yes"/>
      <point x="313" y="688"/>
      <point x="436" y="653"/>
      <point x="436" y="501" type="curve" smooth="yes"/>
      <point x="436" y="472"/>
      <point x="436" y="396"/>
      <point x="322" y="287" type="curve" smooth="yes"/>
      <point x="160" y="133" type="line"/>
      <point x="311" y="133" type="line" smooth="yes"/>
      <point x="417" y="133"/>
      <point x="426" y="143"/>
      <point x="454" y="211" type="curve"/>
      <point x="478" y="211" type="line"/>
      <point x="433" y="0" type="line"/>
    </contour>
  </outline>
</glyph>
<glyph name="three" format="1">
  <advance width="500"/>
  <unicode hex="0033"/>
  <outline>
    <contour>
      <point x="16" y="78" type="curve" smooth="yes"/>
      <point x="16" y="111"/>
      <point x="46" y="134"/>
      <point x="78" y="134" type="curve" smooth="yes"/>
      <point x="162" y="134"/>
      <point x="192" y="36"/>
      <point x="254" y="36" type="curve" smooth="yes"/>
      <point x="302" y="36"/>
      <point x="354" y="65"/>
      <point x="354" y="155" type="curve" smooth="yes"/>
      <point x="354" y="288"/>
      <point x="229" y="330"/>
      <point x="153" y="356" type="curve"/>
      <point x="153" y="373" type="line"/>
      <point x="201" y="388"/>
      <point x="283" y="413"/>
      <point x="283" y="504" type="curve" smooth="yes"/>
      <point x="283" y="563"/>
      <point x="250" y="607"/>
      <point x="177" y="607" type="curve" smooth="yes"/>
      <point x="108" y="607"/>
      <point x="73" y="547"/>
      <point x="58" y="523" type="curve"/>
      <point x="37" y="535" type="line"/>
      <point x="66" y="598"/>
      <point x="143" y="688"/>
      <point x="261" y="688" type="curve" smooth="yes"/>
      <point x="357" y="688"/>
      <point x="429" y="646"/>
      <point x="429" y="553" type="curve" smooth="yes"/>
      <point x="429" y="476"/>
      <point x="390" y="451"/>
      <point x="346" y="424" type="curve"/>
      <point x="425" y="395"/>
      <point x="468" y="323"/>
      <point x="468" y="248" type="curve" smooth="yes"/>
      <point x="468" y="108"/>
      <point x="347" y="-14"/>
      <point x="167" y="-14" type="curve" smooth="yes"/>
      <point x="87" y="-14"/>
      <point x="16" y="15"/>
    </contour>
  </outline>
</glyph>
<glyph name="eight" format="2">
  <advance width="500"/>
  <unicode hex="0038"/>
  <outline>
    <contour>
      <point x="28" y="159.869" type="curve" smooth="yes"/>
      <point x="28" y="238.09"/>
      <point x="77.8155" y="292.599"/>
      <point x="178" y="324" type="curve"/>
      <point x="86.5915" y="375.189"/>
      <point x="39" y="440.239"/>
      <point x="39" y="513.992" type="curve" smooth="yes"/>
      <point x="39" y="619.161"/>
      <point x="126.554" y="688"/>
      <point x="260.314" y="688" type="curve" smooth="yes"/>
      <point x="378.333" y="688"/>
      <point x="458" y="628.919"/>
      <point x="458" y="541.396" type="curve" smooth="yes"/>
      <point x="458" y="481.603"/>
      <point x="410.623" y="433.74"/>
      <point x="322" y="404" type="curve"/>
      <point x="421.636" y="344.33"/>
      <point x="472" y="270.427"/>
      <point x="472" y="183.892" type="curve" smooth="yes"/>
      <point x="472" y="66.3987"/>
      <point x="380.304" y="-13"/>
      <point x="244.615" y="-13" type="curve" smooth="yes"/>
      <point x="114.839" y="-13"/>
      <point x="28" y="56.3014"/>
    </contour>
    <contour>
      <point x="149" y="163.948" type="curve" smooth="yes"/>
      <point x="149" y="73.5632"/>
      <point x="186.956" y="19"/>
      <point x="249.83" y="19" type="curve" smooth="yes"/>
      <point x="299.21" y="19"/>
      <point x="333" y="66.5338"/>
      <point x="333" y="136" type="curve" smooth="yes"/>
      <point x="333" y="192.959"/>
      <point x="292.401" y="244.852"/>
      <point x="200" y="306" type="curve"/>
      <point x="163.418" y="256.875"/>
      <point x="149" y="216.717"/>
    </contour>
    <contour>
      <point x="168" y="571.99" type="curve" smooth="yes"/>
      <point x="168" y="519.105"/>
      <point x="222.352" y="451.139"/>
      <point x="292.824" y="415.904" type="curve"/>
      <point x="315.824" y="446.904"/>
      <point x="337" y="495"/>
      <point x="337" y="535.378" type="curve" smooth="yes"/>
      <point x="337" y="613.849"/>
      <point x="306.59" y="659"/>
      <point x="253.738" y="659" type="curve" smooth="yes"/>
      <point x="204.208" y="659"/>
      <point x="168" y="622.255"/>
    </contour>
  </outline>
</glyph>
<glyph name="nine" format="2">
  <advance width="500"/>
  <unicode hex="0039"/>
  <outline>
    <contour>
      <point x="26" y="464" type="curve" smooth="yes"/>
      <point x="26" y="518"/>
      <point x="64" y="688"/>
      <point x="234.989" y="688" type="curve" smooth="yes"/>
      <point x="334" y="688"/>
      <point x="473" y="631"/>
      <point x="473" y="391" type="curve" smooth="yes"/>
      <point x="473" y="209"/>
      <point x="331" y="17"/>
      <point x="31" y="-13" type="curve"/>
      <point x="31" y="13" type="line"/>
      <point x="130.445" y="32.8891"/>
      <point x="248.156" y="85.4866"/>
      <point x="299.598" y="271.919" type="curve"/>
      <point x="299" y="273" type="line"/>
      <point x="270.39" y="257.742"/>
      <point x="239.016" y="254"/>
      <point x="214.889" y="254" type="curve" smooth="yes"/>
      <point x="138" y="254"/>
      <point x="26" y="292"/>
    </contour>
    <contour>
      <point x="178" y="519" type="curve" smooth="yes"/>
      <point x="178" y="375"/>
      <point x="194" y="299"/>
      <point x="260.989" y="299" type="curve" smooth="yes"/>
      <point x="279" y="299"/>
      <point x="297.198" y="304.494"/>
      <point x="307" y="312" type="curve"/>
      <point x="311.1" y="333.869"/>
      <point x="316" y="379"/>
      <point x="316" y="402" type="curve" smooth="yes"/>
      <point x="316" y="599"/>
      <point x="301" y="661"/>
      <point x="239" y="661" type="curve" smooth="yes"/>
      <point x="178" y="661"/>
      <point x="178" y="598"/>
    </contour>
  </outline>
</glyph>
<glyph name="colon" format="1">
  <advance width="333"/>
  <unicode hex="003A"/>
  <outline>
    <contour>
      <point x="82" y="72" type="curve" smooth="yes"/>
      <point x="82" y="117"/>
      <point x="120" y="156"/>
      <point x="166" y="156" type="curve" smooth="yes"/>
      <point x="213" y="156"/>
      <point x="251" y="117"/>
      <point x="251" y="70" type="curve" smooth="yes"/>
      <point x="251" y="24"/>
      <point x="213" y="-13"/>
      <point x="165" y="-13" type="curve" smooth="yes"/>
      <point x="118" y="-13"/>
      <point x="82" y="24"/>
    </contour>
    <contour>
      <point x="82" y="389" type="curve" smooth="yes"/>
      <point x="82" y="434"/>
      <point x="120" y="472"/>
      <point x="166" y="472" type="curve" smooth="yes"/>
      <point x="213" y="472"/>
      <point x="251" y="434"/>
      <point x="251" y="387" type="curve" smooth="yes"/>
      <point x="251" y="341"/>
      <point x="213" y="303"/>
      <point x="166" y="303" type="curve" smooth="yes"/>
      <point x="118" y="303"/>
      <point x="82" y="340"/>
    </contour>
  </outline>
</glyph>
<glyph name="question" format="1">
  <advance width="500"/>
  <unicode hex="003F"/>
  <outline>
    <contour>
      <point x="57" y="545" type="curve" smooth="yes"/>
      <point x="57" y="629"/>
      <point x="135" y="689"/>
      <point x="245" y="689" type="curve" smooth="yes"/>
      <point x="365" y="689"/>
      <point x="445" y="623"/>
      <point x="445" y="523" type="curve" smooth="yes"/>
      <point x="445" y="454"/>
      <point x="415" y="413"/>
      <point x="324" y="357" type="curve" smooth="yes"/>
      <point x="261" y="318"/>
      <point x="253" y="304"/>
      <point x="253" y="231" type="curve"/>
      <point x="223" y="231" type="line"/>
      <point x="221" y="261"/>
      <point x="221" y="266"/>
      <point x="221" y="277" type="curve" smooth="yes"/>
      <point x="221" y="305"/>
      <point x="229" y="328"/>
      <point x="253" y="374" type="curve" smooth="yes"/>
      <point x="286" y="436"/>
      <point x="296" y="471"/>
      <point x="296" y="523" type="curve" smooth="yes"/>
      <point x="296" y="605"/>
      <point x="265" y="653"/>
      <point x="212" y="653" type="curve" smooth="yes"/>
      <point x="176" y="653"/>
      <point x="151" y="637"/>
      <point x="151" y="613" type="curve" smooth="yes"/>
      <point x="151" y="603"/>
      <point x="154" y="597"/>
      <point x="166" y="584" type="curve" smooth="yes"/>
      <point x="183" y="565"/>
      <point x="188" y="553"/>
      <point x="188" y="533" type="curve" smooth="yes"/>
      <point x="188" y="495"/>
      <point x="163" y="469"/>
      <point x="125" y="469" type="curve" smooth="yes"/>
      <point x="86" y="469"/>
      <point x="57" y="501"/>
    </contour>
    <contour>
      <point x="154" y="72" type="curve" smooth="yes"/>
      <point x="154" y="117"/>
      <point x="193" y="156"/>
      <point x="239" y="156" type="curve" smooth="yes"/>
      <point x="285" y="156"/>
      <point x="323" y="117"/>
      <point x="323" y="71" type="curve" smooth="yes"/>
      <point x="323" y="24"/>
      <point x="286" y="-13"/>
      <point x="239" y="-13" type="curve" smooth="yes"/>
      <point x="191" y="-13"/>
      <point x="154" y="24"/>
    </contour>
  </outline>
</glyph>
<glyph name="A" format="2">
  <advance width="722"/>
  <unicode hex="0041"/>
  <outline>
    <contour>
      <point x="9" y="0" type="line"/>
      <point x="9" y="25" type="line"/>
      <point x="57" y="34"/>
      <point x="69" y="49"/>
      <point x="107" y="142" type="curve" smooth="yes"/>
      <point x="329" y="690" type="line"/>
      <point x="357" y="690" type="line"/>
      <point x="580" y="164" type="line" smooth="yes"/>
      <point x="631.114" y="43.372"/>
      <point x="644.57" y="25"/>
      <point x="689" y="25" type="curve"/>
      <point x="689" y="0" type="line"/>
      <point x="365" y="0" type="line"/>
      <point x="365" y="25" type="line"/>
      <point x="415.044" y="25"/>
      <point x="439.329" y="47.7152"/>
      <point x="439.329" y="81" type="curve" smooth="yes"/>
      <point x="439.329" y="92.2774"/>
      <point x="436.656" y="104.768"/>
      <point x="431.254" y="118" type="curve" smooth="yes"/>
      <point x="399" y="197" type="line"/>
      <point x="174" y="197" type="line"/>
      <point x="159" y="158" type="line" smooth="yes"/>
      <point x="138" y="104"/>
      <point x="130" y="79"/>
      <point x="130" y="66" type="curve" smooth="yes"/>
      <point x="130" y="40"/>
      <point x="153" y="29"/>
      <point x="212" y="25" type="curve"/>
      <point x="212" y="0" type="line"/>
    </contour>
    <contour>
      <point x="189" y="236" type="line"/>
      <point x="384" y="236" type="line"/>
      <point x="283" y="479" type="line"/>
    </contour>
  </outline>
</glyph>
<glyph name="B" format="1">
  <advance width="667"/>
  <unicode hex="0042"/>
  <outline>
    <contour>
      <point x="16" y="0" type="line"/>
      <point x="16" y="25" type="line"/>
      <point x="89" y="33"/>
      <point x="104" y="45"/>
      <point x="104" y="96" type="curve" smooth="yes"/>
      <point x="104" y="580" type="line" smooth="yes"/>
      <point x="104" y="631"/>
      <point x="85" y="647"/>
      <point x="16" y="651" type="curve"/>
      <point x="16" y="676" type="line"/>
      <point x="325" y="676" type="line" smooth="yes"/>
      <point x="492" y="676"/>
      <point x="585" y="619"/>
      <point x="585" y="516" type="curve" smooth="yes"/>
      <point x="585" y="441.223"/>
      <point x="542.715" y="400.493"/>
      <point x="426" y="367" type="curve"/>
      <point x="426" y="363" type="line"/>
      <point x="531.207" y="340.71"/>
      <point x="619" y="295.42"/>
      <point x="619" y="188" type="curve" smooth="yes"/>
      <point x="619" y="75"/>
      <point x="507" y="-2.06958e-014"/>
      <point x="338" y="0" type="curve" smooth="yes"/>
    </contour>
    <contour>
      <point x="264" y="93" type="line" smooth="yes"/>
      <point x="264" y="49"/>
      <point x="281" y="32"/>
      <point x="325" y="32" type="curve" smooth="yes"/>
      <point x="406" y="32"/>
      <point x="447" y="82"/>
      <point x="447" y="179" type="curve" smooth="yes"/>
      <point x="447" y="289"/>
      <point x="397" y="343"/>
      <point x="294" y="343" type="curve" smooth="yes"/>
      <point x="264" y="343" type="line"/>
    </contour>
    <contour>
      <point x="264" y="373" type="line"/>
      <point x="272" y="373" type="line" smooth="yes"/>
      <point x="388.438" y="373"/>
      <point x="420" y="406.314"/>
      <point x="420" y="509" type="curve" smooth="yes"/>
      <point x="420" y="603"/>
      <point x="388" y="646"/>
      <point x="318" y="646" type="curve" smooth="yes"/>
      <point x="279" y="646"/>
      <point x="264" y="633"/>
      <point x="264" y="597" type="curve" smooth="yes"/>
    </contour>
  </outline>
</glyph>
<glyph name="C" format="2">
  <advance width="722"/>
  <unicode hex="0043"/>
  <outline>
    <contour>
      <point x="49" y="332" type="curve" smooth="yes"/>
      <point x="49" y="537"/>
      <point x="196" y="691"/>
      <point x="403" y="691" type="curve" smooth="yes"/>
      <point x="480" y="691"/>
      <point x="559" y="642"/>
      <point x="596" y="642" type="curve" smooth="yes"/>
      <point x="622" y="642"/>
      <point x="635" y="666"/>
      <point x="642" y="688" type="curve"/>
      <point x="669" y="688" type="line"/>
      <point x="669" y="454" type="line"/>
      <point x="644" y="454" type="line"/>
      <point x="606" y="547"/>
      <point x="522" y="658"/>
      <point x="411" y="658" type="curve" smooth="yes"/>
      <point x="246" y="658"/>
      <point x="226" y="460"/>
      <point x="226" y="336" type="curve" smooth="yes"/>
      <point x="226" y="207"/>
      <point x="255" y="29"/>
      <point x="421" y="29" type="curve" smooth="yes"/>
      <point x="520" y="29"/>
      <point x="593" y="81"/>
      <point x="657" y="152" type="curve"/>
      <point x="687" y="127" type="line"/>
      <point x="610" y="39"/>
      <point x="530" y="-19"/>
      <point x="408" y="-19" type="curve" smooth="yes"/>
      <point x="199" y="-19"/>
      <point x="49" y="121"/>
    </contour>
  </outline>
</glyph>
<glyph name="D" format="1">
  <advance width="724"/>
  <unicode hex="0044"/>
  <outline>
    <contour>
      <point x="16" y="0" type="line"/>
      <point x="16" y="25" type="line"/>
      <point x="74" y="27"/>
      <point x="99" y="47"/>
      <point x="99" y="91" type="curve" smooth="yes"/>
      <point x="99" y="584" type="line" smooth="yes"/>
      <point x="99" y="630"/>
      <point x="80" y="645"/>
      <point x="16" y="651" type="curve"/>
      <point x="16" y="676" type="line"/>
      <point x="321" y="676" type="line" smooth="yes"/>
      <point x="552" y="676"/>
      <point x="692" y="551"/>
      <point x="692" y="345" type="curve" smooth="yes"/>
      <point x="692" y="138"/>
      <point x="548" y="0"/>
      <point x="332" y="0" type="curve" smooth="yes"/>
    </contour>
    <contour>
      <point x="261" y="93" type="line" smooth="yes"/>
      <point x="261" y="48"/>
      <point x="274" y="35"/>
      <point x="319" y="35" type="curve" smooth="yes"/>
      <point x="384" y="35"/>
      <point x="432" y="58"/>
      <point x="466" y="104" type="curve" smooth="yes"/>
      <point x="498" y="149"/>
      <point x="518" y="235"/>
      <point x="518" y="330" type="curve" smooth="yes"/>
      <point x="518" y="414"/>
      <point x="504" y="487"/>
      <point x="477" y="540" type="curve" smooth="yes"/>
      <point x="443" y="609"/>
      <point x="392" y="642"/>
      <point x="320" y="642" type="curve" smooth="yes"/>
      <point x="281" y="642"/>
      <point x="261" y="630"/>
      <point x="261" y="607" type="curve" smooth="yes"/>
    </contour>
  </outline>
</glyph>
<glyph name="E" format="2">
  <advance width="667"/>
  <unicode hex="0045"/>
  <outline>
    <contour>
      <point x="16" y="0" type="line"/>
      <point x="16" y="25" type="line"/>
      <point x="90" y="33"/>
      <point x="104" y="44"/>
      <point x="104" y="96" type="curve" smooth="yes"/>
      <point x="104" y="580" type="line" smooth="yes"/>
      <point x="104" y="631"/>
      <point x="85" y="647"/>
      <point x="16" y="651" type="curve"/>
      <point x="16" y="676" type="line"/>
      <point x="593" y="676" type="line"/>
      <point x="593" y="475" type="line"/>
      <point x="568" y="475" type="line"/>
      <point x="544.088" y="602.209"/>
      <point x="498.205" y="641.901"/>
      <point x="351.65" y="641.901" type="curve" smooth="yes"/>
      <point x="331" y="641.901" type="line" smooth="yes"/>
      <point x="279.002" y="641.901"/>
      <point x="266" y="633"/>
      <point x="266" y="595" type="curve" smooth="yes"/>
      <point x="266" y="363" type="line"/>
      <point x="270.309" y="362.98" type="line"/>
      <point x="375.042" y="362.98"/>
      <point x="413.201" y="399.529"/>
      <point x="428" y="512" type="curve"/>
      <point x="454" y="512" type="line"/>
      <point x="454" y="174" type="line"/>
      <point x="428" y="174" type="line"/>
      <point x="416.149" y="288.558"/>
      <point x="376.013" y="328.505"/>
      <point x="270.035" y="328.982" type="curve"/>
      <point x="266" y="329" type="line"/>
      <point x="266" y="87" type="line" smooth="yes"/>
      <point x="266" y="44"/>
      <point x="285" y="31"/>
      <point x="349" y="31" type="curve"/>
      <point x="366.368" y="31.2931" type="line" smooth="yes"/>
      <point x="498.398" y="35.8642"/>
      <point x="560.108" y="93.6848"/>
      <point x="613" y="208" type="curve"/>
      <point x="641" y="208" type="line"/>
      <point x="601" y="0" type="line"/>
    </contour>
  </outline>
</glyph>
<glyph name="F" format="2">
  <advance width="611"/>
  <unicode hex="0046"/>
  <outline>
    <contour>
      <point x="16" y="0" type="line"/>
      <point x="16" y="25" type="line"/>
      <point x="90" y="33"/>
      <point x="104" y="44"/>
      <point x="104" y="96" type="curve" smooth="yes"/>
      <point x="104" y="580" type="line" smooth="yes"/>
      <point x="104" y="632"/>
      <point x="85" y="647"/>
      <point x="16" y="651" type="curve"/>
      <point x="16" y="676" type="line"/>
      <point x="583" y="676" type="line"/>
      <point x="583" y="475" type="line"/>
      <point x="559" y="475" type="line"/>
      <point x="528.238" y="613.428"/>
      <point x="487.61" y="642"/>
      <point x="341.331" y="642" type="curve" smooth="yes"/>
      <point x="330" y="642" type="line" smooth="yes"/>
      <point x="279" y="642"/>
      <point x="266" y="632"/>
      <point x="266" y="595" type="curve" smooth="yes"/>
      <point x="266" y="363.079" type="line"/>
      <point x="276" y="363" type="line"/>
      <point x="371.352" y="362.25"/>
      <point x="400.08" y="392.174"/>
      <point x="419" y="512" type="curve"/>
      <point x="444" y="512" type="line"/>
      <point x="444" y="174" type="line"/>
      <point x="419" y="174" type="line"/>
      <point x="405" y="290"/>
      <point x="378.019" y="328.83"/>
      <point x="276" y="329" type="curve"/>
      <point x="266" y="329.017" type="line"/>
      <point x="266" y="96" type="line" smooth="yes"/>
      <point x="266" y="41"/>
      <point x="284" y="29"/>
      <point x="376" y="25" type="curve"/>
      <point x="376" y="0" type="line"/>
    </contour>
  </outline>
</glyph>
<glyph name="I" format="2">
  <advance width="386"/>
  <unicode hex="0049"/>
  <outline>
    <contour>
      <point x="16" y="0" type="line"/>
      <point x="16" y="25" type="line"/>
      <point x="91" y="32"/>
      <point x="109" y="46"/>
      <point x="109" y="96" type="curve" smooth="yes"/>
      <point x="109" y="580" type="line" smooth="yes"/>
      <point x="109" y="631"/>
      <point x="88" y="646"/>
      <point x="16" y="651" type="curve"/>
      <point x="16" y="676" type="line"/>
      <point x="366" y="676" type="line"/>
      <point x="366" y="651" type="line"/>
      <point x="292" y="648"/>
      <point x="271" y="632"/>
      <point x="271" y="580" type="curve" smooth="yes"/>
      <point x="271" y="96" type="line" smooth="yes"/>
      <point x="271" y="44"/>
      <point x="290" y="30"/>
      <point x="366" y="25" type="curve"/>
      <point x="366" y="0" type="line"/>
    </contour>
  </outline>
</glyph>
<glyph name="L" format="2">
  <advance width="664"/>
  <unicode hex="004C"/>
  <outline>
    <contour>
      <point x="16" y="0" type="line"/>
      <point x="16" y="25" type="line"/>
      <point x="89" y="34"/>
      <point x="102" y="45"/>
      <point x="102" y="96" type="curve" smooth="yes"/>
      <point x="102" y="580" type="line" smooth="yes"/>
      <point x="102" y="631"/>
      <point x="84" y="647"/>
      <point x="16" y="651" type="curve"/>
      <point x="16" y="676" type="line"/>
      <point x="365" y="676" type="line"/>
      <point x="365" y="651" type="line"/>
      <point x="278" y="647"/>
      <point x="264" y="634"/>
      <point x="264" y="559" type="curve" smooth="yes"/>
      <point x="264" y="87" type="line" smooth="yes"/>
      <point x="264" y="44"/>
      <point x="282" y="31"/>
      <point x="343" y="31" type="curve" smooth="yes"/>
      <point x="361.392" y="31" type="line" smooth="yes"/>
      <point x="490.855" y="31"/>
      <point x="539.603" y="70.0611"/>
      <point x="606" y="227" type="curve"/>
      <point x="635" y="227" type="line"/>
      <point x="594" y="0" type="line"/>
    </contour>
  </outline>
</glyph>
<glyph name="P" format="2">
  <advance width="611"/>
  <unicode hex="0050"/>
  <outline>
    <contour>
      <point x="16" y="0" type="line"/>
      <point x="16" y="25" type="line"/>
      <point x="80.4558" y="36.7192"/>
      <point x="100" y="43.8245"/>
      <point x="100" y="117" type="curve" smooth="yes"/>
      <point x="100" y="559" type="line" smooth="yes"/>
      <point x="100" y="629"/>
      <point x="86" y="645"/>
      <point x="16" y="651" type="curve"/>
      <point x="16" y="676" type="line"/>
      <point x="338" y="676" type="line" smooth="yes"/>
      <point x="505.573" y="676"/>
      <point x="600" y="609.597"/>
      <point x="600" y="491.757" type="curve" smooth="yes"/>
      <point x="600" y="374.454"/>
      <point x="497.803" y="309.916"/>
      <point x="311.886" y="309.811" type="curve" smooth="yes"/>
      <point x="283.271" y="309.795"/>
      <point x="255.986" y="311.196"/>
      <point x="232" y="313" type="curve"/>
      <point x="232" y="348" type="line"/>
      <point x="248.14" y="346.651"/>
      <point x="263.492" y="345.879"/>
      <point x="277.976" y="345.871" type="curve" smooth="yes"/>
      <point x="382.987" y="345.813"/>
      <point x="428" y="388.757"/>
      <point x="428" y="489" type="curve" smooth="yes"/>
      <point x="428" y="596.801"/>
      <point x="395.038" y="640.677"/>
      <point x="313.811" y="640.993" type="curve"/>
      <point x="312" y="641" type="line"/>
      <point x="279" y="641.128"/>
      <point x="262" y="629"/>
      <point x="262" y="606" type="curve" smooth="yes"/>
      <point x="262" y="117" type="line" smooth="yes"/>
      <point x="262" y="44"/>
      <point x="271" y="35"/>
      <point x="350" y="25" type="curve"/>
      <point x="350" y="0" type="line"/>
    </contour>
  </outline>
</glyph>
<glyph name="Q" format="2">
  <advance width="778"/>
  <unicode hex="0051"/>
  <outline>
    <component base="O"/>
    <contour>
      <point x="268.145" y="9.81826" type="curve"/>
      <point x="481.829" y="10" type="line"/>
      <point x="522.273" y="-69.1998"/>
      <point x="564.48" y="-129"/>
      <point x="660.495" y="-129" type="curve" smooth="yes"/>
      <point x="682" y="-129"/>
      <point x="698" y="-126"/>
      <point x="730" y="-117" type="curve"/>
      <point x="736" y="-141" type="line"/>
      <point x="661" y="-168"/>
      <point x="618" y="-176"/>
      <point x="566.4" y="-176" type="curve" smooth="yes"/>
      <point x="422.084" y="-176"/>
      <point x="318.769" y="-113.422"/>
    </contour>
  </outline>
</glyph>
<glyph name="S" format="1">
  <advance width="556"/>
  <unicode hex="0053"/>
  <outline>
    <contour>
      <point x="35" y="-19" type="line"/>
      <point x="35" y="228" type="line"/>
      <point x="64" y="228" type="line"/>
      <point x="81" y="158"/>
      <point x="95" y="125"/>
      <point x="122" y="88" type="curve" smooth="yes"/>
      <point x="160" y="39"/>
      <point x="210" y="14"/>
      <point x="268" y="14" type="curve" smooth="yes"/>
      <point x="345" y="14"/>
      <point x="394" y="59"/>
      <point x="394" y="128" type="curve" smooth="yes"/>
      <point x="394" y="180"/>
      <point x="370" y="206"/>
      <point x="282" y="248" type="curve" smooth="yes"/>
      <point x="215" y="280" type="line" smooth="yes"/>
      <point x="96" y="337"/>
      <point x="44" y="400"/>
      <point x="44" y="488" type="curve" smooth="yes"/>
      <point x="44" y="614"/>
      <point x="127" y="691"/>
      <point x="263" y="691" type="curve" smooth="yes"/>
      <point x="301" y="691"/>
      <point x="333" y="685"/>
      <point x="380" y="669" type="curve" smooth="yes"/>
      <point x="402" y="661"/>
      <point x="413" y="658"/>
      <point x="422" y="658" type="curve" smooth="yes"/>
      <point x="439" y="658"/>
      <point x="447" y="666"/>
      <point x="454" y="692" type="curve"/>
      <point x="484" y="692" type="line"/>
      <point x="484" y="475" type="line"/>
      <point x="456" y="475" type="line"/>
      <point x="436" y="540"/>
      <point x="420" y="569"/>
      <point x="386" y="604" type="curve" smooth="yes"/>
      <point x="350" y="641"/>
      <point x="308" y="660"/>
      <point x="263" y="660" type="curve" smooth="yes"/>
      <point x="195" y="660"/>
      <point x="153" y="622"/>
      <point x="153" y="560" type="curve" smooth="yes"/>
      <point x="153" y="512"/>
      <point x="175" y="487"/>
      <point x="256" y="447" type="curve" smooth="yes"/>
      <point x="403" y="374" type="line" smooth="yes"/>
      <point x="467" y="342"/>
      <point x="513" y="267"/>
      <point x="513" y="192" type="curve" smooth="yes"/>
      <point x="513" y="66"/>
      <point x="413" y="-19"/>
      <point x="265" y="-19" type="curve" smooth="yes"/>
      <point x="222" y="-19"/>
      <point x="185" y="-12"/>
      <point x="135" y="5" type="curve" smooth="yes"/>
      <point x="113" y="12"/>
      <point x="102" y="15"/>
      <point x="94" y="15" type="curve" smooth="yes"/>
      <point x="78" y="15"/>
      <point x="70" y="6"/>
      <point x="64" y="-19" type="curve"/>
    </contour>
  </outline>
</glyph>
<glyph name="bracketleft" format="1">
  <advance width="333"/>
  <unicode hex="005B"/>
  <outline>
    <contour>
      <point x="67" y="-149" type="line"/>
      <point x="67" y="678" type="line"/>
      <point x="301" y="678" type="line"/>
      <point x="301" y="645" type="line"/>
      <point x="238" y="645" type="line" smooth="yes"/>
      <point x="182" y="645"/>
      <point x="171" y="633"/>
      <point x="171" y="575" type="curve" smooth="yes"/>
      <point x="171" y="-63" type="line" smooth="yes"/>
      <point x="171" y="-106"/>
      <point x="180" y="-116"/>
      <point x="221" y="-116" type="curve" smooth="yes"/>
      <point x="301" y="-116" type="line"/>
      <point x="301" y="-149" type="line"/>
    </contour>
  </outline>
</glyph>
<glyph name="backslash" format="1">
  <advance width="278"/>
  <unicode hex="005C"/>
  <outline>
    <contour>
      <point x="-25" y="691" type="line"/>
      <point x="68" y="691" type="line"/>
      <point x="303" y="-19" type="line"/>
      <point x="211" y="-19" type="line"/>
    </contour>
  </outline>
</glyph>
<glyph name="asciicircum" format="2">
  <advance width="581"/>
  <unicode hex="005E"/>
  <outline>
    <contour>
      <point x="73" y="311" type="line"/>
      <point x="251" y="676" type="line"/>
      <point x="331" y="676" type="line"/>
      <point x="509" y="311" type="line"/>
      <point x="420" y="311" type="line"/>
      <point x="291" y="583" type="line"/>
      <point x="162" y="311" type="line"/>
    </contour>
  </outline>
</glyph>
<glyph name="grave" format="1">
  <advance width="378"/>
  <unicode hex="0060"/>
  <outline>
    <contour>
      <point x="70" y="668" type="curve" smooth="yes"/>
      <point x="70" y="693"/>
      <point x="91" y="713"/>
      <point x="117" y="713" type="curve" smooth="yes"/>
      <point x="136" y="713"/>
      <point x="155" y="703"/>
      <point x="171" y="685" type="curve" smooth="yes"/>
      <point x="308" y="528" type="line"/>
      <point x="252" y="528" type="line"/>
      <point x="110" y="616" type="line" smooth="yes"/>
      <point x="81" y="634"/>
      <point x="70" y="648"/>
    </contour>
  </outline>
</glyph>
<glyph name="a" format="1">
  <advance width="500"/>
  <unicode hex="0061"/>
  <outline>
    <contour>
      <point x="25" y="92" type="curve" smooth="yes"/>
      <point x="25" y="135"/>
      <point x="46" y="169"/>
      <point x="89" y="199" type="curve" smooth="yes"/>
      <point x="126" y="224"/>
      <point x="175" y="244"/>
      <point x="294" y="280" type="curve"/>
      <point x="294" y="353" type="line" smooth="yes"/>
      <point x="294" y="414"/>
      <point x="268" y="441"/>
      <point x="210" y="441" type="curve" smooth="yes"/>
      <point x="175" y="441"/>
      <point x="147" y="425"/>
      <point x="147" y="404" type="curve" smooth="yes"/>
      <point x="147" y="398"/>
      <point x="150" y="392"/>
      <point x="159" y="382" type="curve" smooth="yes"/>
      <point x="171" y="366"/>
      <point x="177" y="353"/>
      <point x="177" y="339" type="curve" smooth="yes"/>
      <point x="177" y="305"/>
      <point x="149" y="281"/>
      <point x="109" y="281" type="curve" smooth="yes"/>
      <point x="68" y="281"/>
      <point x="44" y="306"/>
      <point x="44" y="347" type="curve" smooth="yes"/>
      <point x="44" y="422"/>
      <point x="120" y="473"/>
      <point x="233" y="473" type="curve" smooth="yes"/>
      <point x="355" y="473"/>
      <point x="431" y="420"/>
      <point x="431" y="336" type="curve" smooth="yes"/>
      <point x="431" y="75" type="line" smooth="yes"/>
      <point x="431" y="59"/>
      <point x="438" y="50"/>
      <point x="452" y="50" type="curve" smooth="yes"/>
      <point x="457" y="50"/>
      <point x="460" y="51"/>
      <point x="463" y="54" type="curve" smooth="yes"/>
      <point x="473" y="64" type="line"/>
      <point x="488" y="43" type="line"/>
      <point x="450" y="2"/>
      <point x="419" y="-14"/>
      <point x="376" y="-14" type="curve" smooth="yes"/>
      <point x="327" y="-14"/>
      <point x="305" y="5"/>
      <point x="294" y="56" type="curve"/>
      <point x="239" y="6"/>
      <point x="193" y="-14"/>
      <point x="136" y="-14" type="curve" smooth="yes"/>
      <point x="72" y="-14"/>
      <point x="25" y="31"/>
    </contour>
    <contour>
      <point x="171" y="124" type="curve" smooth="yes"/>
      <point x="171" y="84"/>
      <point x="192" y="57"/>
      <point x="222" y="57" type="curve" smooth="yes"/>
      <point x="246" y="57"/>
      <point x="266" y="69"/>
      <point x="293" y="100" type="curve"/>
      <point x="293" y="245" type="line"/>
      <point x="213" y="224"/>
      <point x="171" y="182"/>
    </contour>
  </outline>
</glyph>
<glyph name="b" format="1">
  <advance width="556"/>
  <unicode hex="0062"/>
  <outline>
    <contour>
      <point x="17" y="652" type="curve"/>
      <point x="17" y="676" type="line"/>
      <point x="211" y="676" type="line"/>
      <point x="211" y="417" type="line"/>
      <point x="248" y="456"/>
      <point x="285" y="473"/>
      <point x="333" y="473" type="curve" smooth="yes"/>
      <point x="444" y="473"/>
      <point x="521" y="377"/>
      <point x="521" y="239" type="curve" smooth="yes"/>
      <point x="521" y="90"/>
      <point x="428" y="-14"/>
      <point x="295" y="-14" type="curve" smooth="yes"/>
      <point x="245" y="-14"/>
      <point x="209" y="2"/>
      <point x="163" y="43" type="curve"/>
      <point x="84" y="-13" type="line"/>
      <point x="72" y="-13" type="line"/>
      <point x="72" y="594" type="line" smooth="yes"/>
      <point x="72" y="634"/>
      <point x="63" y="643"/>
    </contour>
    <contour>
      <point x="211" y="97" type="line" smooth="yes"/>
      <point x="211" y="49"/>
      <point x="238" y="18"/>
      <point x="280" y="18" type="curve" smooth="yes"/>
      <point x="344" y="18"/>
      <point x="374" y="83"/>
      <point x="374" y="221" type="curve" smooth="yes"/>
      <point x="374" y="352"/>
      <point x="343" y="419"/>
      <point x="281" y="419" type="curve" smooth="yes"/>
      <point x="248" y="419"/>
      <point x="228" y="403"/>
      <point x="211" y="360" type="curve"/>
    </contour>
  </outline>
</glyph>
<glyph name="c" format="2">
  <advance width="444"/>
  <unicode hex="0063"/>
  <outline>
    <contour>
      <point x="24" y="222" type="curve" smooth="yes"/>
      <point x="24" y="366"/>
      <point x="124" y="472"/>
      <point x="260" y="472" type="curve" smooth="yes"/>
      <point x="348" y="472"/>
      <point x="415" y="424"/>
      <point x="415" y="362" type="curve" smooth="yes"/>
      <point x="415" y="329"/>
      <point x="399" y="300"/>
      <point x="357" y="300" type="curve" smooth="yes"/>
      <point x="320" y="300"/>
      <point x="291" y="328"/>
      <point x="291" y="372" type="curve" smooth="yes"/>
      <point x="291" y="414"/>
      <point x="289" y="416"/>
      <point x="284" y="425" type="curve" smooth="yes"/>
      <point x="278" y="436"/>
      <point x="266" y="442"/>
      <point x="250" y="442" type="curve" smooth="yes"/>
      <point x="198" y="442"/>
      <point x="166" y="379"/>
      <point x="166" y="276" type="curve" smooth="yes"/>
      <point x="166" y="140"/>
      <point x="221" y="53"/>
      <point x="308" y="53" type="curve" smooth="yes"/>
      <point x="349" y="53"/>
      <point x="375" y="67"/>
      <point x="412" y="109" type="curve"/>
      <point x="429" y="90" type="line"/>
      <point x="371" y="16"/>
      <point x="315" y="-15"/>
      <point x="238" y="-15" type="curve" smooth="yes"/>
      <point x="114" y="-15"/>
      <point x="24" y="84"/>
    </contour>
  </outline>
</glyph>
<glyph name="d" format="2">
  <advance width="556"/>
  <unicode hex="0064"/>
  <outline>
    <contour>
      <point x="25" y="222.831" type="curve" smooth="yes"/>
      <point x="25" y="366"/>
      <point x="107" y="473"/>
      <point x="219.498" y="473" type="curve" smooth="yes"/>
      <point x="263" y="473"/>
      <point x="293" y="457"/>
      <point x="336" y="411" type="curve"/>
      <point x="336" y="594" type="line" smooth="yes"/>
      <point x="336" y="640"/>
      <point x="327" y="647"/>
      <point x="260" y="652" type="curve"/>
      <point x="260" y="676" type="line"/>
      <point x="475" y="676" type="line"/>
      <point x="475" y="101" type="line" smooth="yes"/>
      <point x="475" y="59"/>
      <point x="488" y="46"/>
      <point x="534" y="43" type="curve"/>
      <point x="534" y="20" type="line"/>
      <point x="472" y="12" type="line" smooth="yes"/>
      <point x="410" y="5"/>
      <point x="391" y="0"/>
      <point x="345" y="-13" type="curve"/>
      <point x="339" y="-8.82529" type="line"/>
      <point x="339" y="52" type="line"/>
      <point x="292" y="2"/>
      <point x="259" y="-14"/>
      <point x="213.695" y="-14" type="curve" smooth="yes"/>
      <point x="101" y="-14"/>
      <point x="25" y="85"/>
    </contour>
    <contour>
      <point x="173" y="227.538" type="curve" smooth="yes"/>
      <point x="173" y="102"/>
      <point x="198" y="42"/>
      <point x="244.547" y="42" type="curve" smooth="yes"/>
      <point x="282.053" y="42"/>
      <point x="319.656" y="80.9568"/>
      <point x="336" y="112" type="curve"/>
      <point x="336" y="355" type="line"/>
      <point x="322" y="393"/>
      <point x="291" y="417"/>
      <point x="255.563" y="417" type="curve" smooth="yes"/>
      <point x="200" y="417"/>
      <point x="173" y="358"/>
    </contour>
  </outline>
</glyph>
<glyph name="f" format="2">
  <advance width="333"/>
  <unicode hex="0066"/>
  <outline>
    <contour>
      <point x="14" y="0" type="line"/>
      <point x="14" y="24" type="line"/>
      <point x="60" y="29"/>
      <point x="71" y="41"/>
      <point x="71" y="84" type="curve" smooth="yes"/>
      <point x="71" y="417" type="line"/>
      <point x="14" y="417" type="line"/>
      <point x="14" y="461" type="line"/>
      <point x="71" y="461" type="line"/>
      <point x="71" y="588.188"/>
      <point x="91.906" y="691"/>
      <point x="237.842" y="691" type="curve" smooth="yes"/>
      <point x="330" y="691"/>
      <point x="389" y="650"/>
      <point x="389" y="591" type="curve" smooth="yes"/>
      <point x="389" y="554"/>
      <point x="364" y="529"/>
      <point x="326.152" y="529" type="curve" smooth="yes"/>
      <point x="293" y="529"/>
      <point x="262.085" y="548.18"/>
      <point x="262.085" y="589.152" type="curve" smooth="yes"/>
      <point x="262.085" y="611.821"/>
      <point x="274.959" y="629"/>
      <point x="289" y="642.489" type="curve"/>
      <point x="289" y="653"/>
      <point x="278" y="660"/>
      <point x="258.886" y="660" type="curve" smooth="yes"/>
      <point x="225" y="660"/>
      <point x="210" y="638"/>
      <point x="210" y="583" type="curve" smooth="yes"/>
      <point x="210" y="461" type="line"/>
      <point x="297" y="461" type="line"/>
      <point x="297" y="417" type="line"/>
      <point x="210" y="417" type="line"/>
      <point x="210" y="103" type="line" smooth="yes"/>
      <point x="210" y="38"/>
      <point x="222" y="24"/>
      <point x="292" y="24" type="curve"/>
      <point x="292" y="0" type="line"/>
    </contour>
  </outline>
</glyph>
<glyph name="i" format="2">
  <advance width="278"/>
  <unicode hex="0069"/>
  <outline>
    <contour>
      <point x="16" y="0" type="line"/>
      <point x="16" y="24" type="line"/>
      <point x="62" y="35"/>
      <point x="69" y="43"/>
      <point x="69" y="84" type="curve" smooth="yes"/>
      <point x="69" y="378" type="line" smooth="yes"/>
      <point x="69" y="419"/>
      <point x="60" y="428"/>
      <point x="16" y="437" type="curve"/>
      <point x="16" y="461" type="line"/>
      <point x="208" y="461" type="line"/>
      <point x="208" y="81" type="line" smooth="yes"/>
      <point x="208" y="43"/>
      <point x="220" y="29"/>
      <point x="255" y="24" type="curve"/>
      <point x="255" y="0" type="line"/>
    </contour>
    <contour>
      <point x="60" y="614" type="curve" smooth="yes"/>
      <point x="60" y="656"/>
      <point x="95" y="691"/>
      <point x="138" y="691" type="curve" smooth="yes"/>
      <point x="181" y="691"/>
      <point x="215" y="656"/>
      <point x="215" y="613" type="curve" smooth="yes"/>
      <point x="215" y="569"/>
      <point x="181" y="536"/>
      <point x="137" y="536" type="curve" smooth="yes"/>
      <point x="93" y="536"/>
      <point x="60" y="569"/>
    </contour>
  </outline>
</glyph>
<glyph name="k" format="2">
  <advance width="556"/>
  <unicode hex="006B"/>
  <outline>
    <component base="l" xOffset="3"/>
    <contour>
      <point x="170" y="155" type="line"/>
      <point x="170" y="205" type="line"/>
      <point x="337" y="373" type="line" smooth="yes"/>
      <point x="347.967" y="384.033"/>
      <point x="358" y="402"/>
      <point x="358" y="411" type="curve" smooth="yes"/>
      <point x="358" y="426.106"/>
      <point x="336.49" y="434.419"/>
      <point x="299" y="438" type="curve"/>
      <point x="299" y="461" type="line"/>
      <point x="513" y="461" type="line"/>
      <point x="513" y="438" type="line"/>
      <point x="456.749" y="430.857"/>
      <point x="429.995" y="415.742"/>
      <point x="353.727" y="337.845" type="curve" smooth="yes"/>
      <point x="324" y="307" type="line"/>
      <point x="518" y="39" type="line" smooth="yes"/>
      <point x="527" y="27"/>
      <point x="532" y="24"/>
      <point x="543" y="24" type="curve"/>
      <point x="543" y="0" type="line"/>
      <point x="309" y="0" type="line"/>
      <point x="309" y="23.5183" type="line"/>
      <point x="314" y="24" type="line"/>
      <point x="340.47" y="24"/>
      <point x="351" y="29.4074"/>
      <point x="351" y="41.302" type="curve" smooth="yes"/>
      <point x="351" y="51"/>
      <point x="344" y="63"/>
      <point x="327" y="88" type="curve" smooth="yes"/>
      <point x="232" y="222" type="line"/>
    </contour>
  </outline>
</glyph>
<glyph name="l" format="1">
  <advance width="278"/>
  <unicode hex="006C"/>
  <outline>
    <contour>
      <point x="16" y="0" type="line"/>
      <point x="16" y="24" type="line"/>
      <point x="50" y="27"/>
      <point x="67" y="47"/>
      <point x="67" y="84" type="curve" smooth="yes"/>
      <point x="67" y="594" type="line" smooth="yes"/>
      <point x="67" y="631"/>
      <point x="51" y="649"/>
      <point x="16" y="652" type="curve"/>
      <point x="16" y="676" type="line"/>
      <point x="206" y="676" type="line"/>
      <point x="206" y="84" type="line" smooth="yes"/>
      <point x="206" y="44"/>
      <point x="222" y="25"/>
      <point x="255" y="24" type="curve"/>
      <point x="255" y="0" type="line"/>
    </contour>
  </outline>
</glyph>
<glyph name="m" format="2">
  <advance width="833"/>
  <unicode hex="006D"/>
  <outline>
    <contour>
      <point x="16" y="0" type="line"/>
      <point x="16" y="24" type="line"/>
      <point x="60" y="32"/>
      <point x="71" y="43"/>
      <point x="71" y="84" type="curve" smooth="yes"/>
      <point x="71" y="378" type="line" smooth="yes"/>
      <point x="71" y="419"/>
      <point x="60" y="431"/>
      <point x="16" y="437" type="curve"/>
      <point x="16" y="461" type="line"/>
      <point x="207" y="461" type="line"/>
      <point x="207" y="386" type="line"/>
      <point x="245" y="446"/>
      <point x="291" y="473"/>
      <point x="355.855" y="473" type="curve" smooth="yes"/>
      <point x="417" y="473"/>
      <point x="452" y="449"/>
      <point x="482" y="386" type="curve"/>
      <point x="534" y="450"/>
      <point x="572" y="473"/>
      <point x="626.587" y="473" type="curve" smooth="yes"/>
      <point x="711" y="473"/>
      <point x="764" y="418"/>
      <point x="764" y="332" type="curve" smooth="yes"/>
      <point x="764" y="81" type="line" smooth="yes"/>
      <point x="764" y="38"/>
      <point x="775" y="26"/>
      <point x="814" y="24" type="curve"/>
      <point x="814" y="0" type="line"/>
      <point x="576" y="0" type="line"/>
      <point x="576" y="24" type="line"/>
      <point x="614" y="27"/>
      <point x="625" y="39"/>
      <point x="625" y="81" type="curve" smooth="yes"/>
      <point x="625" y="323" type="line" smooth="yes"/>
      <point x="625" y="382"/>
      <point x="610" y="406"/>
      <point x="578.829" y="406" type="curve" smooth="yes"/>
      <point x="547.015" y="406"/>
      <point x="510" y="381"/>
      <point x="487" y="348" type="curve"/>
      <point x="487" y="81" type="line" smooth="yes"/>
      <point x="487" y="43"/>
      <point x="499" y="28"/>
      <point x="534" y="24" type="curve"/>
      <point x="534" y="0" type="line"/>
      <point x="300" y="0" type="line"/>
      <point x="300" y="24" type="line"/>
      <point x="337" y="27"/>
      <point x="348" y="40"/>
      <point x="348" y="81" type="curve" smooth="yes"/>
      <point x="348" y="323" type="line" smooth="yes"/>
      <point x="348" y="383"/>
      <point x="333" y="406"/>
      <point x="303.597" y="406" type="curve" smooth="yes"/>
      <point x="269.658" y="406"/>
      <point x="229.233" y="375.358"/>
      <point x="210" y="348" type="curve"/>
      <point x="210" y="81" type="line" smooth="yes"/>
      <point x="210" y="43"/>
      <point x="221" y="29"/>
      <point x="256" y="24" type="curve"/>
      <point x="256" y="0" type="line"/>
    </contour>
  </outline>
</glyph>
<glyph name="n" format="2">
  <advance width="556"/>
  <unicode hex="006E"/>
  <outline>
    <component base="dotlessi"/>
    <contour>
      <point x="190" y="352.005" type="line"/>
      <point x="212" y="386" type="line" smooth="yes"/>
      <point x="249.837" y="444.467"/>
      <point x="295" y="473"/>
      <point x="355" y="473" type="curve" smooth="yes"/>
      <point x="437" y="473"/>
      <point x="490" y="418"/>
      <point x="490" y="332" type="curve" smooth="yes"/>
      <point x="490" y="81" type="line" smooth="yes"/>
      <point x="490" y="39"/>
      <point x="500" y="27"/>
      <point x="539" y="24" type="curve"/>
      <point x="539" y="0" type="line"/>
      <point x="304" y="0" type="line"/>
      <point x="304" y="24" type="line"/>
      <point x="338" y="28"/>
      <point x="351" y="44"/>
      <point x="351" y="81" type="curve" smooth="yes"/>
      <point x="351" y="323" type="line" smooth="yes"/>
      <point x="351" y="379"/>
      <point x="334" y="406"/>
      <point x="299" y="406" type="curve" smooth="yes"/>
      <point x="264.327" y="406"/>
      <point x="230.474" y="376.87"/>
      <point x="213" y="348" type="curve" smooth="yes"/>
      <point x="190" y="310" type="line"/>
    </contour>
  </outline>
</glyph>
<glyph name="u" format="2">
  <advance width="556"/>
  <unicode hex="0075"/>
  <outline>
    <contour>
      <point x="16" y="437" type="curve"/>
      <point x="16" y="461" type="line"/>
      <point x="204" y="461" type="line"/>
      <point x="204" y="122" type="line" smooth="yes"/>
      <point x="204" y="71"/>
      <point x="219" y="51"/>
      <point x="258.618" y="51" type="curve" smooth="yes"/>
      <point x="288" y="51"/>
      <point x="309" y="62"/>
      <point x="342" y="95" type="curve"/>
      <point x="342" y="378" type="line" smooth="yes"/>
      <point x="342" y="421"/>
      <point x="330" y="433"/>
      <point x="280" y="437" type="curve"/>
      <point x="280" y="461" type="line"/>
      <point x="481" y="461" type="line"/>
      <point x="481" y="101" type="line" smooth="yes"/>
      <point x="481" y="58"/>
      <point x="493" y="45.75"/>
      <point x="537" y="44" type="curve"/>
      <point x="537" y="20" type="line"/>
      <point x="472.975" y="14.7713"/>
      <point x="413.941" y="8.25836"/>
      <point x="353" y="-13" type="curve"/>
      <point x="343" y="-6.72336" type="line"/>
      <point x="343" y="52" type="line"/>
      <point x="332.786" y="43.3519" type="line" smooth="yes"/>
      <point x="280.662" y="-0.781137"/>
      <point x="246.876" y="-14"/>
      <point x="202.891" y="-14" type="curve" smooth="yes"/>
      <point x="115" y="-14"/>
      <point x="65" y="38.7826"/>
      <point x="65" y="126" type="curve" smooth="yes"/>
      <point x="65" y="378" type="line" smooth="yes"/>
      <point x="65" y="420"/>
      <point x="57" y="429"/>
    </contour>
  </outline>
</glyph>
<glyph name="v" format="2">
  <advance width="500"/>
  <unicode hex="0076"/>
  <outline>
    <contour>
      <point x="21" y="437" type="curve"/>
      <point x="21" y="461" type="line"/>
      <point x="271" y="461" type="line"/>
      <point x="271" y="437" type="line"/>
      <point x="241.34" y="434.668"/>
      <point x="218" y="431.457"/>
      <point x="218" y="411" type="curve" smooth="yes"/>
      <point x="218" y="405"/>
      <point x="219.634" y="398.861"/>
      <point x="227" y="380" type="curve" smooth="yes"/>
      <point x="309.436" y="168.924" type="line"/>
      <point x="302.805" y="168.924" type="line"/>
      <point x="378" y="359" type="line" smooth="yes"/>
      <point x="385.105" y="376.959"/>
      <point x="389" y="393"/>
      <point x="389" y="404" type="curve" smooth="yes"/>
      <point x="389" y="428"/>
      <point x="377" y="435"/>
      <point x="334" y="437" type="curve"/>
      <point x="334" y="461" type="line"/>
      <point x="485" y="461" type="line"/>
      <point x="485" y="437" type="line"/>
      <point x="454" y="434"/>
      <point x="446" y="426"/>
      <point x="427" y="382" type="curve"/>
      <point x="267" y="-14" type="line"/>
      <point x="241" y="-14" type="line"/>
      <point x="79" y="382" type="line" smooth="yes"/>
      <point x="65.2227" y="415.678"/>
      <point x="58.2148" y="432.146"/>
    </contour>
  </outline>
</glyph>
<glyph name="w" format="2">
  <advance width="722"/>
  <unicode hex="0077"/>
  <outline>
    <contour>
      <point x="23" y="437" type="curve"/>
      <point x="23" y="461" type="line"/>
      <point x="245" y="461" type="line"/>
      <point x="245" y="437" type="line"/>
      <point x="217" y="433"/>
      <point x="207" y="425"/>
      <point x="207" y="407.499" type="curve" smooth="yes"/>
      <point x="207" y="396"/>
      <point x="211.317" y="385.463"/>
      <point x="215.169" y="375.338" type="curve" smooth="yes"/>
      <point x="291" y="176" type="line"/>
      <point x="359" y="347" type="line"/>
      <point x="340.597" y="406.171" type="line" smooth="yes"/>
      <point x="335.977" y="421.027"/>
      <point x="326.629" y="432.448"/>
      <point x="294" y="437" type="curve"/>
      <point x="294" y="461" type="line"/>
      <point x="528" y="461" type="line"/>
      <point x="528" y="437" type="line"/>
      <point x="490" y="434"/>
      <point x="480" y="429"/>
      <point x="480" y="416.212" type="curve" smooth="yes"/>
      <point x="480" y="410.134"/>
      <point x="482.377" y="398.259"/>
      <point x="487.09" y="380.797" type="curve" smooth="yes"/>
      <point x="541" y="180" type="line"/>
      <point x="610.319" y="360.617" type="line" smooth="yes"/>
      <point x="616.156" y="375.825"/>
      <point x="620" y="390"/>
      <point x="620" y="403.004" type="curve" smooth="yes"/>
      <point x="620" y="425"/>
      <point x="609" y="433"/>
      <point x="572" y="437" type="curve"/>
      <point x="572" y="461" type="line"/>
      <point x="707" y="461" type="line"/>
      <point x="707" y="437" type="line"/>
      <point x="681" y="432"/>
      <point x="671.534" y="424.6"/>
      <point x="657" y="387" type="curve" smooth="yes"/>
      <point x="502" y="-14" type="line"/>
      <point x="479" y="-14" type="line"/>
      <point x="377" y="296" type="line"/>
      <point x="252" y="-14" type="line"/>
      <point x="228" y="-14" type="line"/>
      <point x="66.6872" y="391.766" type="line" smooth="yes"/>
      <point x="57.7014" y="414.369"/>
      <point x="49" y="432"/>
    </contour>
  </outline>
</glyph>
<glyph name="y" format="2">
  <advance width="500"/>
  <unicode hex="0079"/>
  <outline>
    <contour>
      <point x="16" y="-126" type="curve" smooth="yes"/>
      <point x="16" y="-88"/>
      <point x="43" y="-62"/>
      <point x="80" y="-62" type="curve" smooth="yes"/>
      <point x="114" y="-62"/>
      <point x="138" y="-82"/>
      <point x="138" y="-111" type="curve" smooth="yes"/>
      <point x="138" y="-115.686"/>
      <point x="136.971" y="-120.373"/>
      <point x="136.118" y="-124.255" type="curve"/>
      <point x="134.992" y="-127.255"/>
      <point x="134" y="-133.343"/>
      <point x="134" y="-135" type="curve"/>
      <point x="134" y="-144"/>
      <point x="143" y="-148"/>
      <point x="152" y="-148" type="curve" smooth="yes"/>
      <point x="175" y="-148"/>
      <point x="201" y="-116"/>
      <point x="218" y="-66" type="curve" smooth="yes"/>
      <point x="236" y="-13" type="line"/>
      <point x="90.4848" y="373.08" type="line" smooth="yes"/>
      <point x="72.4512" y="420.926"/>
      <point x="52.4313" y="431.89"/>
      <point x="16" y="437" type="curve"/>
      <point x="16" y="461" type="line"/>
      <point x="266" y="461" type="line"/>
      <point x="266" y="437" type="line"/>
      <point x="248.751" y="435.922"/>
      <point x="214" y="432.433"/>
      <point x="214" y="411" type="curve" smooth="yes"/>
      <point x="214" y="403"/>
      <point x="224.913" y="372.78"/>
      <point x="233" y="352" type="curve" smooth="yes"/>
      <point x="305" y="167" type="line"/>
      <point x="373" y="359" type="line" smooth="yes"/>
      <point x="382" y="384"/>
      <point x="384" y="393"/>
      <point x="384" y="404" type="curve" smooth="yes"/>
      <point x="384" y="428"/>
      <point x="372" y="435"/>
      <point x="329" y="437" type="curve"/>
      <point x="329" y="461" type="line"/>
      <point x="480" y="461" type="line"/>
      <point x="480" y="437" type="line"/>
      <point x="449" y="434"/>
      <point x="437.921" y="424.421"/>
      <point x="422" y="382" type="curve" smooth="yes"/>
      <point x="254.943" y="-63.1118" type="line" smooth="yes"/>
      <point x="225.319" y="-142.043"/>
      <point x="194.004" y="-205"/>
      <point x="113" y="-205" type="curve" smooth="yes"/>
      <point x="56" y="-205"/>
      <point x="16" y="-172"/>
    </contour>
  </outline>
</glyph>
<glyph name="braceleft" format="1">
  <advance width="394"/>
  <unicode hex="007B"/>
  <outline>
    <contour>
      <point x="22" y="261" type="curve"/>
      <point x="107" y="282"/>
      <point x="129" y="306"/>
      <point x="129" y="377" type="curve" smooth="yes"/>
      <point x="129" y="556" type="line" smooth="yes"/>
      <point x="129" y="611"/>
      <point x="145" y="648"/>
      <point x="179" y="669" type="curve" smooth="yes"/>
      <point x="211" y="690"/>
      <point x="251" y="697"/>
      <point x="340" y="698" type="curve"/>
      <point x="340" y="686" type="line"/>
      <point x="260" y="669"/>
      <point x="234" y="638"/>
      <point x="234" y="562" type="curve" smooth="yes"/>
      <point x="234" y="391" type="line" smooth="yes"/>
      <point x="234" y="307"/>
      <point x="210" y="281"/>
      <point x="116" y="261" type="curve"/>
      <point x="210" y="241"/>
      <point x="234" y="215"/>
      <point x="234" y="131" type="curve" smooth="yes"/>
      <point x="234" y="-40" type="line" smooth="yes"/>
      <point x="234" y="-116"/>
      <point x="261" y="-147"/>
      <point x="340" y="-163" type="curve"/>
      <point x="340" y="-175" type="line"/>
      <point x="242" y="-174"/>
      <point x="198" y="-164"/>
      <point x="168" y="-138" type="curve" smooth="yes"/>
      <point x="141" y="-116"/>
      <point x="129" y="-83"/>
      <point x="129" y="-34" type="curve" smooth="yes"/>
      <point x="129" y="145" type="line" smooth="yes"/>
      <point x="129" y="216"/>
      <point x="107" y="240"/>
    </contour>
  </outline>
</glyph>
<glyph name="asciitilde" format="1">
  <advance width="520"/>
  <unicode hex="007E"/>
  <outline>
    <contour>
      <point x="29" y="247" type="line"/>
      <point x="63" y="306"/>
      <point x="99" y="331"/>
      <point x="153" y="331" type="curve" smooth="yes"/>
      <point x="186" y="331"/>
      <point x="212" y="323"/>
      <point x="287" y="289" type="curve" smooth="yes"/>
      <point x="333" y="269"/>
      <point x="351" y="263"/>
      <point x="368" y="263" type="curve" smooth="yes"/>
      <point x="391" y="263"/>
      <point x="411" y="276"/>
      <point x="436" y="308" type="curve"/>
      <point x="491" y="260" type="line"/>
      <point x="446" y="197"/>
      <point x="414" y="175"/>
      <point x="368" y="175" type="curve" smooth="yes"/>
      <point x="335" y="175"/>
      <point x="309" y="183"/>
      <point x="263" y="208" type="curve" smooth="yes"/>
      <point x="217" y="233"/>
      <point x="186" y="243"/>
      <point x="151" y="243" type="curve" smooth="yes"/>
      <point x="122" y="243"/>
      <point x="105" y="233"/>
      <point x="82" y="201" type="curve"/>
    </contour>
  </outline>
</glyph>
<glyph name="exclamdown" format="2">
  <advance width="333"/>
  <unicode hex="00A1"/>
  <outline>
    <contour>
      <point x="84" y="418.128" type="curve" smooth="yes"/>
      <point x="84" y="464"/>
      <point x="120" y="501"/>
      <point x="167" y="501" type="curve" smooth="yes"/>
      <point x="215" y="501"/>
      <point x="253" y="464"/>
      <point x="253" y="418" type="curve" smooth="yes"/>
      <point x="253" y="371"/>
      <point x="215" y="332"/>
      <point x="168" y="332" type="curve" smooth="yes"/>
      <point x="122" y="332"/>
      <point x="84" y="371"/>
    </contour>
    <contour>
      <point x="83" y="-100.055" type="curve" smooth="yes"/>
      <point x="83" y="-78"/>
      <point x="86.4677" y="-58.8335"/>
      <point x="103.461" y="-5.47332" type="curve" smooth="yes"/>
      <point x="131" y="81"/>
      <point x="140" y="131"/>
      <point x="153" y="254" type="curve"/>
      <point x="182" y="254" type="line"/>
      <point x="195" y="131"/>
      <point x="203" y="82"/>
      <point x="231.021" y="-4.03391" type="curve" smooth="yes"/>
      <point x="248.541" y="-57.8268"/>
      <point x="252" y="-78"/>
      <point x="252" y="-101" type="curve" smooth="yes"/>
      <point x="252" y="-166"/>
      <point x="221" y="-203"/>
      <point x="168" y="-203" type="curve" smooth="yes"/>
      <point x="114" y="-203"/>
      <point x="83" y="-166"/>
    </contour>
  </outline>
</glyph>
<glyph name="currency" format="2">
  <advance width="500"/>
  <unicode hex="00A4"/>
  <outline>
    <contour>
      <point x="-26" y="119" type="line"/>
      <point x="72" y="217" type="line"/>
      <point x="46" y="255"/>
      <point x="35" y="290"/>
      <point x="35" y="337" type="curve" smooth="yes"/>
      <point x="35" y="383"/>
      <point x="46" y="420"/>
      <point x="72" y="459" type="curve"/>
      <point x="-26" y="557" type="line"/>
      <point x="32" y="613" type="line"/>
      <point x="128" y="517" type="line"/>
      <point x="168" y="542"/>
      <point x="204" y="552"/>
      <point x="250" y="552" type="curve" smooth="yes"/>
      <point x="296" y="552"/>
      <point x="332" y="542"/>
      <point x="372" y="517" type="curve"/>
      <point x="468" y="613" type="line"/>
      <point x="526" y="557" type="line"/>
      <point x="428" y="459" type="line"/>
      <point x="455" y="416"/>
      <point x="465" y="383"/>
      <point x="465" y="337" type="curve" smooth="yes"/>
      <point x="465" y="290"/>
      <point x="454" y="253"/>
      <point x="428" y="217" type="curve"/>
      <point x="526" y="119" type="line"/>
      <point x="468" y="61" type="line"/>
      <point x="372" y="159" type="line"/>
      <point x="331" y="133"/>
      <point x="294" y="122"/>
      <point x="250" y="122" type="curve" smooth="yes"/>
      <point x="206" y="122"/>
      <point x="169" y="133"/>
      <point x="128" y="159" type="curve"/>
      <point x="32" y="61" type="line"/>
    </contour>
    <contour>
      <point x="123" y="337" type="curve" smooth="yes"/>
      <point x="123" y="263"/>
      <point x="179" y="204"/>
      <point x="250" y="204" type="curve" smooth="yes"/>
      <point x="319" y="204"/>
      <point x="377" y="264"/>
      <point x="377" y="335" type="curve" smooth="yes"/>
      <point x="377" y="410"/>
      <point x="321" y="470"/>
      <point x="250" y="470" type="curve" smooth="yes"/>
      <point x="179" y="470"/>
      <point x="123" y="412"/>
    </contour>
  </outline>
</glyph>
<glyph name="copyright" format="2">
  <advance width="747"/>
  <unicode hex="00A9"/>
  <outline>
    <contour>
      <point x="26" y="336.5" type="curve" smooth="yes"/>
      <point x="26" y="535"/>
      <point x="178" y="691"/>
      <point x="374" y="691" type="curve" smooth="yes"/>
      <point x="569" y="691"/>
      <point x="721" y="536"/>
      <point x="721" y="333.833" type="curve" smooth="yes"/>
      <point x="721" y="133"/>
      <point x="571" y="-19"/>
      <point x="376.09" y="-19" type="curve" smooth="yes"/>
      <point x="178" y="-19"/>
      <point x="26" y="138"/>
    </contour>
    <contour>
      <point x="97" y="336.5" type="curve" smooth="yes"/>
      <point x="97" y="169"/>
      <point x="220" y="33"/>
      <point x="374.859" y="33" type="curve" smooth="yes"/>
      <point x="528" y="33"/>
      <point x="650" y="166"/>
      <point x="650" y="334.655" type="curve" smooth="yes"/>
      <point x="650" y="504"/>
      <point x="527" y="639"/>
      <point x="374" y="639" type="curve" smooth="yes"/>
      <point x="220" y="639"/>
      <point x="97" y="504"/>
    </contour>
    <contour>
      <point x="176" y="340" type="curve" smooth="yes"/>
      <point x="176" y="464"/>
      <point x="264" y="544"/>
      <point x="404" y="544" type="curve" smooth="yes"/>
      <point x="455.55" y="544"/>
      <point x="505.025" y="525.41"/>
      <point x="527" y="504" type="curve"/>
      <point x="527" y="432" type="line"/>
      <point x="508" y="432" type="line"/>
      <point x="490" y="493"/>
      <point x="457" y="521"/>
      <point x="403" y="521" type="curve" smooth="yes"/>
      <point x="322" y="521"/>
      <point x="278" y="458"/>
      <point x="278" y="344" type="curve" smooth="yes"/>
      <point x="278" y="230"/>
      <point x="323" y="165"/>
      <point x="405.085" y="165" type="curve" smooth="yes"/>
      <point x="457" y="165"/>
      <point x="493" y="191"/>
      <point x="525" y="256" type="curve"/>
      <point x="544" y="256" type="line"/>
      <point x="528" y="182" type="line"/>
      <point x="509.901" y="160.066"/>
      <point x="451.028" y="142"/>
      <point x="390" y="142" type="curve" smooth="yes"/>
      <point x="259" y="142"/>
      <point x="176" y="218"/>
    </contour>
  </outline>
</glyph>
<glyph name="logicalnot" format="1">
  <advance width="570"/>
  <unicode hex="00AC"/>
  <outline>
    <contour>
      <point x="33" y="311" type="line"/>
      <point x="33" y="399" type="line"/>
      <point x="537" y="399" type="line"/>
      <point x="537" y="108" type="line"/>
      <point x="449" y="108" type="line"/>
      <point x="449" y="311" type="line"/>
    </contour>
  </outline>
</glyph>
<glyph name="registered" format="2">
  <advance width="747"/>
  <unicode hex="00AE"/>
  <outline>
    <contour>
      <point x="26" y="335" type="curve" smooth="yes"/>
      <point x="26" y="535"/>
      <point x="178" y="691"/>
      <point x="374" y="691" type="curve" smooth="yes"/>
      <point x="569" y="691"/>
      <point x="721" y="536"/>
      <point x="721" y="337" type="curve" smooth="yes"/>
      <point x="721" y="133"/>
      <point x="571" y="-19"/>
      <point x="369" y="-19" type="curve" smooth="yes"/>
      <point x="178" y="-19"/>
      <point x="26" y="138"/>
    </contour>
    <contour>
      <point x="97" y="335" type="curve" smooth="yes"/>
      <point x="97" y="169"/>
      <point x="220" y="33"/>
      <point x="370" y="33" type="curve" smooth="yes"/>
      <point x="528" y="33"/>
      <point x="650" y="166"/>
      <point x="650" y="336" type="curve" smooth="yes"/>
      <point x="650" y="504"/>
      <point x="527" y="639"/>
      <point x="374" y="639" type="curve" smooth="yes"/>
      <point x="220" y="639"/>
      <point x="97" y="504"/>
    </contour>
    <contour>
      <point x="207" y="153" type="line"/>
      <point x="207" y="171" type="line"/>
      <point x="252" y="174"/>
      <point x="253" y="175"/>
      <point x="253" y="215" type="curve" smooth="yes"/>
      <point x="253" y="470" type="line" smooth="yes"/>
      <point x="253" y="511"/>
      <point x="253" y="511"/>
      <point x="207" y="514" type="curve"/>
      <point x="207" y="532" type="line"/>
      <point x="400" y="532" type="line" smooth="yes"/>
      <point x="471" y="532"/>
      <point x="515" y="495"/>
      <point x="515" y="436" type="curve" smooth="yes"/>
      <point x="515" y="388"/>
      <point x="488" y="352"/>
      <point x="435" y="331" type="curve"/>
      <point x="493" y="249" type="line" smooth="yes"/>
      <point x="522" y="209"/>
      <point x="542" y="184"/>
      <point x="563" y="164" type="curve"/>
      <point x="563" y="153" type="line"/>
      <point x="482" y="153" type="line" smooth="yes"/>
      <point x="466" y="153"/>
      <point x="450" y="174"/>
      <point x="419" y="234" type="curve" smooth="yes"/>
      <point x="401" y="270"/>
      <point x="391" y="286"/>
      <point x="370" y="320" type="curve"/>
      <point x="333" y="320" type="line"/>
      <point x="333" y="215" type="line" smooth="yes"/>
      <point x="333" y="175"/>
      <point x="334" y="174"/>
      <point x="379" y="171" type="curve"/>
      <point x="379" y="153" type="line"/>
    </contour>
    <contour>
      <point x="333" y="342" type="line"/>
      <point x="368" y="342" type="line" smooth="yes"/>
      <point x="407" y="342"/>
      <point x="430" y="374"/>
      <point x="430" y="430" type="curve" smooth="yes"/>
      <point x="430" y="484"/>
      <point x="410" y="510"/>
      <point x="369" y="510" type="curve" smooth="yes"/>
      <point x="333" y="510" type="line"/>
    </contour>
  </outline>
</glyph>
<glyph name="degree" format="2">
  <advance width="400"/>
  <unicode hex="00B0"/>
  <outline>
    <contour>
      <point x="57" y="545" type="curve" smooth="yes"/>
      <point x="57" y="625"/>
      <point x="120" y="688"/>
      <point x="200" y="688" type="curve" smooth="yes"/>
      <point x="280" y="688"/>
      <point x="343" y="625"/>
      <point x="343" y="545" type="curve" smooth="yes"/>
      <point x="343" y="464"/>
      <point x="280" y="402"/>
      <point x="198" y="402" type="curve" smooth="yes"/>
      <point x="120" y="402"/>
      <point x="57" y="466"/>
    </contour>
    <contour>
      <point x="98" y="545" type="curve" smooth="yes"/>
      <point x="98" y="487"/>
      <point x="144" y="438"/>
      <point x="199" y="438" type="curve" smooth="yes"/>
      <point x="256" y="438"/>
      <point x="302" y="486"/>
      <point x="302" y="545" type="curve" smooth="yes"/>
      <point x="302" y="603"/>
      <point x="255" y="652"/>
      <point x="200" y="652" type="curve" smooth="yes"/>
      <point x="144" y="652"/>
      <point x="98" y="603"/>
    </contour>
  </outline>
</glyph>
<glyph name="plusminus" format="2">
  <advance width="570"/>
  <unicode hex="00B1"/>
  <outline>
    <contour>
      <point x="33" y="0" type="line"/>
      <point x="33" y="88" type="line"/>
      <point x="537" y="88" type="line"/>
      <point x="537" y="0" type="line"/>
    </contour>
    <contour>
      <point x="33" y="271" type="line"/>
      <point x="33" y="359" type="line"/>
      <point x="241" y="359" type="line"/>
      <point x="241" y="568" type="line"/>
      <point x="329" y="568" type="line"/>
      <point x="329" y="359" type="line"/>
      <point x="537" y="359" type="line"/>
      <point x="537" y="271" type="line"/>
      <point x="329" y="271" type="line"/>
      <point x="329" y="128" type="line"/>
      <point x="241" y="128" type="line"/>
      <point x="241" y="271" type="line"/>
    </contour>
  </outline>
</glyph>
<glyph name="acute" format="1">
  <advance width="378"/>
  <unicode hex="00B4"/>
  <outline>
    <contour>
      <point x="70" y="528" type="line"/>
      <point x="207" y="685" type="line" smooth="yes"/>
      <point x="224" y="704"/>
      <point x="241" y="713"/>
      <point x="260" y="713" type="curve" smooth="yes"/>
      <point x="289" y="713"/>
      <point x="308" y="695"/>
      <point x="308" y="669" type="curve" smooth="yes"/>
      <point x="308" y="646"/>
      <point x="300" y="636"/>
      <point x="268" y="616" type="curve" smooth="yes"/>
      <point x="126" y="528" type="line"/>
    </contour>
  </outline>
</glyph>
<glyph name="one.superior" format="1">
  <advance width="300"/>
  <unicode hex="00B9"/>
  <outline>
    <contour>
      <point x="28" y="602" type="curve"/>
      <point x="28" y="623" type="line"/>
      <point x="192" y="688" type="line"/>
      <point x="203" y="688" type="line"/>
      <point x="203" y="351" type="line" smooth="yes"/>
      <point x="203" y="305"/>
      <point x="214" y="296"/>
      <point x="273" y="295" type="curve"/>
      <point x="273" y="275" type="line"/>
      <point x="30" y="275" type="line"/>
      <point x="30" y="295" type="line"/>
      <point x="94" y="295"/>
      <point x="107" y="305"/>
      <point x="107" y="355" type="curve" smooth="yes"/>
      <point x="107" y="576" type="line" smooth="yes"/>
      <point x="107" y="604"/>
      <point x="100" y="617"/>
      <point x="84" y="617" type="curve" smooth="yes"/>
      <point x="75" y="617"/>
      <point x="59" y="613"/>
      <point x="41" y="607" type="curve" smooth="yes"/>
      <point x="39" y="606"/>
      <point x="34" y="604"/>
    </contour>
  </outline>
</glyph>
<glyph name="ordmasculine" format="1">
  <advance width="330"/>
  <unicode hex="00BA"/>
  <outline>
    <contour>
      <point x="18" y="542" type="curve" smooth="yes"/>
      <point x="18" y="626"/>
      <point x="81" y="688"/>
      <point x="165" y="688" type="curve" smooth="yes"/>
      <point x="249" y="688"/>
      <point x="312" y="626"/>
      <point x="312" y="543" type="curve" smooth="yes"/>
      <point x="312" y="457"/>
      <point x="250" y="397"/>
      <point x="163" y="397" type="curve" smooth="yes"/>
      <point x="80" y="397"/>
      <point x="18" y="459"/>
    </contour>
    <contour>
      <point x="115" y="538" type="curve" smooth="yes"/>
      <point x="115" y="449"/>
      <point x="128" y="417"/>
      <point x="164" y="417" type="curve" smooth="yes"/>
      <point x="201" y="417"/>
      <point x="214" y="447"/>
      <point x="214" y="536" type="curve" smooth="yes"/>
      <point x="214" y="636"/>
      <point x="202" y="667"/>
      <point x="165" y="667" type="curve" smooth="yes"/>
      <point x="127" y="667"/>
      <point x="115" y="635"/>
    </contour>
  </outline>
</glyph>
<glyph name="guillemotright" format="1">
  <advance width="500"/>
  <unicode hex="00BB"/>
  <outline>
    <contour>
      <point x="27" y="397" type="curve" smooth="yes"/>
      <point x="27" y="410"/>
      <point x="31" y="415"/>
      <point x="39" y="415" type="curve" smooth="yes"/>
      <point x="49" y="415"/>
      <point x="62" y="403"/>
      <point x="75" y="392" type="curve" smooth="yes"/>
      <point x="281" y="226" type="line"/>
      <point x="281" y="222" type="line"/>
      <point x="78" y="58" type="line" smooth="yes"/>
      <point x="62" y="45"/>
      <point x="53" y="36"/>
      <point x="42" y="36" type="curve" smooth="yes"/>
      <point x="29" y="36"/>
      <point x="29" y="42"/>
      <point x="29" y="50" type="curve" smooth="yes"/>
      <point x="29" y="79"/>
      <point x="115" y="186"/>
      <point x="145" y="224" type="curve"/>
      <point x="118" y="265"/>
      <point x="27" y="367"/>
    </contour>
    <contour>
      <point x="223" y="397" type="curve" smooth="yes"/>
      <point x="223" y="410"/>
      <point x="227" y="415"/>
      <point x="235" y="415" type="curve" smooth="yes"/>
      <point x="245" y="415"/>
      <point x="258" y="403"/>
      <point x="271" y="392" type="curve" smooth="yes"/>
      <point x="477" y="226" type="line"/>
      <point x="477" y="222" type="line"/>
      <point x="274" y="58" type="line" smooth="yes"/>
      <point x="258" y="45"/>
      <point x="249" y="36"/>
      <point x="238" y="36" type="curve" smooth="yes"/>
      <point x="225" y="36"/>
      <point x="225" y="42"/>
      <point x="225" y="50" type="curve" smooth="yes"/>
      <point x="225" y="79"/>
      <point x="311" y="186"/>
      <point x="341" y="224" type="curve"/>
      <point x="314" y="265"/>
      <point x="223" y="367"/>
    </contour>
  </outline>
</glyph>
<glyph name="onehalf" format="1">
  <advance width="750"/>
  <unicode hex="00BD"/>
  <outline>
    <contour>
      <point x="-7" y="602" type="curve"/>
      <point x="-7" y="623" type="line"/>
      <point x="157" y="688" type="line"/>
      <point x="168" y="688" type="line"/>
      <point x="168" y="351" type="line" smooth="yes"/>
      <point x="168" y="305"/>
      <point x="179" y="296"/>
      <point x="238" y="295" type="curve"/>
      <point x="238" y="275" type="line"/>
      <point x="-5" y="275" type="line"/>
      <point x="-5" y="295" type="line"/>
      <point x="59" y="295"/>
      <point x="72" y="305"/>
      <point x="72" y="355" type="curve" smooth="yes"/>
      <point x="72" y="576" type="line" smooth="yes"/>
      <point x="72" y="604"/>
      <point x="65" y="617"/>
      <point x="49" y="617" type="curve" smooth="yes"/>
      <point x="40" y="617"/>
      <point x="24" y="613"/>
      <point x="6" y="607" type="curve" smooth="yes"/>
      <point x="4" y="606"/>
      <point x="-1" y="604"/>
    </contour>
    <contour>
      <point x="132" y="-12" type="line"/>
      <point x="573" y="688" type="line"/>
      <point x="629" y="688" type="line"/>
      <point x="190" y="-12" type="line"/>
    </contour>
    <contour>
      <point x="475" y="0" type="line"/>
      <point x="475" y="14" type="line"/>
      <point x="624" y="163"/>
      <point x="659" y="211"/>
      <point x="659" y="269" type="curve" smooth="yes"/>
      <point x="659" y="311"/>
      <point x="626" y="345"/>
      <point x="584" y="345" type="curve" smooth="yes"/>
      <point x="550" y="345"/>
      <point x="529" y="330"/>
      <point x="508" y="291" type="curve"/>
      <point x="484" y="291" type="line"/>
      <point x="518" y="375"/>
      <point x="563" y="413"/>
      <point x="627" y="413" type="curve" smooth="yes"/>
      <point x="697" y="413"/>
      <point x="747" y="367"/>
      <point x="747" y="302" type="curve" smooth="yes"/>
      <point x="747" y="258"/>
      <point x="726" y="222"/>
      <point x="673" y="172" type="curve" smooth="yes"/>
      <point x="574" y="80" type="line"/>
      <point x="666" y="80" type="line" smooth="yes"/>
      <point x="732" y="80"/>
      <point x="740" y="84"/>
      <point x="759" y="127" type="curve"/>
      <point x="775" y="127" type="line"/>
      <point x="745" y="0" type="line"/>
    </contour>
  </outline>
</glyph>
<glyph name="threequarters" format="1">
  <advance width="750"/>
  <unicode hex="00BE"/>
  <outline>
    <contour>
      <point x="23" y="322" type="curve" smooth="yes"/>
      <point x="23" y="346"/>
      <point x="49" y="362"/>
      <point x="66" y="362" type="curve" smooth="yes"/>
      <point x="119" y="362"/>
      <point x="135" y="304"/>
      <point x="179" y="304" type="curve" smooth="yes"/>
      <point x="217" y="304"/>
      <point x="242" y="330"/>
      <point x="242" y="369" type="curve" smooth="yes"/>
      <point x="242" y="427"/>
      <point x="208" y="459"/>
      <point x="112" y="490" type="curve"/>
      <point x="112" y="500" type="line"/>
      <point x="173" y="518"/>
      <point x="196" y="539"/>
      <point x="196" y="579" type="curve" smooth="yes"/>
      <point x="196" y="616"/>
      <point x="170" y="640"/>
      <point x="131" y="640" type="curve" smooth="yes"/>
      <point x="100" y="640"/>
      <point x="81" y="627"/>
      <point x="56" y="590" type="curve"/>
      <point x="36" y="597" type="line"/>
      <point x="72" y="658"/>
      <point x="120" y="688"/>
      <point x="185" y="688" type="curve" smooth="yes"/>
      <point x="252" y="688"/>
      <point x="291" y="658"/>
      <point x="291" y="607" type="curve" smooth="yes"/>
      <point x="291" y="571"/>
      <point x="278" y="553"/>
      <point x="237" y="531" type="curve"/>
      <point x="291" y="509"/>
      <point x="317" y="474"/>
      <point x="317" y="424" type="curve" smooth="yes"/>
      <point x="317" y="337"/>
      <point x="231" y="268"/>
      <point x="123" y="268" type="curve" smooth="yes"/>
      <point x="62" y="268"/>
      <point x="23" y="289"/>
    </contour>
    <contour>
      <point x="172" y="-12" type="line"/>
      <point x="613" y="688" type="line"/>
      <point x="669" y="688" type="line"/>
      <point x="230" y="-12" type="line"/>
    </contour>
    <contour>
      <point x="437" y="87" type="line"/>
      <point x="437" y="154" type="line"/>
      <point x="479" y="217"/>
      <point x="512" y="259"/>
      <point x="601" y="367" type="curve" smooth="yes"/>
      <point x="640" y="413" type="line"/>
      <point x="692" y="413" type="line"/>
      <point x="692" y="153" type="line"/>
      <point x="733" y="153" type="line"/>
      <point x="733" y="87" type="line"/>
      <point x="692" y="87" type="line"/>
      <point x="692" y="0" type="line"/>
      <point x="598" y="0" type="line"/>
      <point x="598" y="87" type="line"/>
    </contour>
    <contour>
      <point x="462" y="153" type="line"/>
      <point x="599" y="153" type="line"/>
      <point x="599" y="328" type="line"/>
    </contour>
  </outline>
</glyph>
<glyph name="AE" format="2">
  <advance width="1000"/>
  <unicode hex="00C6"/>
  <outline>
    <contour>
      <point x="4" y="0" type="line"/>
      <point x="4" y="25" type="line"/>
      <point x="43" y="31"/>
      <point x="51.8901" y="39.5083"/>
      <point x="114" y="153" type="curve" smooth="yes"/>
      <point x="334" y="555" type="line" smooth="yes"/>
      <point x="351.866" y="587.647"/>
      <point x="362" y="607"/>
      <point x="362" y="617" type="curve" smooth="yes"/>
      <point x="362" y="641"/>
      <point x="341" y="650"/>
      <point x="275" y="654" type="curve"/>
      <point x="275" y="676" type="line"/>
      <point x="909" y="676" type="line"/>
      <point x="909" y="475" type="line"/>
      <point x="884" y="475" type="line"/>
      <point x="855.972" y="612.984"/>
      <point x="816.639" y="640.993"/>
      <point x="671.692" y="640.999" type="curve" smooth="yes"/>
      <point x="640" y="641" type="line" smooth="yes"/>
      <point x="609" y="641.001"/>
      <point x="592" y="635"/>
      <point x="592" y="611" type="curve" smooth="yes"/>
      <point x="592" y="362.676" type="line"/>
      <point x="602" y="363" type="line" smooth="yes"/>
      <point x="710.374" y="366.516"/>
      <point x="719" y="383"/>
      <point x="747" y="512" type="curve"/>
      <point x="770" y="512" type="line"/>
      <point x="770" y="174" type="line"/>
      <point x="747" y="174" type="line"/>
      <point x="729" y="298"/>
      <point x="710.209" y="328.361"/>
      <point x="602" y="329" type="curve"/>
      <point x="592" y="329.059" type="line"/>
      <point x="592" y="88" type="line" smooth="yes"/>
      <point x="592" y="45"/>
      <point x="600" y="33.9931"/>
      <point x="640" y="34" type="curve" smooth="yes"/>
      <point x="680.155" y="34.0069" type="line" smooth="yes"/>
      <point x="793.883" y="34.0264"/>
      <point x="896.539" y="93.0211"/>
      <point x="928" y="211" type="curve"/>
      <point x="951" y="211" type="line"/>
      <point x="910" y="0" type="line"/>
      <point x="344" y="0" type="line"/>
      <point x="344" y="25" type="line"/>
      <point x="417" y="29"/>
      <point x="432" y="45"/>
      <point x="432" y="119" type="curve" smooth="yes"/>
      <point x="432" y="303" type="line"/>
      <point x="242" y="303" type="line"/>
      <point x="142" y="115" type="line" smooth="yes"/>
      <point x="131" y="95"/>
      <point x="127" y="82"/>
      <point x="127" y="70" type="curve" smooth="yes"/>
      <point x="127" y="36.6194"/>
      <point x="182.87" y="25.8752"/>
      <point x="210" y="25" type="curve"/>
      <point x="210" y="0" type="line"/>
    </contour>
    <contour>
      <point x="264" y="343" type="line"/>
      <point x="432" y="343" type="line"/>
      <point x="432" y="633" type="line"/>
      <point x="425" y="633" type="line"/>
    </contour>
  </outline>
</glyph>
<glyph name="Ccedilla" format="1">
  <advance width="722"/>
  <unicode hex="00C7"/>
  <outline>
    <contour>
      <point x="49" y="332" type="curve" smooth="yes"/>
      <point x="49" y="537"/>
      <point x="198" y="691"/>
      <point x="397" y="691" type="curve" smooth="yes"/>
      <point x="445" y="691"/>
      <point x="493" y="680"/>
      <point x="552" y="656" type="curve" smooth="yes"/>
      <point x="574" y="646"/>
      <point x="589" y="642"/>
      <point x="598" y="642" type="curve" smooth="yes"/>
      <point x="617" y="642"/>
      <point x="628" y="653"/>
      <point x="642" y="688" type="curve"/>
      <point x="669" y="688" type="line"/>
      <point x="669" y="454" type="line"/>
      <point x="644" y="454" type="line"/>
      <point x="609" y="530"/>
      <point x="586" y="563"/>
      <point x="543" y="602" type="curve" smooth="yes"/>
      <point x="500" y="640"/>
      <point x="457" y="658"/>
      <point x="410" y="658" type="curve" smooth="yes"/>
      <point x="290" y="658"/>
      <point x="226" y="548"/>
      <point x="226" y="341" type="curve" smooth="yes"/>
      <point x="226" y="241"/>
      <point x="240" y="169"/>
      <point x="269" y="116" type="curve" smooth="yes"/>
      <point x="298" y="64"/>
      <point x="361" y="29"/>
      <point x="427" y="29" type="curve" smooth="yes"/>
      <point x="455" y="29"/>
      <point x="488" y="35"/>
      <point x="517" y="47" type="curve" smooth="yes"/>
      <point x="566" y="66"/>
      <point x="598" y="90"/>
      <point x="657" y="152" type="curve"/>
      <point x="687" y="127" type="line"/>
      <point x="593" y="20"/>
      <point x="518" y="-18"/>
      <point x="401" y="-19" type="curve"/>
      <point x="381" y="-64" type="line"/>
      <point x="393" y="-60"/>
      <point x="401" y="-59"/>
      <point x="414" y="-59" type="curve" smooth="yes"/>
      <point x="469" y="-59"/>
      <point x="502" y="-85"/>
      <point x="502" y="-129" type="curve" smooth="yes"/>
      <point x="502" y="-184"/>
      <point x="452" y="-218"/>
      <point x="372" y="-218" type="curve" smooth="yes"/>
      <point x="339" y="-218"/>
      <point x="312" y="-213"/>
      <point x="276" y="-200" type="curve"/>
      <point x="292" y="-163" type="line"/>
      <point x="298" y="-165" type="line" smooth="yes"/>
      <point x="323" y="-174"/>
      <point x="335" y="-177"/>
      <point x="351" y="-177" type="curve" smooth="yes"/>
      <point x="388" y="-177"/>
      <point x="409" y="-162"/>
      <point x="409" y="-136" type="curve" smooth="yes"/>
      <point x="409" y="-114"/>
      <point x="392" y="-100"/>
      <point x="363" y="-100" type="curve" smooth="yes"/>
      <point x="354" y="-100"/>
      <point x="346" y="-101"/>
      <point x="335" y="-104" type="curve"/>
      <point x="324" y="-96" type="line"/>
      <point x="359" y="-17" type="line"/>
      <point x="356" y="-16" type="line"/>
      <point x="174" y="2"/>
      <point x="49" y="144"/>
    </contour>
  </outline>
</glyph>
<glyph name="Icircumflex" format="1">
  <advance width="386"/>
  <unicode hex="00CE"/>
  <outline>
    <contour>
      <point x="16" y="0" type="line"/>
      <point x="16" y="25" type="line"/>
      <point x="91" y="32"/>
      <point x="109" y="46"/>
      <point x="109" y="96" type="curve" smooth="yes"/>
      <point x="109" y="580" type="line" smooth="yes"/>
      <point x="109" y="631"/>
      <point x="88" y="646"/>
      <point x="16" y="651" type="curve"/>
      <point x="16" y="676" type="line"/>
      <point x="366" y="676" type="line"/>
      <point x="366" y="651" type="line"/>
      <point x="292" y="648"/>
      <point x="271" y="632"/>
      <point x="271" y="580" type="curve" smooth="yes"/>
      <point x="271" y="96" type="line" smooth="yes"/>
      <point x="271" y="44"/>
      <point x="290" y="30"/>
      <point x="366" y="25" type="curve"/>
      <point x="366" y="0" type="line"/>
    </contour>
    <contour>
      <point x="22" y="738" type="line"/>
      <point x="144" y="914" type="line"/>
      <point x="236" y="914" type="line"/>
      <point x="359" y="738" type="line"/>
      <point x="302" y="738" type="line"/>
      <point x="190" y="836" type="line"/>
      <point x="78" y="738" type="line"/>
    </contour>
  </outline>
</glyph>
<glyph name="Idieresis" format="1">
  <advance width="386"/>
  <unicode hex="00CF"/>
  <outline>
    <contour>
      <point x="16" y="0" type="line"/>
      <point x="16" y="25" type="line"/>
      <point x="91" y="32"/>
      <point x="109" y="46"/>
      <point x="109" y="96" type="curve" smooth="yes"/>
      <point x="109" y="580" type="line" smooth="yes"/>
      <point x="109" y="631"/>
      <point x="88" y="646"/>
      <point x="16" y="651" type="curve"/>
      <point x="16" y="676" type="line"/>
      <point x="366" y="676" type="line"/>
      <point x="366" y="651" type="line"/>
      <point x="292" y="648"/>
      <point x="271" y="632"/>
      <point x="271" y="580" type="curve" smooth="yes"/>
      <point x="271" y="96" type="line" smooth="yes"/>
      <point x="271" y="44"/>
      <point x="290" y="30"/>
      <point x="366" y="25" type="curve"/>
      <point x="366" y="0" type="line"/>
    </contour>
    <contour>
      <point x="22" y="812" type="curve" smooth="yes"/>
      <point x="22" y="846"/>
      <point x="52" y="876"/>
      <point x="86" y="876" type="curve" smooth="yes"/>
      <point x="121" y="876"/>
      <point x="151" y="846"/>
      <point x="151" y="810" type="curve" smooth="yes"/>
      <point x="151" y="775"/>
      <point x="122" y="747"/>
      <point x="86" y="747" type="curve" smooth="yes"/>
      <point x="51" y="747"/>
      <point x="22" y="777"/>
    </contour>
    <contour>
      <point x="232" y="813" type="curve" smooth="yes"/>
      <point x="232" y="846"/>
      <point x="262" y="876"/>
      <point x="295" y="876" type="curve" smooth="yes"/>
      <point x="331" y="876"/>
      <point x="361" y="846"/>
      <point x="361" y="810" type="curve" smooth="yes"/>
      <point x="361" y="775"/>
      <point x="332" y="747"/>
      <point x="295" y="747" type="curve" smooth="yes"/>
      <point x="260" y="747"/>
      <point x="232" y="776"/>
    </contour>
  </outline>
</glyph>
<glyph name="Eth" format="2">
  <advance width="722"/>
  <unicode hex="00D0"/>
  <outline>
    <component base="D" xOffset="-2"/>
    <contour>
      <point x="6" y="326" type="line"/>
      <point x="6" y="373" type="line"/>
      <point x="373" y="373" type="line"/>
      <point x="373" y="326" type="line"/>
    </contour>
  </outline>
</glyph>
<glyph name="Ntilde" format="1">
  <advance width="722"/>
  <unicode hex="00D1"/>
  <outline>
    <contour>
      <point x="16" y="0" type="line"/>
      <point x="16" y="25" type="line"/>
      <point x="89" y="34"/>
      <point x="104" y="48"/>
      <point x="104" y="105" type="curve" smooth="yes"/>
      <point x="104" y="579" type="line"/>
      <point x="56" y="636"/>
      <point x="39" y="651"/>
      <point x="19" y="651" type="curve"/>
      <point x="19" y="676" type="line"/>
      <point x="230" y="676" type="line"/>
      <point x="579" y="247" type="line"/>
      <point x="579" y="552" type="line" smooth="yes"/>
      <point x="579" y="623"/>
      <point x="560" y="644"/>
      <point x="486" y="651" type="curve"/>
      <point x="486" y="676" type="line"/>
      <point x="701" y="676" type="line"/>
      <point x="701" y="651" type="line"/>
      <point x="636" y="641"/>
      <point x="623" y="628"/>
      <point x="623" y="571" type="curve" smooth="yes"/>
      <point x="623" y="-18" type="line"/>
      <point x="595" y="-18" type="line"/>
      <point x="148" y="526" type="line"/>
      <point x="148" y="124" type="line" smooth="yes"/>
      <point x="148" y="53"/>
      <point x="166" y="34"/>
      <point x="243" y="25" type="curve"/>
      <point x="243" y="0" type="line"/>
    </contour>
    <contour>
      <point x="172" y="759" type="line"/>
      <point x="190" y="845"/>
      <point x="226" y="884"/>
      <point x="288" y="884" type="curve" smooth="yes"/>
      <point x="309" y="884"/>
      <point x="333" y="878"/>
      <point x="361" y="865" type="curve" smooth="yes"/>
      <point x="401" y="847" type="line" smooth="yes"/>
      <point x="425" y="836"/>
      <point x="429" y="835"/>
      <point x="440" y="835" type="curve" smooth="yes"/>
      <point x="467" y="835"/>
      <point x="481" y="848"/>
      <point x="494" y="884" type="curve"/>
      <point x="537" y="884" type="line"/>
      <point x="514" y="797"/>
      <point x="477" y="757"/>
      <point x="420" y="757" type="curve" smooth="yes"/>
      <point x="400" y="757"/>
      <point x="375" y="763"/>
      <point x="356" y="771" type="curve" smooth="yes"/>
      <point x="327" y="784" type="line" smooth="yes"/>
      <point x="284" y="803"/>
      <point x="276" y="806"/>
      <point x="263" y="806" type="curve" smooth="yes"/>
      <point x="237" y="806"/>
      <point x="218" y="787"/>
      <point x="214" y="759" type="curve"/>
    </contour>
  </outline>
</glyph>
<glyph name="multiply" format="2">
  <advance width="570"/>
  <unicode hex="00D7"/>
  <outline>
    <contour>
      <point x="48" y="78" type="line"/>
      <point x="223" y="253" type="line"/>
      <point x="48" y="428" type="line"/>
      <point x="110" y="490" type="line"/>
      <point x="285" y="314" type="line"/>
      <point x="460" y="490" type="line"/>
      <point x="522" y="428" type="line"/>
      <point x="346" y="253" type="line"/>
      <point x="522" y="78" type="line"/>
      <point x="460" y="16" type="line"/>
      <point x="285" y="192" type="line"/>
      <point x="110" y="16" type="line"/>
    </contour>
  </outline>
</glyph>
<glyph name="Oslash" format="2">
  <advance width="778"/>
  <unicode hex="00D8"/>
  <outline>
    <component base="O"/>
    <contour>
      <point x="559.129" y="625" type="line"/>
      <point x="635" y="737" type="line"/>
      <point x="685" y="737" type="line"/>
      <point x="594.129" y="603" type="line"/>
    </contour>
    <contour>
      <point x="213.416" y="120.877" type="line"/>
      <point x="535.74" y="592.571" type="line"/>
      <point x="555.74" y="547.571" type="line"/>
      <point x="232.416" y="73.8773" type="line"/>
    </contour>
    <contour>
      <point x="81" y="-74" type="line"/>
      <point x="179.765" y="70.5334" type="line"/>
      <point x="214.765" y="48.5334" type="line"/>
      <point x="131" y="-74" type="line"/>
    </contour>
  </outline>
</glyph>
<glyph name="germandbls" format="2">
  <advance width="556"/>
  <unicode hex="00DF"/>
  <outline>
    <contour>
      <point x="19" y="0" type="line"/>
      <point x="19" y="24" type="line"/>
      <point x="62" y="31"/>
      <point x="70" y="41"/>
      <point x="70" y="87" type="curve" smooth="yes"/>
      <point x="70" y="507" type="line" smooth="yes"/>
      <point x="70" y="614"/>
      <point x="156" y="691"/>
      <point x="278.026" y="691" type="curve" smooth="yes"/>
      <point x="391" y="691"/>
      <point x="476" y="625"/>
      <point x="476" y="537" type="curve" smooth="yes"/>
      <point x="476" y="465.73"/>
      <point x="421.239" y="415.729"/>
      <point x="318.292" y="393" type="curve"/>
      <point x="442.82" y="374.074"/>
      <point x="517" y="302.115"/>
      <point x="517" y="194.508" type="curve" smooth="yes"/>
      <point x="517" y="80"/>
      <point x="433" y="-12"/>
      <point x="329.936" y="-12" type="curve" smooth="yes"/>
      <point x="308.446" y="-12"/>
      <point x="292.692" y="-8"/>
      <point x="263.154" y="3" type="curve"/>
      <point x="276.938" y="37" type="line"/>
      <point x="287.731" y="26.7383"/>
      <point x="296.169" y="23"/>
      <point x="310.207" y="23" type="curve" smooth="yes"/>
      <point x="356.125" y="23"/>
      <point x="371" y="63"/>
      <point x="371" y="195" type="curve" smooth="yes"/>
      <point x="371" y="289.287"/>
      <point x="333.944" y="350.546"/>
      <point x="268.077" y="373" type="curve"/>
      <point x="268.077" y="407" type="line"/>
      <point x="323.051" y="415.3"/>
      <point x="337" y="440.192"/>
      <point x="337" y="523.081" type="curve" smooth="yes"/>
      <point x="337" y="624"/>
      <point x="316.323" y="663"/>
      <point x="269.028" y="663" type="curve" smooth="yes"/>
      <point x="229.677" y="663"/>
      <point x="209" y="636"/>
      <point x="209" y="586" type="curve" smooth="yes"/>
      <point x="209" y="0" type="line"/>
    </contour>
  </outline>
</glyph>
<glyph name="ae" format="2">
  <advance width="722"/>
  <unicode hex="00E6"/>
  <outline>
    <contour>
      <point x="33" y="87.1652" type="curve" smooth="yes"/>
      <point x="33" y="201.499"/>
      <point x="167.332" y="241.4"/>
      <point x="260.391" y="269.098" type="curve" smooth="yes"/>
      <point x="296" y="280" type="line"/>
      <point x="296" y="294.129"/>
      <point x="296" y="342.195"/>
      <point x="296" y="360" type="curve" smooth="yes"/>
      <point x="296" y="418"/>
      <point x="274" y="441"/>
      <point x="221.997" y="441" type="curve" smooth="yes"/>
      <point x="180" y="441"/>
      <point x="153" y="426"/>
      <point x="153" y="406" type="curve" smooth="yes"/>
      <point x="153" y="399"/>
      <point x="156" y="394"/>
      <point x="164.229" y="384.648" type="curve" smooth="yes"/>
      <point x="178" y="369"/>
      <point x="182" y="360"/>
      <point x="182" y="343.814" type="curve" smooth="yes"/>
      <point x="182" y="305"/>
      <point x="159" y="284"/>
      <point x="119" y="284" type="curve" smooth="yes"/>
      <point x="77" y="284"/>
      <point x="50" y="309"/>
      <point x="50" y="350.283" type="curve" smooth="yes"/>
      <point x="50" y="420"/>
      <point x="127" y="473"/>
      <point x="238.705" y="473" type="curve" smooth="yes"/>
      <point x="298" y="473"/>
      <point x="336" y="458.067"/>
      <point x="374" y="422" type="curve"/>
      <point x="411" y="457"/>
      <point x="449" y="473"/>
      <point x="503.134" y="473" type="curve" smooth="yes"/>
      <point x="641.814" y="473"/>
      <point x="688" y="367.996"/>
      <point x="688" y="248" type="curve"/>
      <point x="434" y="248" type="line"/>
      <point x="434" y="243.888"/>
      <point x="434" y="230.411"/>
      <point x="434" y="225" type="curve" smooth="yes"/>
      <point x="434" y="110"/>
      <point x="468" y="61"/>
      <point x="549" y="61" type="curve" smooth="yes"/>
      <point x="598" y="61"/>
      <point x="633" y="80"/>
      <point x="672" y="128" type="curve"/>
      <point x="693" y="113" type="line"/>
      <point x="634" y="23"/>
      <point x="579" y="-9"/>
      <point x="488.794" y="-9" type="curve" smooth="yes"/>
      <point x="414" y="-9"/>
      <point x="375" y="13"/>
      <point x="337" y="75" type="curve"/>
      <point x="281" y="19"/>
      <point x="216" y="-14"/>
      <point x="147.503" y="-14" type="curve" smooth="yes"/>
      <point x="74" y="-14"/>
      <point x="33" y="24"/>
    </contour>
    <contour>
      <point x="177" y="122.553" type="curve" smooth="yes"/>
      <point x="177" y="74"/>
      <point x="197" y="49"/>
      <point x="226.458" y="49" type="curve" smooth="yes"/>
      <point x="257" y="49"/>
      <point x="291" y="75.8723"/>
      <point x="315" y="100.872" type="curve"/>
      <point x="299.49" y="156.854"/>
      <point x="296" y="182.87"/>
      <point x="296" y="248" type="curve"/>
      <point x="208" y="216"/>
      <point x="177" y="183"/>
    </contour>
    <contour>
      <point x="434" y="285" type="curve"/>
      <point x="567" y="285" type="line"/>
      <point x="567" y="318" type="line" smooth="yes"/>
      <point x="567" y="411"/>
      <point x="551" y="441"/>
      <point x="504" y="441" type="curve" smooth="yes"/>
      <point x="452" y="441"/>
      <point x="434" y="403"/>
    </contour>
  </outline>
</glyph>
<glyph name="ccedilla" format="1">
  <advance width="444"/>
  <unicode hex="00E7"/>
  <outline>
    <contour>
      <point x="24" y="221" type="curve" smooth="yes"/>
      <point x="24" y="366"/>
      <point x="124" y="472"/>
      <point x="260" y="472" type="curve" smooth="yes"/>
      <point x="348" y="472"/>
      <point x="415" y="424"/>
      <point x="415" y="362" type="curve" smooth="yes"/>
      <point x="415" y="329"/>
      <point x="399" y="300"/>
      <point x="357" y="300" type="curve" smooth="yes"/>
      <point x="320" y="300"/>
      <point x="291" y="328"/>
      <point x="291" y="372" type="curve" smooth="yes"/>
      <point x="291" y="414"/>
      <point x="289" y="416"/>
      <point x="284" y="425" type="curve" smooth="yes"/>
      <point x="278" y="436"/>
      <point x="266" y="442"/>
      <point x="250" y="442" type="curve"/>
      <point x="249" y="441" type="line"/>
      <point x="197" y="441"/>
      <point x="165" y="378"/>
      <point x="165" y="275" type="curve" smooth="yes"/>
      <point x="165" y="139"/>
      <point x="220" y="52"/>
      <point x="307" y="52" type="curve" smooth="yes"/>
      <point x="348" y="52"/>
      <point x="374" y="66"/>
      <point x="411" y="108" type="curve"/>
      <point x="429" y="90" type="line"/>
      <point x="382" y="27"/>
      <point x="333" y="-4"/>
      <point x="264" y="-14" type="curve"/>
      <point x="241" y="-65" type="line"/>
      <point x="253" y="-61"/>
      <point x="261" y="-60"/>
      <point x="274" y="-60" type="curve" smooth="yes"/>
      <point x="329" y="-60"/>
      <point x="362" y="-86"/>
      <point x="362" y="-130" type="curve" smooth="yes"/>
      <point x="362" y="-185"/>
      <point x="312" y="-219"/>
      <point x="232" y="-219" type="curve" smooth="yes"/>
      <point x="199" y="-219"/>
      <point x="172" y="-214"/>
      <point x="136" y="-201" type="curve"/>
      <point x="152" y="-164" type="line"/>
      <point x="158" y="-166" type="line" smooth="yes"/>
      <point x="183" y="-175"/>
      <point x="195" y="-178"/>
      <point x="211" y="-178" type="curve" smooth="yes"/>
      <point x="248" y="-178"/>
      <point x="269" y="-163"/>
      <point x="269" y="-137" type="curve" smooth="yes"/>
      <point x="269" y="-115"/>
      <point x="252" y="-101"/>
      <point x="223" y="-101" type="curve" smooth="yes"/>
      <point x="214" y="-101"/>
      <point x="206" y="-102"/>
      <point x="195" y="-105" type="curve"/>
      <point x="184" y="-97" type="line"/>
      <point x="221" y="-14" type="line"/>
      <point x="102" y="-3"/>
      <point x="24" y="90"/>
    </contour>
  </outline>
</glyph>
<glyph name="ntilde" format="1">
  <advance width="556"/>
  <unicode hex="00F1"/>
  <outline>
    <contour>
      <point x="21" y="0" type="line"/>
      <point x="21" y="24" type="line"/>
      <point x="66" y="33"/>
      <point x="74" y="42"/>
      <point x="74" y="84" type="curve" smooth="yes"/>
      <point x="74" y="378" type="line" smooth="yes"/>
      <point x="74" y="420"/>
      <point x="65" y="430"/>
      <point x="21" y="437" type="curve"/>
      <point x="21" y="461" type="line"/>
      <point x="212" y="461" type="line"/>
      <point x="212" y="386" type="line"/>
      <point x="249" y="445"/>
      <point x="295" y="473"/>
      <point x="355" y="473" type="curve" smooth="yes"/>
      <point x="437" y="473"/>
      <point x="490" y="418"/>
      <point x="490" y="332" type="curve" smooth="yes"/>
      <point x="490" y="81" type="line" smooth="yes"/>
      <point x="490" y="39"/>
      <point x="500" y="27"/>
      <point x="539" y="24" type="curve"/>
      <point x="539" y="0" type="line"/>
      <point x="304" y="0" type="line"/>
      <point x="304" y="24" type="line"/>
      <point x="338" y="28"/>
      <point x="351" y="44"/>
      <point x="351" y="81" type="curve" smooth="yes"/>
      <point x="351" y="323" type="line" smooth="yes"/>
      <point x="351" y="379"/>
      <point x="334" y="406"/>
      <point x="299" y="406" type="curve" smooth="yes"/>
      <point x="276" y="406"/>
      <point x="252" y="394"/>
      <point x="230" y="371" type="curve" smooth="yes"/>
      <point x="220" y="362"/>
      <point x="213" y="352"/>
      <point x="213" y="348" type="curve" smooth="yes"/>
      <point x="213" y="81" type="line" smooth="yes"/>
      <point x="213" y="44"/>
      <point x="225" y="29"/>
      <point x="262" y="24" type="curve"/>
      <point x="262" y="0" type="line"/>
    </contour>
    <contour>
      <point x="95" y="549" type="line"/>
      <point x="113" y="635"/>
      <point x="149" y="674"/>
      <point x="211" y="674" type="curve" smooth="yes"/>
      <point x="232" y="674"/>
      <point x="256" y="668"/>
      <point x="284" y="655" type="curve" smooth="yes"/>
      <point x="324" y="637" type="line" smooth="yes"/>
      <point x="348" y="626"/>
      <point x="352" y="625"/>
      <point x="363" y="625" type="curve" smooth="yes"/>
      <point x="390" y="625"/>
      <point x="404" y="638"/>
      <point x="417" y="674" type="curve"/>
      <point x="460" y="674" type="line"/>
      <point x="437" y="587"/>
      <point x="400" y="547"/>
      <point x="343" y="547" type="curve" smooth="yes"/>
      <point x="323" y="547"/>
      <point x="298" y="553"/>
      <point x="279" y="561" type="curve" smooth="yes"/>
      <point x="250" y="574" type="line" smooth="yes"/>
      <point x="207" y="593"/>
      <point x="199" y="596"/>
      <point x="186" y="596" type="curve" smooth="yes"/>
      <point x="160" y="596"/>
      <point x="141" y="577"/>
      <point x="137" y="549" type="curve"/>
    </contour>
  </outline>
</glyph>
<glyph name="odieresis" format="1">
  <advance width="500"/>
  <unicode hex="00F6"/>
  <outline>
    <contour>
      <point x="25" y="232" type="curve" smooth="yes"/>
      <point x="25" y="368"/>
      <point x="124" y="473"/>
      <point x="251" y="473" type="curve" smooth="yes"/>
      <point x="380" y="473"/>
      <point x="476" y="369"/>
      <point x="476" y="229" type="curve" smooth="yes"/>
      <point x="476" y="90"/>
      <point x="380" y="-14"/>
      <point x="251" y="-14" type="curve" smooth="yes"/>
      <point x="120" y="-14"/>
      <point x="25" y="89"/>
    </contour>
    <contour>
      <point x="82" y="602" type="curve" smooth="yes"/>
      <point x="82" y="636"/>
      <point x="112" y="666"/>
      <point x="146" y="666" type="curve" smooth="yes"/>
      <point x="181" y="666"/>
      <point x="211" y="636"/>
      <point x="211" y="600" type="curve" smooth="yes"/>
      <point x="211" y="565"/>
      <point x="182" y="537"/>
      <point x="146" y="537" type="curve" smooth="yes"/>
      <point x="111" y="537"/>
      <point x="82" y="567"/>
    </contour>
    <contour>
      <point x="172" y="214" type="curve" smooth="yes"/>
      <point x="172" y="68"/>
      <point x="192" y="17"/>
      <point x="251" y="17" type="curve" smooth="yes"/>
      <point x="309" y="17"/>
      <point x="329" y="69"/>
      <point x="329" y="223" type="curve" smooth="yes"/>
      <point x="329" y="387"/>
      <point x="310" y="442"/>
      <point x="252" y="442" type="curve" smooth="yes"/>
      <point x="190" y="442"/>
      <point x="172" y="390"/>
    </contour>
    <contour>
      <point x="292" y="603" type="curve" smooth="yes"/>
      <point x="292" y="636"/>
      <point x="322" y="666"/>
      <point x="355" y="666" type="curve" smooth="yes"/>
      <point x="391" y="666"/>
      <point x="421" y="636"/>
      <point x="421" y="600" type="curve" smooth="yes"/>
      <point x="421" y="565"/>
      <point x="392" y="537"/>
      <point x="355" y="537" type="curve" smooth="yes"/>
      <point x="320" y="537"/>
      <point x="292" y="566"/>
    </contour>
  </outline>
</glyph>
<glyph name="divide" format="1">
  <advance width="570"/>
  <unicode hex="00F7"/>
  <outline>
    <contour>
      <point x="33" y="209" type="line"/>
      <point x="33" y="297" type="line"/>
      <point x="537" y="297" type="line"/>
      <point x="537" y="209" type="line"/>
    </contour>
    <contour>
      <point x="209" y="47" type="curve" smooth="yes"/>
      <point x="209" y="87"/>
      <point x="244" y="122"/>
      <point x="285" y="122" type="curve" smooth="yes"/>
      <point x="326" y="122"/>
      <point x="362" y="87"/>
      <point x="362" y="47" type="curve" smooth="yes"/>
      <point x="362" y="7"/>
      <point x="325" y="-31"/>
      <point x="286" y="-31" type="curve" smooth="yes"/>
      <point x="244" y="-31"/>
      <point x="209" y="5"/>
    </contour>
    <contour>
      <point x="209" y="461" type="curve" smooth="yes"/>
      <point x="209" y="501"/>
      <point x="245" y="537"/>
      <point x="285" y="537" type="curve" smooth="yes"/>
      <point x="326" y="537"/>
      <point x="362" y="501"/>
      <point x="362" y="461" type="curve" smooth="yes"/>
      <point x="362" y="421"/>
      <point x="326" y="384"/>
      <point x="286" y="384" type="curve" smooth="yes"/>
      <point x="244" y="384"/>
      <point x="209" y="419"/>
    </contour>
  </outline>
</glyph>
<glyph name="oslash" format="1">
  <advance width="500"/>
  <unicode hex="00F8"/>
  <outline>
    <contour>
      <point x="25" y="229" type="curve" smooth="yes"/>
      <point x="25" y="369"/>
      <point x="122" y="473"/>
      <point x="252" y="473" type="curve" smooth="yes"/>
      <point x="290" y="473"/>
      <point x="320" y="466"/>
      <point x="355" y="448" type="curve"/>
      <point x="415" y="549" type="line"/>
      <point x="461" y="549" type="line"/>
      <point x="388" y="426" type="line"/>
      <point x="449" y="371"/>
      <point x="476" y="311"/>
      <point x="476" y="229" type="curve" smooth="yes"/>
      <point x="476" y="89"/>
      <point x="380" y="-14"/>
      <point x="251" y="-14" type="curve" smooth="yes"/>
      <point x="211" y="-14"/>
      <point x="180" y="-6"/>
      <point x="144" y="13" type="curve"/>
      <point x="81" y="-92" type="line"/>
      <point x="34" y="-92" type="line"/>
      <point x="110" y="36" type="line"/>
      <point x="50" y="92"/>
      <point x="25" y="150"/>
    </contour>
    <contour>
      <point x="172" y="210" type="curve" smooth="yes"/>
      <point x="172" y="182"/>
      <point x="172" y="160"/>
      <point x="173" y="140" type="curve"/>
      <point x="316" y="382" type="line"/>
      <point x="303" y="425"/>
      <point x="285" y="442"/>
      <point x="252" y="442" type="curve" smooth="yes"/>
      <point x="190" y="442"/>
      <point x="172" y="390"/>
    </contour>
    <contour>
      <point x="183" y="80" type="line"/>
      <point x="196" y="35"/>
      <point x="216" y="17"/>
      <point x="251" y="17" type="curve" smooth="yes"/>
      <point x="309" y="17"/>
      <point x="329" y="70"/>
      <point x="329" y="219" type="curve" smooth="yes"/>
      <point x="329" y="247"/>
      <point x="328" y="277"/>
      <point x="327" y="324" type="curve"/>
    </contour>
  </outline>
</glyph>
<glyph name="ucircumflex" format="1">
  <advance width="556"/>
  <unicode hex="00FB"/>
  <outline>
    <contour>
      <point x="16" y="437" type="curve"/>
      <point x="16" y="461" type="line"/>
      <point x="204" y="461" type="line"/>
      <point x="204" y="122" type="line" smooth="yes"/>
      <point x="204" y="71"/>
      <point x="219" y="51"/>
      <point x="260" y="51" type="curve" smooth="yes"/>
      <point x="288" y="51"/>
      <point x="309" y="62"/>
      <point x="342" y="95" type="curve"/>
      <point x="342" y="378" type="line" smooth="yes"/>
      <point x="342" y="421"/>
      <point x="330" y="433"/>
      <point x="280" y="437" type="curve"/>
      <point x="280" y="461" type="line"/>
      <point x="481" y="461" type="line"/>
      <point x="481" y="101" type="line" smooth="yes"/>
      <point x="481" y="58"/>
      <point x="493" y="45"/>
      <point x="537" y="43" type="curve"/>
      <point x="537" y="20" type="line"/>
      <point x="475" y="13" type="line" smooth="yes"/>
      <point x="410" y="6"/>
      <point x="386" y="2"/>
      <point x="343" y="-13" type="curve"/>
      <point x="343" y="52" type="line"/>
      <point x="285" y="2"/>
      <point x="250" y="-14"/>
      <point x="198" y="-14" type="curve" smooth="yes"/>
      <point x="115" y="-14"/>
      <point x="65" y="38"/>
      <point x="65" y="126" type="curve" smooth="yes"/>
      <point x="65" y="378" type="line" smooth="yes"/>
      <point x="65" y="420"/>
      <point x="57" y="429"/>
    </contour>
    <contour>
      <point x="106" y="528" type="line"/>
      <point x="228" y="704" type="line"/>
      <point x="320" y="704" type="line"/>
      <point x="443" y="528" type="line"/>
      <point x="386" y="528" type="line"/>
      <point x="274" y="626" type="line"/>
      <point x="162" y="528" type="line"/>
    </contour>
  </outline>
</glyph>
<glyph name="thorn" format="1">
  <advance width="556"/>
  <unicode hex="00FE"/>
  <outline>
    <contour>
      <point x="19" y="-181" type="line"/>
      <point x="67" y="-173"/>
      <point x="75" y="-164"/>
      <point x="75" y="-123" type="curve" smooth="yes"/>
      <point x="75" y="594" type="line" smooth="yes"/>
      <point x="75" y="634"/>
      <point x="66" y="643"/>
      <point x="20" y="652" type="curve"/>
      <point x="20" y="676" type="line"/>
      <point x="214" y="676" type="line"/>
      <point x="214" y="391" type="line"/>
      <point x="243" y="450"/>
      <point x="278" y="473"/>
      <point x="338" y="473" type="curve" smooth="yes"/>
      <point x="449" y="473"/>
      <point x="524" y="378"/>
      <point x="524" y="239" type="curve" smooth="yes"/>
      <point x="524" y="91"/>
      <point x="444" y="-13"/>
      <point x="332" y="-13" type="curve" smooth="yes"/>
      <point x="288" y="-13"/>
      <point x="262" y="0"/>
      <point x="214" y="47" type="curve"/>
      <point x="214" y="-94" type="line" smooth="yes"/>
      <point x="214" y="-161"/>
      <point x="231" y="-181"/>
      <point x="292" y="-184" type="curve"/>
      <point x="292" y="-205" type="line"/>
      <point x="19" y="-205" type="line"/>
    </contour>
    <contour>
      <point x="214" y="103" type="line"/>
      <point x="233" y="62"/>
      <point x="259" y="42"/>
      <point x="293" y="42" type="curve" smooth="yes"/>
      <point x="348" y="42"/>
      <point x="376" y="103"/>
      <point x="376" y="225" type="curve" smooth="yes"/>
      <point x="376" y="356"/>
      <point x="352" y="416"/>
      <point x="300" y="416" type="curve" smooth="yes"/>
      <point x="278" y="416"/>
      <point x="255" y="404"/>
      <point x="235" y="382" type="curve" smooth="yes"/>
      <point x="223" y="369"/>
      <point x="214" y="353"/>
      <point x="214" y="346" type="curve" smooth="yes"/>
    </contour>
  </outline>
</glyph>
<glyph name="Dcroat" format="1">
  <advance width="722"/>
  <unicode hex="0110"/>
  <outline>
    <contour>
      <point x="6" y="326" type="line"/>
      <point x="6" y="373" type="line"/>
      <point x="97" y="373" type="line"/>
      <point x="97" y="584" type="line" smooth="yes"/>
      <point x="97" y="630"/>
      <point x="78" y="645"/>
      <point x="14" y="651" type="curve"/>
      <point x="14" y="676" type="line"/>
      <point x="319" y="676" type="line" smooth="yes"/>
      <point x="550" y="676"/>
      <point x="690" y="551"/>
      <point x="690" y="345" type="curve" smooth="yes"/>
      <point x="690" y="138"/>
      <point x="546" y="0"/>
      <point x="330" y="0" type="curve" smooth="yes"/>
      <point x="14" y="0" type="line"/>
      <point x="14" y="25" type="line"/>
      <point x="72" y="27"/>
      <point x="97" y="47"/>
      <point x="97" y="91" type="curve" smooth="yes"/>
      <point x="97" y="326" type="line"/>
    </contour>
    <contour>
      <point x="259" y="93" type="line" smooth="yes"/>
      <point x="259" y="48"/>
      <point x="272" y="35"/>
      <point x="317" y="35" type="curve" smooth="yes"/>
      <point x="382" y="35"/>
      <point x="430" y="58"/>
      <point x="464" y="104" type="curve" smooth="yes"/>
      <point x="496" y="149"/>
      <point x="516" y="235"/>
      <point x="516" y="330" type="curve" smooth="yes"/>
      <point x="516" y="414"/>
      <point x="502" y="487"/>
      <point x="475" y="540" type="curve" smooth="yes"/>
      <point x="441" y="609"/>
      <point x="390" y="642"/>
      <point x="319" y="642" type="curve" smooth="yes"/>
      <point x="291" y="642"/>
      <point x="272" y="636"/>
      <point x="264" y="625" type="curve" smooth="yes"/>
      <point x="260" y="620"/>
      <point x="259" y="612"/>
      <point x="259" y="595" type="curve" smooth="yes"/>
      <point x="259" y="373" type="line"/>
      <point x="373" y="373" type="line"/>
      <point x="373" y="326" type="line"/>
      <point x="259" y="326" type="line"/>
    </contour>
  </outline>
</glyph>
<glyph name="Ebreve" format="1">
  <advance width="667"/>
  <unicode hex="0114"/>
  <outline>
    <contour>
      <point x="16" y="0" type="line"/>
      <point x="16" y="25" type="line"/>
      <point x="90" y="33"/>
      <point x="104" y="44"/>
      <point x="104" y="96" type="curve" smooth="yes"/>
      <point x="104" y="580" type="line" smooth="yes"/>
      <point x="104" y="631"/>
      <point x="85" y="647"/>
      <point x="16" y="651" type="curve"/>
      <point x="16" y="676" type="line"/>
      <point x="593" y="676" type="line"/>
      <point x="593" y="475" type="line"/>
      <point x="568" y="475" type="line"/>
      <point x="543" y="608"/>
      <point x="494" y="642"/>
      <point x="331" y="642" type="curve" smooth="yes"/>
      <point x="279" y="642"/>
      <point x="266" y="633"/>
      <point x="266" y="595" type="curve" smooth="yes"/>
      <point x="266" y="363" type="line"/>
      <point x="267.449" y="362.987"/>
      <point x="268.885" y="362.98"/>
      <point x="270.309" y="362.98" type="curve" smooth="yes"/>
      <point x="375.042" y="362.98"/>
      <point x="413.201" y="399.529"/>
      <point x="428" y="512" type="curve"/>
      <point x="454" y="512" type="line"/>
      <point x="454" y="174" type="line"/>
      <point x="428" y="174" type="line"/>
      <point x="416" y="290"/>
      <point x="375" y="329"/>
      <point x="266" y="329" type="curve"/>
      <point x="266" y="87" type="line" smooth="yes"/>
      <point x="266" y="44"/>
      <point x="285" y="31"/>
      <point x="349" y="31" type="curve" smooth="yes"/>
      <point x="425" y="31"/>
      <point x="480" y="47"/>
      <point x="526" y="84" type="curve" smooth="yes"/>
      <point x="562" y="113"/>
      <point x="582" y="141"/>
      <point x="613" y="208" type="curve"/>
      <point x="641" y="208" type="line"/>
      <point x="601" y="0" type="line"/>
    </contour>
    <contour>
      <point x="176" y="901" type="curve"/>
      <point x="220" y="901" type="line"/>
      <point x="230" y="840"/>
      <point x="268" y="814"/>
      <point x="328" y="814" type="curve" smooth="yes"/>
      <point x="389" y="814"/>
      <point x="421" y="842"/>
      <point x="435" y="901" type="curve"/>
      <point x="479" y="901" type="line"/>
      <point x="473" y="808"/>
      <point x="428" y="738"/>
      <point x="327" y="738" type="curve" smooth="yes"/>
      <point x="226" y="738"/>
      <point x="177" y="805"/>
    </contour>
  </outline>
</glyph>
<glyph name="Eogonek" format="1">
  <advance width="667"/>
  <unicode hex="0118"/>
  <outline>
    <contour>
      <point x="16" y="0" type="line"/>
      <point x="16" y="25" type="line"/>
      <point x="90" y="33"/>
      <point x="104" y="44"/>
      <point x="104" y="96" type="curve" smooth="yes"/>
      <point x="104" y="580" type="line" smooth="yes"/>
      <point x="104" y="631"/>
      <point x="85" y="647"/>
      <point x="16" y="651" type="curve"/>
      <point x="16" y="676" type="line"/>
      <point x="593" y="676" type="line"/>
      <point x="593" y="475" type="line"/>
      <point x="568" y="475" type="line"/>
      <point x="543" y="608"/>
      <point x="494" y="642"/>
      <point x="331" y="642" type="curve" smooth="yes"/>
      <point x="279" y="642"/>
      <point x="266" y="633"/>
      <point x="266" y="595" type="curve" smooth="yes"/>
      <point x="266" y="363" type="line"/>
      <point x="267.449" y="362.987"/>
      <point x="268.885" y="362.98"/>
      <point x="270.309" y="362.98" type="curve" smooth="yes"/>
      <point x="375.042" y="362.98"/>
      <point x="413.201" y="399.529"/>
      <point x="428" y="512" type="curve"/>
      <point x="454" y="512" type="line"/>
      <point x="454" y="174" type="line"/>
      <point x="428" y="174" type="line"/>
      <point x="416" y="290"/>
      <point x="375" y="329"/>
      <point x="266" y="329" type="curve"/>
      <point x="266" y="87" type="line" smooth="yes"/>
      <point x="266" y="44"/>
      <point x="285" y="31"/>
      <point x="349" y="31" type="curve" smooth="yes"/>
      <point x="425" y="31"/>
      <point x="480" y="47"/>
      <point x="526" y="84" type="curve" smooth="yes"/>
      <point x="562" y="113"/>
      <point x="582" y="141"/>
      <point x="613" y="208" type="curve"/>
      <point x="641" y="208" type="line"/>
      <point x="607" y="33" type="line" smooth="yes"/>
      <point x="592" y="-37"/>
      <point x="592" y="-37"/>
      <point x="592" y="-47" type="curve" smooth="yes"/>
      <point x="592" y="-81"/>
      <point x="617" y="-104"/>
      <point x="655" y="-104" type="curve" smooth="yes"/>
      <point x="670" y="-104"/>
      <point x="681" y="-101"/>
      <point x="701" y="-91" type="curve" smooth="yes"/>
      <point x="709" y="-87"/>
      <point x="710" y="-86"/>
      <point x="715" y="-84" type="curve"/>
      <point x="737" y="-98" type="line"/>
      <point x="712" y="-144"/>
      <point x="664" y="-173"/>
      <point x="614" y="-173" type="curve" smooth="yes"/>
      <point x="553" y="-173"/>
      <point x="508" y="-139"/>
      <point x="508" y="-92" type="curve" smooth="yes"/>
      <point x="508" y="-64"/>
      <point x="517" y="-45"/>
      <point x="551" y="0" type="curve"/>
    </contour>
  </outline>
</glyph>
<glyph name="eogonek" format="1">
  <advance width="444"/>
  <unicode hex="0119"/>
  <outline>
    <contour>
      <point x="25" y="228" type="curve" smooth="yes"/>
      <point x="25" y="374"/>
      <point x="109" y="473"/>
      <point x="234" y="473" type="curve" smooth="yes"/>
      <point x="289" y="473"/>
      <point x="335" y="453"/>
      <point x="368" y="414" type="curve" smooth="yes"/>
      <point x="400" y="376"/>
      <point x="415" y="329"/>
      <point x="421" y="245" type="curve"/>
      <point x="169" y="245" type="line"/>
      <point x="173" y="176"/>
      <point x="181" y="143"/>
      <point x="199" y="111" type="curve" smooth="yes"/>
      <point x="220" y="76"/>
      <point x="249" y="58"/>
      <point x="288" y="58" type="curve" smooth="yes"/>
      <point x="331" y="58"/>
      <point x="362" y="76"/>
      <point x="402" y="125" type="curve"/>
      <point x="426" y="111" type="line"/>
      <point x="390" y="58"/>
      <point x="368" y="36"/>
      <point x="323" y="4" type="curve" smooth="yes"/>
      <point x="304" y="-9"/>
      <point x="299" y="-17"/>
      <point x="299" y="-37" type="curve" smooth="yes"/>
      <point x="299" y="-81"/>
      <point x="320" y="-104"/>
      <point x="362" y="-104" type="curve" smooth="yes"/>
      <point x="377" y="-104"/>
      <point x="388" y="-101"/>
      <point x="408" y="-91" type="curve" smooth="yes"/>
      <point x="416" y="-87"/>
      <point x="417" y="-86"/>
      <point x="422" y="-84" type="curve"/>
      <point x="444" y="-98" type="line"/>
      <point x="419" y="-144"/>
      <point x="371" y="-173"/>
      <point x="321" y="-173" type="curve" smooth="yes"/>
      <point x="260" y="-173"/>
      <point x="215" y="-139"/>
      <point x="215" y="-92" type="curve" smooth="yes"/>
      <point x="215" y="-67"/>
      <point x="222" y="-49"/>
      <point x="248" y="-13" type="curve"/>
      <point x="240" y="-14"/>
      <point x="233" y="-14"/>
      <point x="229" y="-14" type="curve" smooth="yes"/>
      <point x="107" y="-14"/>
      <point x="25" y="83"/>
    </contour>
    <contour>
      <point x="164" y="282" type="curve"/>
      <point x="298" y="282" type="line"/>
      <point x="298" y="297" type="line" smooth="yes"/>
      <point x="296" y="348"/>
      <point x="294" y="376"/>
      <point x="289" y="395" type="curve" smooth="yes"/>
      <point x="281" y="426"/>
      <point x="262" y="442"/>
      <point x="234" y="442" type="curve" smooth="yes"/>
      <point x="185" y="442"/>
      <point x="167" y="402"/>
    </contour>
  </outline>
</glyph>
<glyph name="Gcedilla" format="1">
  <advance width="778"/>
  <unicode hex="0122"/>
  <outline>
    <contour>
      <point x="37" y="331" type="curve" smooth="yes"/>
      <point x="37" y="537"/>
      <point x="186" y="691"/>
      <point x="385" y="691" type="curve" smooth="yes"/>
      <point x="433" y="691"/>
      <point x="481" y="680"/>
      <point x="540" y="656" type="curve" smooth="yes"/>
      <point x="562" y="646"/>
      <point x="577" y="642"/>
      <point x="586" y="642" type="curve" smooth="yes"/>
      <point x="605" y="642"/>
      <point x="616" y="653"/>
      <point x="630" y="688" type="curve"/>
      <point x="657" y="688" type="line"/>
      <point x="657" y="454" type="line"/>
      <point x="632" y="454" type="line"/>
      <point x="597" y="530"/>
      <point x="574" y="564"/>
      <point x="531" y="602" type="curve" smooth="yes"/>
      <point x="487" y="640"/>
      <point x="444" y="658"/>
      <point x="398" y="658" type="curve" smooth="yes"/>
      <point x="277" y="658"/>
      <point x="214" y="547"/>
      <point x="214" y="338" type="curve" smooth="yes"/>
      <point x="214" y="218"/>
      <point x="235" y="132"/>
      <point x="279" y="76" type="curve" smooth="yes"/>
      <point x="312" y="33"/>
      <point x="354" y="14"/>
      <point x="417" y="14" type="curve" smooth="yes"/>
      <point x="484" y="14"/>
      <point x="513" y="36"/>
      <point x="513" y="87" type="curve" smooth="yes"/>
      <point x="513" y="192" type="line" smooth="yes"/>
      <point x="513" y="246"/>
      <point x="498" y="257"/>
      <point x="412" y="262" type="curve"/>
      <point x="412" y="287" type="line"/>
      <point x="755" y="287" type="line"/>
      <point x="755" y="262" type="line"/>
      <point x="680" y="254"/>
      <point x="669" y="242"/>
      <point x="669" y="170" type="curve" smooth="yes"/>
      <point x="669" y="43" type="line"/>
      <point x="605" y="5"/>
      <point x="496" y="-19"/>
      <point x="393" y="-19" type="curve" smooth="yes"/>
      <point x="183" y="-19"/>
      <point x="37" y="125"/>
    </contour>
    <contour>
      <point x="336" y="-97" type="curve" smooth="yes"/>
      <point x="336" y="-68"/>
      <point x="364" y="-45"/>
      <point x="396" y="-45" type="curve" smooth="yes"/>
      <point x="434" y="-45"/>
      <point x="466" y="-77"/>
      <point x="466" y="-113" type="curve" smooth="yes"/>
      <point x="466" y="-172"/>
      <point x="429" y="-218"/>
      <point x="358" y="-234" type="curve"/>
      <point x="350" y="-219" type="line"/>
      <point x="394" y="-207"/>
      <point x="419" y="-178"/>
      <point x="419" y="-154" type="curve" smooth="yes"/>
      <point x="419" y="-146"/>
      <point x="413" y="-142"/>
      <point x="406" y="-142" type="curve" smooth="yes"/>
      <point x="405" y="-142"/>
      <point x="392" y="-145"/>
      <point x="389" y="-145" type="curve" smooth="yes"/>
      <point x="359" y="-145"/>
      <point x="336" y="-127"/>
    </contour>
  </outline>
</glyph>
<glyph name="gcedilla" format="1">
  <advance width="500"/>
  <unicode hex="0123"/>
  <outline>
    <contour>
      <point x="28" y="-114" type="curve" smooth="yes"/>
      <point x="28" y="-73"/>
      <point x="61" y="-48"/>
      <point x="124" y="-39" type="curve"/>
      <point x="60" y="-16"/>
      <point x="42" y="2"/>
      <point x="42" y="43" type="curve" smooth="yes"/>
      <point x="42" y="95"/>
      <point x="82" y="133"/>
      <point x="161" y="160" type="curve"/>
      <point x="114" y="180"/>
      <point x="95" y="193"/>
      <point x="73" y="217" type="curve" smooth="yes"/>
      <point x="50" y="245"/>
      <point x="37" y="278"/>
      <point x="37" y="312" type="curve" smooth="yes"/>
      <point x="37" y="407"/>
      <point x="121" y="473"/>
      <point x="240" y="473" type="curve" smooth="yes"/>
      <point x="280" y="473"/>
      <point x="308" y="467"/>
      <point x="352" y="451" type="curve"/>
      <point x="482" y="451" type="line"/>
      <point x="482" y="398" type="line"/>
      <point x="401" y="398" type="line"/>
      <point x="429" y="370"/>
      <point x="441" y="340"/>
      <point x="441" y="300" type="curve" smooth="yes"/>
      <point x="441" y="247"/>
      <point x="418" y="206"/>
      <point x="373" y="180" type="curve" smooth="yes"/>
      <point x="339" y="160"/>
      <point x="314" y="154"/>
      <point x="267" y="154" type="curve" smooth="yes"/>
      <point x="222" y="155" type="line" smooth="yes"/>
      <point x="182" y="155"/>
      <point x="154" y="133"/>
      <point x="154" y="103" type="curve" smooth="yes"/>
      <point x="154" y="75"/>
      <point x="174" y="68"/>
      <point x="254" y="68" type="curve" smooth="yes"/>
      <point x="319" y="68" type="line" smooth="yes"/>
      <point x="421" y="68"/>
      <point x="483" y="22"/>
      <point x="483" y="-55" type="curve" smooth="yes"/>
      <point x="483" y="-154"/>
      <point x="395" y="-206"/>
      <point x="229" y="-206" type="curve" smooth="yes"/>
      <point x="103" y="-206"/>
      <point x="28" y="-172"/>
    </contour>
    <contour>
      <point x="116" y="-107" type="curve" smooth="yes"/>
      <point x="116" y="-151"/>
      <point x="162" y="-174"/>
      <point x="250" y="-174" type="curve" smooth="yes"/>
      <point x="349" y="-174"/>
      <point x="404" y="-148"/>
      <point x="404" y="-102" type="curve" smooth="yes"/>
      <point x="404" y="-69"/>
      <point x="378" y="-52"/>
      <point x="324" y="-52" type="curve" smooth="yes"/>
      <point x="151" y="-52" type="line"/>
      <point x="123" y="-75"/>
      <point x="116" y="-86"/>
    </contour>
    <contour>
      <point x="164" y="633" type="curve" smooth="yes"/>
      <point x="164" y="711"/>
      <point x="209" y="770"/>
      <point x="313" y="829" type="curve"/>
      <point x="323" y="810" type="line"/>
      <point x="255" y="762"/>
      <point x="225" y="725"/>
      <point x="225" y="690" type="curve" smooth="yes"/>
      <point x="225" y="680"/>
      <point x="233" y="671"/>
      <point x="242" y="671" type="curve" smooth="yes"/>
      <point x="243" y="671"/>
      <point x="258" y="673"/>
      <point x="262" y="673" type="curve" smooth="yes"/>
      <point x="303" y="673"/>
      <point x="329" y="645"/>
      <point x="329" y="602" type="curve" smooth="yes"/>
      <point x="329" y="557"/>
      <point x="299" y="528"/>
      <point x="254" y="528" type="curve" smooth="yes"/>
      <point x="200" y="528"/>
      <point x="164" y="570"/>
    </contour>
    <contour>
      <point x="174" y="311" type="curve" smooth="yes"/>
      <point x="174" y="218"/>
      <point x="192" y="182"/>
      <point x="240" y="182" type="curve" smooth="yes"/>
      <point x="287" y="182"/>
      <point x="306" y="218"/>
      <point x="306" y="311" type="curve" smooth="yes"/>
      <point x="306" y="404"/>
      <point x="287" y="442"/>
      <point x="240" y="442" type="curve" smooth="yes"/>
      <point x="193" y="442"/>
      <point x="174" y="405"/>
    </contour>
  </outline>
</glyph>
<glyph name="Hbar" format="1">
  <advance width="774"/>
  <unicode hex="0126"/>
  <outline>
    <contour>
      <point x="16" y="0" type="line"/>
      <point x="16" y="25" type="line"/>
      <point x="66" y="31"/>
      <point x="101" y="36"/>
      <point x="101" y="96" type="curve" smooth="yes"/>
      <point x="101" y="458" type="line"/>
      <point x="56" y="458" type="line"/>
      <point x="56" y="505" type="line"/>
      <point x="101" y="505" type="line"/>
      <point x="101" y="580" type="line" smooth="yes"/>
      <point x="101" y="640"/>
      <point x="66" y="646"/>
      <point x="16" y="651" type="curve"/>
      <point x="16" y="676" type="line"/>
      <point x="353" y="676" type="line"/>
      <point x="353" y="651" type="line"/>
      <point x="302" y="648"/>
      <point x="263" y="642"/>
      <point x="263" y="580" type="curve" smooth="yes"/>
      <point x="263" y="505" type="line"/>
      <point x="504" y="505" type="line"/>
      <point x="504" y="580" type="line" smooth="yes"/>
      <point x="504" y="642"/>
      <point x="465" y="648"/>
      <point x="414" y="651" type="curve"/>
      <point x="414" y="676" type="line"/>
      <point x="754" y="676" type="line"/>
      <point x="754" y="651" type="line"/>
      <point x="704" y="648"/>
      <point x="666" y="641"/>
      <point x="666" y="580" type="curve" smooth="yes"/>
      <point x="666" y="505" type="line"/>
      <point x="711" y="505" type="line"/>
      <point x="711" y="458" type="line"/>
      <point x="666" y="458" type="line"/>
      <point x="666" y="96" type="line" smooth="yes"/>
      <point x="666" y="35"/>
      <point x="704" y="31"/>
      <point x="754" y="25" type="curve"/>
      <point x="754" y="0" type="line"/>
      <point x="414" y="0" type="line"/>
      <point x="414" y="25" type="line"/>
      <point x="464" y="31"/>
      <point x="504" y="34"/>
      <point x="504" y="96" type="curve" smooth="yes"/>
      <point x="504" y="326" type="line"/>
      <point x="263" y="326" type="line"/>
      <point x="263" y="96" type="line" smooth="yes"/>
      <point x="263" y="34"/>
      <point x="303" y="31"/>
      <point x="353" y="25" type="curve"/>
      <point x="353" y="0" type="line"/>
    </contour>
    <contour>
      <point x="263" y="373" type="line"/>
      <point x="504" y="373" type="line"/>
      <point x="504" y="458" type="line"/>
      <point x="263" y="458" type="line"/>
    </contour>
  </outline>
</glyph>
<glyph name="Imacron" format="1">
  <advance width="386"/>
  <unicode hex="012A"/>
  <outline>
    <contour>
      <point x="16" y="0" type="line"/>
      <point x="16" y="25" type="line"/>
      <point x="91" y="32"/>
      <point x="109" y="46"/>
      <point x="109" y="96" type="curve" smooth="yes"/>
      <point x="109" y="580" type="line" smooth="yes"/>
      <point x="109" y="631"/>
      <point x="88" y="646"/>
      <point x="16" y="651" type="curve"/>
      <point x="16" y="676" type="line"/>
      <point x="366" y="676" type="line"/>
      <point x="366" y="651" type="line"/>
      <point x="292" y="648"/>
      <point x="271" y="632"/>
      <point x="271" y="580" type="curve" smooth="yes"/>
      <point x="271" y="96" type="line" smooth="yes"/>
      <point x="271" y="44"/>
      <point x="290" y="30"/>
      <point x="366" y="25" type="curve"/>
      <point x="366" y="0" type="line"/>
    </contour>
    <contour>
      <point x="25" y="775" type="line"/>
      <point x="25" y="847" type="line"/>
      <point x="355" y="847" type="line"/>
      <point x="355" y="775" type="line"/>
    </contour>
  </outline>
</glyph>
<glyph name="ibreve" format="1">
  <advance width="278"/>
  <unicode hex="012D"/>
  <outline>
    <contour>
      <point x="-20" y="691" type="curve"/>
      <point x="24" y="691" type="line"/>
      <point x="34" y="630"/>
      <point x="72" y="604"/>
      <point x="132" y="604" type="curve" smooth="yes"/>
      <point x="193" y="604"/>
      <point x="225" y="632"/>
      <point x="239" y="691" type="curve"/>
      <point x="283" y="691" type="line"/>
      <point x="277" y="598"/>
      <point x="232" y="528"/>
      <point x="131" y="528" type="curve" smooth="yes"/>
      <point x="30" y="528"/>
      <point x="-19" y="595"/>
    </contour>
    <contour>
      <point x="16" y="0" type="line"/>
      <point x="16" y="24" type="line"/>
      <point x="62" y="35"/>
      <point x="69" y="43"/>
      <point x="69" y="84" type="curve" smooth="yes"/>
      <point x="69" y="378" type="line" smooth="yes"/>
      <point x="69" y="419"/>
      <point x="60" y="428"/>
      <point x="16" y="437" type="curve"/>
      <point x="16" y="461" type="line"/>
      <point x="208" y="461" type="line"/>
      <point x="208" y="81" type="line" smooth="yes"/>
      <point x="208" y="43"/>
      <point x="220" y="29"/>
      <point x="255" y="24" type="curve"/>
      <point x="255" y="0" type="line"/>
    </contour>
  </outline>
</glyph>
<glyph name="Iogonek" format="1">
  <advance width="389"/>
  <unicode hex="012E"/>
  <outline>
    <contour>
      <point x="20" y="0" type="line"/>
      <point x="20" y="25" type="line"/>
      <point x="95" y="32"/>
      <point x="113" y="46"/>
      <point x="113" y="96" type="curve" smooth="yes"/>
      <point x="113" y="580" type="line" smooth="yes"/>
      <point x="113" y="631"/>
      <point x="92" y="646"/>
      <point x="20" y="651" type="curve"/>
      <point x="20" y="676" type="line"/>
      <point x="370" y="676" type="line"/>
      <point x="370" y="651" type="line"/>
      <point x="296" y="648"/>
      <point x="275" y="632"/>
      <point x="275" y="580" type="curve" smooth="yes"/>
      <point x="275" y="96" type="line" smooth="yes"/>
      <point x="275" y="44"/>
      <point x="294" y="30"/>
      <point x="370" y="25" type="curve"/>
      <point x="370" y="0" type="line"/>
      <point x="363" y="-11"/>
      <point x="360" y="-23"/>
      <point x="360" y="-40" type="curve" smooth="yes"/>
      <point x="360" y="-81"/>
      <point x="382" y="-104"/>
      <point x="423" y="-104" type="curve" smooth="yes"/>
      <point x="438" y="-104"/>
      <point x="449" y="-101"/>
      <point x="469" y="-91" type="curve" smooth="yes"/>
      <point x="477" y="-87"/>
      <point x="478" y="-86"/>
      <point x="483" y="-84" type="curve"/>
      <point x="505" y="-98" type="line"/>
      <point x="480" y="-144"/>
      <point x="432" y="-173"/>
      <point x="382" y="-173" type="curve" smooth="yes"/>
      <point x="321" y="-173"/>
      <point x="276" y="-139"/>
      <point x="276" y="-92" type="curve" smooth="yes"/>
      <point x="276" y="-64"/>
      <point x="285" y="-46"/>
      <point x="319" y="0" type="curve"/>
    </contour>
  </outline>
</glyph>
<glyph name="iogonek" format="1">
  <advance width="278"/>
  <unicode hex="012F"/>
  <outline>
    <contour>
      <point x="16" y="0" type="line"/>
      <point x="16" y="24" type="line"/>
      <point x="62" y="35"/>
      <point x="69" y="43"/>
      <point x="69" y="84" type="curve" smooth="yes"/>
      <point x="69" y="378" type="line" smooth="yes"/>
      <point x="69" y="419"/>
      <point x="60" y="428"/>
      <point x="16" y="437" type="curve"/>
      <point x="16" y="461" type="line"/>
      <point x="208" y="461" type="line"/>
      <point x="208" y="81" type="line" smooth="yes"/>
      <point x="208" y="43"/>
      <point x="220" y="29"/>
      <point x="255" y="24" type="curve"/>
      <point x="255" y="0" type="line"/>
      <point x="246" y="-10"/>
      <point x="243" y="-21"/>
      <point x="243" y="-39" type="curve" smooth="yes"/>
      <point x="243" y="-81"/>
      <point x="265" y="-104"/>
      <point x="306" y="-104" type="curve" smooth="yes"/>
      <point x="321" y="-104"/>
      <point x="332" y="-101"/>
      <point x="352" y="-91" type="curve" smooth="yes"/>
      <point x="360" y="-87"/>
      <point x="361" y="-86"/>
      <point x="366" y="-84" type="curve"/>
      <point x="388" y="-98" type="line"/>
      <point x="363" y="-144"/>
      <point x="315" y="-173"/>
      <point x="265" y="-173" type="curve" smooth="yes"/>
      <point x="204" y="-173"/>
      <point x="159" y="-139"/>
      <point x="159" y="-92" type="curve" smooth="yes"/>
      <point x="159" y="-64"/>
      <point x="168" y="-46"/>
      <point x="202" y="0" type="curve"/>
    </contour>
    <contour>
      <point x="60" y="614" type="curve" smooth="yes"/>
      <point x="60" y="656"/>
      <point x="95" y="691"/>
      <point x="138" y="691" type="curve" smooth="yes"/>
      <point x="181" y="691"/>
      <point x="215" y="656"/>
      <point x="215" y="613" type="curve" smooth="yes"/>
      <point x="215" y="569"/>
      <point x="181" y="536"/>
      <point x="137" y="536" type="curve" smooth="yes"/>
      <point x="93" y="536"/>
      <point x="60" y="569"/>
    </contour>
  </outline>
</glyph>
<glyph name="ij" format="1">
  <advance width="486"/>
  <unicode hex="0133"/>
  <outline>
    <contour>
      <point x="16" y="0" type="line"/>
      <point x="16" y="24" type="line"/>
      <point x="62" y="35"/>
      <point x="69" y="43"/>
      <point x="69" y="84" type="curve" smooth="yes"/>
      <point x="69" y="378" type="line" smooth="yes"/>
      <point x="69" y="419"/>
      <point x="60" y="428"/>
      <point x="16" y="437" type="curve"/>
      <point x="16" y="461" type="line"/>
      <point x="208" y="461" type="line"/>
      <point x="208" y="81" type="line" smooth="yes"/>
      <point x="208" y="43"/>
      <point x="220" y="29"/>
      <point x="255" y="24" type="curve"/>
      <point x="255" y="0" type="line"/>
    </contour>
    <contour>
      <point x="60" y="614" type="curve" smooth="yes"/>
      <point x="60" y="656"/>
      <point x="95" y="691"/>
      <point x="138" y="691" type="curve" smooth="yes"/>
      <point x="181" y="691"/>
      <point x="215" y="656"/>
      <point x="215" y="613" type="curve" smooth="yes"/>
      <point x="215" y="569"/>
      <point x="181" y="536"/>
      <point x="137" y="536" type="curve" smooth="yes"/>
      <point x="93" y="536"/>
      <point x="60" y="569"/>
    </contour>
    <contour>
      <point x="143" y="-103" type="curve" smooth="yes"/>
      <point x="143" y="-67"/>
      <point x="168" y="-42"/>
      <point x="205" y="-42" type="curve" smooth="yes"/>
      <point x="237" y="-42"/>
      <point x="264" y="-66"/>
      <point x="264" y="-96" type="curve" smooth="yes"/>
      <point x="264" y="-106"/>
      <point x="260" y="-117"/>
      <point x="250" y="-133" type="curve" smooth="yes"/>
      <point x="244" y="-143"/>
      <point x="241" y="-150"/>
      <point x="241" y="-155" type="curve" smooth="yes"/>
      <point x="241" y="-165"/>
      <point x="254" y="-172"/>
      <point x="273" y="-172" type="curve" smooth="yes"/>
      <point x="306" y="-172"/>
      <point x="321" y="-149"/>
      <point x="321" y="-96" type="curve" smooth="yes"/>
      <point x="321" y="378" type="line" smooth="yes"/>
      <point x="321" y="421"/>
      <point x="309" y="433"/>
      <point x="258" y="437" type="curve"/>
      <point x="258" y="461" type="line"/>
      <point x="460" y="461" type="line"/>
      <point x="460" y="2" type="line" smooth="yes"/>
      <point x="460" y="-57"/>
      <point x="452" y="-95"/>
      <point x="433" y="-127" type="curve" smooth="yes"/>
      <point x="405" y="-176"/>
      <point x="352" y="-203"/>
      <point x="283" y="-203" type="curve" smooth="yes"/>
      <point x="201" y="-203"/>
      <point x="143" y="-162"/>
    </contour>
    <contour>
      <point x="308" y="614" type="curve" smooth="yes"/>
      <point x="308" y="656"/>
      <point x="342" y="691"/>
      <point x="385" y="691" type="curve" smooth="yes"/>
      <point x="428" y="691"/>
      <point x="463" y="656"/>
      <point x="463" y="613" type="curve" smooth="yes"/>
      <point x="463" y="570"/>
      <point x="428" y="536"/>
      <point x="385" y="536" type="curve" smooth="yes"/>
      <point x="340" y="536"/>
      <point x="308" y="569"/>
    </contour>
  </outline>
</glyph>
<glyph name="lacute" format="1">
  <advance width="278"/>
  <unicode hex="013A"/>
  <outline>
    <contour>
      <point x="16" y="0" type="line"/>
      <point x="16" y="24" type="line"/>
      <point x="50" y="27"/>
      <point x="67" y="47"/>
      <point x="67" y="84" type="curve" smooth="yes"/>
      <point x="67" y="594" type="line" smooth="yes"/>
      <point x="67" y="631"/>
      <point x="51" y="649"/>
      <point x="16" y="652" type="curve"/>
      <point x="16" y="676" type="line"/>
      <point x="206" y="676" type="line"/>
      <point x="206" y="84" type="line" smooth="yes"/>
      <point x="206" y="44"/>
      <point x="222" y="25"/>
      <point x="255" y="24" type="curve"/>
      <point x="255" y="0" type="line"/>
    </contour>
    <contour>
      <point x="58" y="738" type="line"/>
      <point x="195" y="895" type="line" smooth="yes"/>
      <point x="212" y="914"/>
      <point x="229" y="923"/>
      <point x="248" y="923" type="curve" smooth="yes"/>
      <point x="277" y="923"/>
      <point x="296" y="905"/>
      <point x="296" y="879" type="curve" smooth="yes"/>
      <point x="296" y="856"/>
      <point x="288" y="846"/>
      <point x="256" y="826" type="curve" smooth="yes"/>
      <point x="114" y="738" type="line"/>
    </contour>
  </outline>
</glyph>
<glyph name="Lcedilla" format="1">
  <advance width="664"/>
  <unicode hex="013B"/>
  <outline>
    <contour>
      <point x="16" y="0" type="line"/>
      <point x="16" y="25" type="line"/>
      <point x="89" y="34"/>
      <point x="102" y="45"/>
      <point x="102" y="96" type="curve" smooth="yes"/>
      <point x="102" y="580" type="line" smooth="yes"/>
      <point x="102" y="631"/>
      <point x="84" y="647"/>
      <point x="16" y="651" type="curve"/>
      <point x="16" y="676" type="line"/>
      <point x="365" y="676" type="line"/>
      <point x="365" y="651" type="line"/>
      <point x="278" y="647"/>
      <point x="264" y="634"/>
      <point x="264" y="559" type="curve" smooth="yes"/>
      <point x="264" y="87" type="line" smooth="yes"/>
      <point x="264" y="44"/>
      <point x="283" y="31"/>
      <point x="344" y="31" type="curve" smooth="yes"/>
      <point x="421" y="31"/>
      <point x="477" y="49"/>
      <point x="518" y="86" type="curve" smooth="yes"/>
      <point x="553" y="118"/>
      <point x="573" y="149"/>
      <point x="606" y="227" type="curve"/>
      <point x="635" y="227" type="line"/>
      <point x="594" y="0" type="line"/>
    </contour>
    <contour>
      <point x="280" y="-97" type="curve" smooth="yes"/>
      <point x="280" y="-68"/>
      <point x="308" y="-45"/>
      <point x="340" y="-45" type="curve" smooth="yes"/>
      <point x="378" y="-45"/>
      <point x="410" y="-77"/>
      <point x="410" y="-113" type="curve" smooth="yes"/>
      <point x="410" y="-172"/>
      <point x="373" y="-218"/>
      <point x="302" y="-234" type="curve"/>
      <point x="294" y="-219" type="line"/>
      <point x="338" y="-207"/>
      <point x="363" y="-178"/>
      <point x="363" y="-154" type="curve" smooth="yes"/>
      <point x="363" y="-146"/>
      <point x="357" y="-142"/>
      <point x="350" y="-142" type="curve" smooth="yes"/>
      <point x="349" y="-142"/>
      <point x="336" y="-145"/>
      <point x="333" y="-145" type="curve" smooth="yes"/>
      <point x="303" y="-145"/>
      <point x="280" y="-127"/>
    </contour>
  </outline>
</glyph>
<glyph name="Lcaron" format="1">
  <advance width="664"/>
  <unicode hex="013D"/>
  <outline>
    <contour>
      <point x="16" y="0" type="line"/>
      <point x="16" y="25" type="line"/>
      <point x="89" y="34"/>
      <point x="102" y="45"/>
      <point x="102" y="96" type="curve" smooth="yes"/>
      <point x="102" y="580" type="line" smooth="yes"/>
      <point x="102" y="631"/>
      <point x="84" y="647"/>
      <point x="16" y="651" type="curve"/>
      <point x="16" y="676" type="line"/>
      <point x="365" y="676" type="line"/>
      <point x="365" y="651" type="line"/>
      <point x="278" y="647"/>
      <point x="264" y="634"/>
      <point x="264" y="559" type="curve" smooth="yes"/>
      <point x="264" y="87" type="line" smooth="yes"/>
      <point x="264" y="44"/>
      <point x="283" y="31"/>
      <point x="344" y="31" type="curve" smooth="yes"/>
      <point x="421" y="31"/>
      <point x="477" y="49"/>
      <point x="518" y="86" type="curve" smooth="yes"/>
      <point x="553" y="118"/>
      <point x="573" y="149"/>
      <point x="606" y="227" type="curve"/>
      <point x="635" y="227" type="line"/>
      <point x="594" y="0" type="line"/>
    </contour>
    <contour>
      <point x="430" y="617" type="curve" smooth="yes"/>
      <point x="430" y="662"/>
      <point x="460" y="691"/>
      <point x="505" y="691" type="curve" smooth="yes"/>
      <point x="559" y="691"/>
      <point x="595" y="649"/>
      <point x="595" y="586" type="curve" smooth="yes"/>
      <point x="595" y="508"/>
      <point x="548" y="449"/>
      <point x="446" y="406" type="curve"/>
      <point x="436" y="425" type="line"/>
      <point x="502" y="454"/>
      <point x="534" y="494"/>
      <point x="534" y="529" type="curve" smooth="yes"/>
      <point x="534" y="539"/>
      <point x="526" y="548"/>
      <point x="517" y="548" type="curve" smooth="yes"/>
      <point x="516" y="548"/>
      <point x="501" y="546"/>
      <point x="497" y="546" type="curve" smooth="yes"/>
      <point x="456" y="546"/>
      <point x="430" y="574"/>
    </contour>
  </outline>
</glyph>
<glyph name="lcaron" format="1">
  <advance width="390"/>
  <unicode hex="013E"/>
  <outline>
    <contour>
      <point x="16" y="0" type="line"/>
      <point x="16" y="24" type="line"/>
      <point x="50" y="27"/>
      <point x="67" y="47"/>
      <point x="67" y="84" type="curve" smooth="yes"/>
      <point x="67" y="594" type="line" smooth="yes"/>
      <point x="67" y="631"/>
      <point x="51" y="649"/>
      <point x="16" y="652" type="curve"/>
      <point x="16" y="676" type="line"/>
      <point x="206" y="676" type="line"/>
      <point x="206" y="84" type="line" smooth="yes"/>
      <point x="206" y="44"/>
      <point x="222" y="25"/>
      <point x="255" y="24" type="curve"/>
      <point x="255" y="0" type="line"/>
    </contour>
    <contour>
      <point x="232" y="617" type="curve" smooth="yes"/>
      <point x="232" y="662"/>
      <point x="262" y="691"/>
      <point x="307" y="691" type="curve" smooth="yes"/>
      <point x="361" y="691"/>
      <point x="397" y="649"/>
      <point x="397" y="586" type="curve" smooth="yes"/>
      <point x="397" y="508"/>
      <point x="350" y="449"/>
      <point x="248" y="406" type="curve"/>
      <point x="238" y="425" type="line"/>
      <point x="304" y="454"/>
      <point x="336" y="494"/>
      <point x="336" y="529" type="curve" smooth="yes"/>
      <point x="336" y="539"/>
      <point x="328" y="548"/>
      <point x="319" y="548" type="curve" smooth="yes"/>
      <point x="318" y="548"/>
      <point x="303" y="546"/>
      <point x="299" y="546" type="curve" smooth="yes"/>
      <point x="258" y="546"/>
      <point x="232" y="574"/>
    </contour>
  </outline>
</glyph>
<glyph name="ldot" format="1">
  <advance width="528"/>
  <unicode hex="0140"/>
  <outline>
    <contour>
      <point x="16" y="0" type="line"/>
      <point x="16" y="24" type="line"/>
      <point x="50" y="27"/>
      <point x="67" y="47"/>
      <point x="67" y="84" type="curve" smooth="yes"/>
      <point x="67" y="594" type="line" smooth="yes"/>
      <point x="67" y="631"/>
      <point x="51" y="649"/>
      <point x="16" y="652" type="curve"/>
      <point x="16" y="676" type="line"/>
      <point x="206" y="676" type="line"/>
      <point x="206" y="84" type="line" smooth="yes"/>
      <point x="206" y="44"/>
      <point x="222" y="25"/>
      <point x="255" y="24" type="curve"/>
      <point x="255" y="0" type="line"/>
    </contour>
    <contour>
      <point x="319" y="333" type="curve" smooth="yes"/>
      <point x="319" y="378"/>
      <point x="357" y="417"/>
      <point x="403" y="417" type="curve" smooth="yes"/>
      <point x="450" y="417"/>
      <point x="488" y="378"/>
      <point x="488" y="332" type="curve" smooth="yes"/>
      <point x="488" y="285"/>
      <point x="450" y="248"/>
      <point x="402" y="248" type="curve" smooth="yes"/>
      <point x="355" y="248"/>
      <point x="319" y="285"/>
    </contour>
  </outline>
</glyph>
<glyph name="Lslash" format="2">
  <advance width="667"/>
  <unicode hex="0141"/>
  <outline>
    <component base="L" xOffset="3"/>
    <contour>
      <point x="24" y="237" type="line"/>
      <point x="24" y="298" type="line"/>
      <point x="119.219" y="354.731" type="line"/>
      <point x="119.219" y="293.936" type="line"/>
    </contour>
    <contour>
      <point x="247" y="368.242" type="line"/>
      <point x="247" y="429.393" type="line"/>
      <point x="390" y="518" type="line"/>
      <point x="390" y="457" type="line"/>
    </contour>
  </outline>
</glyph>
<glyph name="lslash" format="2">
  <advance width="278"/>
  <unicode hex="0142"/>
  <outline>
    <component base="l"/>
    <contour>
      <point x="186" y="384.77" type="line"/>
      <point x="186" y="434" type="line"/>
      <point x="303" y="530" type="line"/>
      <point x="303" y="480" type="line"/>
    </contour>
    <contour>
      <point x="-22" y="239" type="line"/>
      <point x="-22" y="289" type="line"/>
      <point x="87" y="377.354" type="line"/>
      <point x="87" y="327.457" type="line"/>
    </contour>
  </outline>
</glyph>
<glyph name="Ncedilla" format="1">
  <advance width="722"/>
  <unicode hex="0145"/>
  <outline>
    <contour>
      <point x="16" y="0" type="line"/>
      <point x="16" y="25" type="line"/>
      <point x="89" y="34"/>
      <point x="104" y="48"/>
      <point x="104" y="105" type="curve" smooth="yes"/>
      <point x="104" y="579" type="line"/>
      <point x="56" y="636"/>
      <point x="39" y="651"/>
      <point x="19" y="651" type="curve"/>
      <point x="19" y="676" type="line"/>
      <point x="230" y="676" type="line"/>
      <point x="579" y="247" type="line"/>
      <point x="579" y="552" type="line" smooth="yes"/>
      <point x="579" y="623"/>
      <point x="560" y="644"/>
      <point x="486" y="651" type="curve"/>
      <point x="486" y="676" type="line"/>
      <point x="701" y="676" type="line"/>
      <point x="701" y="651" type="line"/>
      <point x="636" y="641"/>
      <point x="623" y="628"/>
      <point x="623" y="571" type="curve" smooth="yes"/>
      <point x="623" y="-18" type="line"/>
      <point x="595" y="-18" type="line"/>
      <point x="148" y="526" type="line"/>
      <point x="148" y="124" type="line" smooth="yes"/>
      <point x="148" y="53"/>
      <point x="166" y="34"/>
      <point x="243" y="25" type="curve"/>
      <point x="243" y="0" type="line"/>
    </contour>
    <contour>
      <point x="296" y="-97" type="curve" smooth="yes"/>
      <point x="296" y="-68"/>
      <point x="324" y="-45"/>
      <point x="356" y="-45" type="curve" smooth="yes"/>
      <point x="394" y="-45"/>
      <point x="426" y="-77"/>
      <point x="426" y="-113" type="curve" smooth="yes"/>
      <point x="426" y="-172"/>
      <point x="389" y="-218"/>
      <point x="318" y="-234" type="curve"/>
      <point x="310" y="-219" type="line"/>
      <point x="354" y="-207"/>
      <point x="379" y="-178"/>
      <point x="379" y="-154" type="curve" smooth="yes"/>
      <point x="379" y="-146"/>
      <point x="373" y="-142"/>
      <point x="366" y="-142" type="curve" smooth="yes"/>
      <point x="365" y="-142"/>
      <point x="352" y="-145"/>
      <point x="349" y="-145" type="curve" smooth="yes"/>
      <point x="319" y="-145"/>
      <point x="296" y="-127"/>
    </contour>
  </outline>
</glyph>
<glyph name="Omacron" format="1">
  <advance width="778"/>
  <unicode hex="014C"/>
  <outline>
    <contour>
      <point x="35" y="335" type="curve" smooth="yes"/>
      <point x="35" y="543"/>
      <point x="184" y="691"/>
      <point x="393" y="691" type="curve" smooth="yes"/>
      <point x="594" y="691"/>
      <point x="743" y="540"/>
      <point x="743" y="336" type="curve" smooth="yes"/>
      <point x="743" y="129"/>
      <point x="596" y="-19"/>
      <point x="389" y="-19" type="curve" smooth="yes"/>
      <point x="182" y="-19"/>
      <point x="35" y="128"/>
    </contour>
    <contour>
      <point x="212" y="326" type="curve" smooth="yes"/>
      <point x="212" y="124"/>
      <point x="274" y="14"/>
      <point x="389" y="14" type="curve" smooth="yes"/>
      <point x="504" y="14"/>
      <point x="566" y="124"/>
      <point x="566" y="329" type="curve" smooth="yes"/>
      <point x="566" y="537"/>
      <point x="502" y="658"/>
      <point x="392" y="658" type="curve" smooth="yes"/>
      <point x="275" y="658"/>
      <point x="212" y="542"/>
    </contour>
    <contour>
      <point x="225" y="775" type="line"/>
      <point x="225" y="847" type="line"/>
      <point x="555" y="847" type="line"/>
      <point x="555" y="775" type="line"/>
    </contour>
  </outline>
</glyph>
<glyph name="OE" format="2">
  <advance width="1000"/>
  <unicode hex="0152"/>
  <outline>
    <contour>
      <point x="22" y="330.573" type="curve" smooth="yes"/>
      <point x="22" y="543.28"/>
      <point x="161" y="684"/>
      <point x="364" y="684" type="curve"/>
      <point x="528" y="676" type="line"/>
      <point x="940" y="676" type="line"/>
      <point x="940" y="475.793" type="line"/>
      <point x="914" y="475.793" type="line"/>
      <point x="888.751" y="619.304"/>
      <point x="829.349" y="642.383"/>
      <point x="687.69" y="642.976" type="curve"/>
      <point x="682" y="643" type="line"/>
      <point x="640" y="643"/>
      <point x="627" y="636.956"/>
      <point x="627" y="616.811" type="curve" smooth="yes"/>
      <point x="627" y="365.856" type="line"/>
      <point x="637" y="366" type="line" smooth="yes"/>
      <point x="744.02" y="367.537"/>
      <point x="752" y="387.153"/>
      <point x="778" y="515.076" type="curve"/>
      <point x="801" y="515.076" type="line"/>
      <point x="801" y="174.946" type="line"/>
      <point x="778" y="174.946" type="line"/>
      <point x="763" y="294.745"/>
      <point x="743.052" y="327.963"/>
      <point x="637" y="333" type="curve" smooth="yes"/>
      <point x="627" y="333.472" type="line"/>
      <point x="627" y="81.3221" type="line" smooth="yes"/>
      <point x="627" y="42.0604"/>
      <point x="641" y="33"/>
      <point x="700" y="33" type="curve"/>
      <point x="706.473" y="33.0414" type="line"/>
      <point x="841.752" y="33.9068"/>
      <point x="897.793" y="91.8687"/>
      <point x="954" y="210.181" type="curve"/>
      <point x="981" y="210.181" type="line"/>
      <point x="939" y="0" type="line"/>
      <point x="509" y="0" type="line"/>
      <point x="352.143" y="-4" type="line"/>
      <point x="152.607" y="-4"/>
      <point x="22" y="124.269"/>
    </contour>
    <contour>
      <point x="192" y="319.913" type="curve" smooth="yes"/>
      <point x="192" y="191.85"/>
      <point x="203.074" y="27"/>
      <point x="366" y="27" type="curve" smooth="yes"/>
      <point x="467.768" y="27"/>
      <point x="472" y="115.91"/>
      <point x="472" y="211.188" type="curve" smooth="yes"/>
      <point x="472" y="503.996" type="line" smooth="yes"/>
      <point x="472" y="583.652"/>
      <point x="458.173" y="652"/>
      <point x="368.497" y="652" type="curve" smooth="yes"/>
      <point x="255" y="652"/>
      <point x="192" y="541.265"/>
    </contour>
  </outline>
</glyph>
<glyph name="Racute" format="1">
  <advance width="712"/>
  <unicode hex="0154"/>
  <outline>
    <contour>
      <point x="16" y="0" type="line"/>
      <point x="16" y="25" type="line"/>
      <point x="94" y="34"/>
      <point x="104" y="44"/>
      <point x="104" y="117" type="curve" smooth="yes"/>
      <point x="104" y="559" type="line" smooth="yes"/>
      <point x="104" y="631"/>
      <point x="90" y="646"/>
      <point x="16" y="651" type="curve"/>
      <point x="16" y="676" type="line"/>
      <point x="338" y="676" type="line" smooth="yes"/>
      <point x="521" y="676"/>
      <point x="620" y="613"/>
      <point x="620" y="498" type="curve" smooth="yes"/>
      <point x="620" y="453"/>
      <point x="604" y="413"/>
      <point x="575" y="386" type="curve" smooth="yes"/>
      <point x="547" y="361"/>
      <point x="522" y="348"/>
      <point x="463" y="329" type="curve"/>
      <point x="664" y="44" type="line" smooth="yes"/>
      <point x="674" y="31"/>
      <point x="687" y="25"/>
      <point x="705" y="25" type="curve"/>
      <point x="705" y="0" type="line"/>
      <point x="500" y="0" type="line"/>
      <point x="293" y="313" type="line"/>
      <point x="266" y="313" type="line"/>
      <point x="266" y="117" type="line" smooth="yes"/>
      <point x="266" y="46"/>
      <point x="276" y="35"/>
      <point x="354" y="25" type="curve"/>
      <point x="354" y="0" type="line"/>
    </contour>
    <contour>
      <point x="266" y="345" type="line"/>
      <point x="342" y="346"/>
      <point x="376" y="353"/>
      <point x="402" y="370" type="curve" smooth="yes"/>
      <point x="434" y="391"/>
      <point x="449" y="430"/>
      <point x="449" y="494" type="curve" smooth="yes"/>
      <point x="449" y="599"/>
      <point x="412" y="642"/>
      <point x="320" y="642" type="curve" smooth="yes"/>
      <point x="295" y="642"/>
      <point x="279" y="637"/>
      <point x="273" y="627" type="curve" smooth="yes"/>
      <point x="270" y="621"/>
      <point x="266" y="606"/>
      <point x="266" y="600" type="curve" smooth="yes"/>
    </contour>
    <contour>
      <point x="270" y="738" type="line"/>
      <point x="407" y="895" type="line" smooth="yes"/>
      <point x="424" y="914"/>
      <point x="441" y="923"/>
      <point x="460" y="923" type="curve" smooth="yes"/>
      <point x="489" y="923"/>
      <point x="508" y="905"/>
      <point x="508" y="879" type="curve" smooth="yes"/>
      <point x="508" y="856"/>
      <point x="500" y="846"/>
      <point x="468" y="826" type="curve" smooth="yes"/>
      <point x="326" y="738" type="line"/>
    </contour>
  </outline>
</glyph>
<glyph name="Scedilla" format="1">
  <advance width="556"/>
  <unicode hex="015E"/>
  <outline>
    <contour>
      <point x="35" y="-19" type="line"/>
      <point x="35" y="228" type="line"/>
      <point x="64" y="228" type="line"/>
      <point x="81" y="158"/>
      <point x="95" y="125"/>
      <point x="122" y="88" type="curve" smooth="yes"/>
      <point x="160" y="39"/>
      <point x="210" y="14"/>
      <point x="268" y="14" type="curve" smooth="yes"/>
      <point x="345" y="14"/>
      <point x="394" y="59"/>
      <point x="394" y="128" type="curve" smooth="yes"/>
      <point x="394" y="180"/>
      <point x="370" y="206"/>
      <point x="282" y="248" type="curve" smooth="yes"/>
      <point x="215" y="280" type="line" smooth="yes"/>
      <point x="96" y="337"/>
      <point x="44" y="400"/>
      <point x="44" y="488" type="curve" smooth="yes"/>
      <point x="44" y="614"/>
      <point x="127" y="691"/>
      <point x="263" y="691" type="curve" smooth="yes"/>
      <point x="301" y="691"/>
      <point x="333" y="685"/>
      <point x="380" y="669" type="curve" smooth="yes"/>
      <point x="402" y="661"/>
      <point x="413" y="658"/>
      <point x="422" y="658" type="curve" smooth="yes"/>
      <point x="439" y="658"/>
      <point x="447" y="666"/>
      <point x="454" y="692" type="curve"/>
      <point x="484" y="692" type="line"/>
      <point x="484" y="475" type="line"/>
      <point x="456" y="475" type="line"/>
      <point x="436" y="540"/>
      <point x="420" y="569"/>
      <point x="386" y="604" type="curve" smooth="yes"/>
      <point x="350" y="641"/>
      <point x="308" y="660"/>
      <point x="263" y="660" type="curve" smooth="yes"/>
      <point x="195" y="660"/>
      <point x="153" y="622"/>
      <point x="153" y="560" type="curve" smooth="yes"/>
      <point x="153" y="512"/>
      <point x="175" y="487"/>
      <point x="256" y="447" type="curve" smooth="yes"/>
      <point x="403" y="374" type="line" smooth="yes"/>
      <point x="467" y="342"/>
      <point x="513" y="267"/>
      <point x="513" y="192" type="curve" smooth="yes"/>
      <point x="513" y="119"/>
      <point x="474" y="51"/>
      <point x="411" y="15" type="curve" smooth="yes"/>
      <point x="377" y="-4"/>
      <point x="337" y="-15"/>
      <point x="284" y="-18" type="curve"/>
      <point x="265" y="-64" type="line"/>
      <point x="277" y="-60"/>
      <point x="285" y="-59"/>
      <point x="298" y="-59" type="curve" smooth="yes"/>
      <point x="353" y="-59"/>
      <point x="386" y="-85"/>
      <point x="386" y="-129" type="curve" smooth="yes"/>
      <point x="386" y="-184"/>
      <point x="336" y="-218"/>
      <point x="256" y="-218" type="curve" smooth="yes"/>
      <point x="223" y="-218"/>
      <point x="196" y="-213"/>
      <point x="160" y="-200" type="curve"/>
      <point x="176" y="-163" type="line" smooth="yes"/>
      <point x="178" y="-164"/>
      <point x="178" y="-164"/>
      <point x="181" y="-165" type="curve" smooth="yes"/>
      <point x="205" y="-174"/>
      <point x="219" y="-177"/>
      <point x="235" y="-177" type="curve" smooth="yes"/>
      <point x="272" y="-177"/>
      <point x="293" y="-162"/>
      <point x="293" y="-136" type="curve" smooth="yes"/>
      <point x="293" y="-114"/>
      <point x="276" y="-100"/>
      <point x="247" y="-100" type="curve" smooth="yes"/>
      <point x="237" y="-100"/>
      <point x="230" y="-101"/>
      <point x="219" y="-104" type="curve"/>
      <point x="208" y="-96" type="line"/>
      <point x="242" y="-18" type="line"/>
      <point x="207" y="-16"/>
      <point x="179" y="-10"/>
      <point x="135" y="5" type="curve" smooth="yes"/>
      <point x="113" y="12"/>
      <point x="102" y="15"/>
      <point x="94" y="15" type="curve" smooth="yes"/>
      <point x="78" y="15"/>
      <point x="70" y="6"/>
      <point x="64" y="-19" type="curve"/>
    </contour>
  </outline>
</glyph>
<glyph name="uni0163" format="1">
  <advance width="333"/>
  <unicode hex="0163"/>
  <outline>
    <contour>
      <point x="20" y="417" type="line"/>
      <point x="20" y="444" type="line"/>
      <point x="85" y="499"/>
      <point x="125" y="544"/>
      <point x="186" y="630" type="curve"/>
      <point x="211" y="630" type="line"/>
      <point x="211" y="461" type="line"/>
      <point x="305" y="461" type="line"/>
      <point x="306" y="416" type="line"/>
      <point x="212" y="416" type="line"/>
      <point x="212" y="115" type="line" smooth="yes"/>
      <point x="212" y="75"/>
      <point x="223" y="58"/>
      <point x="251" y="58" type="curve" smooth="yes"/>
      <point x="272" y="58"/>
      <point x="288" y="72"/>
      <point x="308" y="110" type="curve"/>
      <point x="333" y="99" type="line"/>
      <point x="294" y="22"/>
      <point x="256" y="-9"/>
      <point x="196" y="-12" type="curve"/>
      <point x="173" y="-64" type="line"/>
      <point x="185" y="-60"/>
      <point x="193" y="-59"/>
      <point x="206" y="-59" type="curve" smooth="yes"/>
      <point x="261" y="-59"/>
      <point x="294" y="-85"/>
      <point x="294" y="-129" type="curve" smooth="yes"/>
      <point x="294" y="-184"/>
      <point x="244" y="-218"/>
      <point x="164" y="-218" type="curve" smooth="yes"/>
      <point x="131" y="-218"/>
      <point x="104" y="-213"/>
      <point x="68" y="-200" type="curve"/>
      <point x="84" y="-163" type="line"/>
      <point x="90" y="-165" type="line" smooth="yes"/>
      <point x="113" y="-174"/>
      <point x="127" y="-177"/>
      <point x="144" y="-177" type="curve" smooth="yes"/>
      <point x="180" y="-177"/>
      <point x="201" y="-162"/>
      <point x="201" y="-136" type="curve" smooth="yes"/>
      <point x="201" y="-114"/>
      <point x="184" y="-100"/>
      <point x="155" y="-100" type="curve" smooth="yes"/>
      <point x="146" y="-100"/>
      <point x="138" y="-101"/>
      <point x="127" y="-104" type="curve"/>
      <point x="116" y="-96" type="line"/>
      <point x="155" y="-9" type="line"/>
      <point x="103" y="1"/>
      <point x="72" y="38"/>
      <point x="72" y="93" type="curve" smooth="yes"/>
      <point x="72" y="417" type="line"/>
    </contour>
  </outline>
</glyph>
<glyph name="Tcaron" format="1">
  <advance width="667"/>
  <unicode hex="0164"/>
  <outline>
    <contour>
      <point x="31" y="475" type="line"/>
      <point x="34" y="676" type="line"/>
      <point x="634" y="676" type="line"/>
      <point x="636" y="475" type="line"/>
      <point x="607" y="475" type="line"/>
      <point x="590" y="594"/>
      <point x="538" y="640"/>
      <point x="415" y="644" type="curve"/>
      <point x="415" y="117" type="line" smooth="yes"/>
      <point x="415" y="41"/>
      <point x="426" y="31"/>
      <point x="513" y="25" type="curve"/>
      <point x="513" y="0" type="line"/>
      <point x="156" y="0" type="line"/>
      <point x="156" y="25" type="line"/>
      <point x="242" y="32"/>
      <point x="253" y="43"/>
      <point x="253" y="117" type="curve" smooth="yes"/>
      <point x="253" y="644" type="line"/>
      <point x="129" y="640"/>
      <point x="77" y="594"/>
      <point x="60" y="475" type="curve"/>
    </contour>
    <contour>
      <point x="165" y="914" type="line"/>
      <point x="221" y="914" type="line"/>
      <point x="333" y="815" type="line"/>
      <point x="445" y="914" type="line"/>
      <point x="502" y="914" type="line"/>
      <point x="379" y="738" type="line"/>
      <point x="287" y="738" type="line"/>
    </contour>
  </outline>
</glyph>
<glyph name="tcaron" format="1">
  <advance width="394"/>
  <unicode hex="0165"/>
  <outline>
    <contour>
      <point x="20" y="417" type="line"/>
      <point x="20" y="444" type="line"/>
      <point x="85" y="499"/>
      <point x="125" y="544"/>
      <point x="186" y="630" type="curve"/>
      <point x="211" y="630" type="line"/>
      <point x="211" y="461" type="line"/>
      <point x="304" y="461" type="line"/>
      <point x="328" y="487"/>
      <point x="339" y="508"/>
      <point x="339" y="529" type="curve" smooth="yes"/>
      <point x="339" y="539"/>
      <point x="331" y="548"/>
      <point x="322" y="548" type="curve" smooth="yes"/>
      <point x="321" y="548"/>
      <point x="318" y="548"/>
      <point x="315" y="547" type="curve" smooth="yes"/>
      <point x="311" y="546"/>
      <point x="306" y="546"/>
      <point x="302" y="546" type="curve" smooth="yes"/>
      <point x="261" y="546"/>
      <point x="235" y="574"/>
      <point x="235" y="617" type="curve" smooth="yes"/>
      <point x="235" y="662"/>
      <point x="265" y="691"/>
      <point x="310" y="691" type="curve" smooth="yes"/>
      <point x="364" y="691"/>
      <point x="400" y="649"/>
      <point x="400" y="586" type="curve" smooth="yes"/>
      <point x="400" y="508"/>
      <point x="356" y="449"/>
      <point x="251" y="390" type="curve"/>
      <point x="241" y="409" type="line"/>
      <point x="252" y="417" type="line"/>
      <point x="211" y="417" type="line"/>
      <point x="211" y="116" type="line" smooth="yes"/>
      <point x="211" y="76"/>
      <point x="222" y="59"/>
      <point x="250" y="59" type="curve" smooth="yes"/>
      <point x="271" y="59"/>
      <point x="287" y="73"/>
      <point x="307" y="111" type="curve"/>
      <point x="332" y="100" type="line"/>
      <point x="291" y="18"/>
      <point x="251" y="-12"/>
      <point x="184" y="-12" type="curve" smooth="yes"/>
      <point x="115" y="-12"/>
      <point x="72" y="28"/>
      <point x="72" y="93" type="curve" smooth="yes"/>
      <point x="72" y="417" type="line"/>
    </contour>
  </outline>
</glyph>
<glyph name="umacron" format="1">
  <advance width="556"/>
  <unicode hex="016B"/>
  <outline>
    <contour>
      <point x="16" y="437" type="curve"/>
      <point x="16" y="461" type="line"/>
      <point x="204" y="461" type="line"/>
      <point x="204" y="122" type="line" smooth="yes"/>
      <point x="204" y="71"/>
      <point x="219" y="51"/>
      <point x="260" y="51" type="curve" smooth="yes"/>
      <point x="288" y="51"/>
      <point x="309" y="62"/>
      <point x="342" y="95" type="curve"/>
      <point x="342" y="378" type="line" smooth="yes"/>
      <point x="342" y="421"/>
      <point x="330" y="433"/>
      <point x="280" y="437" type="curve"/>
      <point x="280" y="461" type="line"/>
      <point x="481" y="461" type="line"/>
      <point x="481" y="101" type="line" smooth="yes"/>
      <point x="481" y="58"/>
      <point x="493" y="45"/>
      <point x="537" y="43" type="curve"/>
      <point x="537" y="20" type="line"/>
      <point x="475" y="13" type="line" smooth="yes"/>
      <point x="410" y="6"/>
      <point x="386" y="2"/>
      <point x="343" y="-13" type="curve"/>
      <point x="343" y="52" type="line"/>
      <point x="285" y="2"/>
      <point x="250" y="-14"/>
      <point x="198" y="-14" type="curve" smooth="yes"/>
      <point x="115" y="-14"/>
      <point x="65" y="38"/>
      <point x="65" y="126" type="curve" smooth="yes"/>
      <point x="65" y="378" type="line" smooth="yes"/>
      <point x="65" y="420"/>
      <point x="57" y="429"/>
    </contour>
    <contour>
      <point x="109" y="565" type="line"/>
      <point x="109" y="637" type="line"/>
      <point x="439" y="637" type="line"/>
      <point x="439" y="565" type="line"/>
    </contour>
  </outline>
</glyph>
<glyph name="ubreve" format="1">
  <advance width="556"/>
  <unicode hex="016D"/>
  <outline>
    <contour>
      <point x="16" y="437" type="curve"/>
      <point x="16" y="461" type="line"/>
      <point x="204" y="461" type="line"/>
      <point x="204" y="122" type="line" smooth="yes"/>
      <point x="204" y="71"/>
      <point x="219" y="51"/>
      <point x="260" y="51" type="curve" smooth="yes"/>
      <point x="288" y="51"/>
      <point x="309" y="62"/>
      <point x="342" y="95" type="curve"/>
      <point x="342" y="378" type="line" smooth="yes"/>
      <point x="342" y="421"/>
      <point x="330" y="433"/>
      <point x="280" y="437" type="curve"/>
      <point x="280" y="461" type="line"/>
      <point x="481" y="461" type="line"/>
      <point x="481" y="101" type="line" smooth="yes"/>
      <point x="481" y="58"/>
      <point x="493" y="45"/>
      <point x="537" y="43" type="curve"/>
      <point x="537" y="20" type="line"/>
      <point x="475" y="13" type="line" smooth="yes"/>
      <point x="410" y="6"/>
      <point x="386" y="2"/>
      <point x="343" y="-13" type="curve"/>
      <point x="343" y="52" type="line"/>
      <point x="285" y="2"/>
      <point x="250" y="-14"/>
      <point x="198" y="-14" type="curve" smooth="yes"/>
      <point x="115" y="-14"/>
      <point x="65" y="38"/>
      <point x="65" y="126" type="curve" smooth="yes"/>
      <point x="65" y="378" type="line" smooth="yes"/>
      <point x="65" y="420"/>
      <point x="57" y="429"/>
    </contour>
    <contour>
      <point x="122" y="691" type="curve"/>
      <point x="166" y="691" type="line"/>
      <point x="176" y="630"/>
      <point x="214" y="604"/>
      <point x="274" y="604" type="curve" smooth="yes"/>
      <point x="335" y="604"/>
      <point x="367" y="632"/>
      <point x="381" y="691" type="curve"/>
      <point x="425" y="691" type="line"/>
      <point x="419" y="598"/>
      <point x="374" y="528"/>
      <point x="273" y="528" type="curve" smooth="yes"/>
      <point x="172" y="528"/>
      <point x="123" y="595"/>
    </contour>
  </outline>
</glyph>
<glyph name="uring" format="1">
  <advance width="556"/>
  <unicode hex="016F"/>
  <outline>
    <contour>
      <point x="16" y="437" type="curve"/>
      <point x="16" y="461" type="line"/>
      <point x="204" y="461" type="line"/>
      <point x="204" y="122" type="line" smooth="yes"/>
      <point x="204" y="71"/>
      <point x="219" y="51"/>
      <point x="260" y="51" type="curve" smooth="yes"/>
      <point x="288" y="51"/>
      <point x="309" y="62"/>
      <point x="342" y="95" type="curve"/>
      <point x="342" y="378" type="line" smooth="yes"/>
      <point x="342" y="421"/>
      <point x="330" y="433"/>
      <point x="280" y="437" type="curve"/>
      <point x="280" y="461" type="line"/>
      <point x="481" y="461" type="line"/>
      <point x="481" y="101" type="line" smooth="yes"/>
      <point x="481" y="58"/>
      <point x="493" y="45"/>
      <point x="537" y="43" type="curve"/>
      <point x="537" y="20" type="line"/>
      <point x="475" y="13" type="line" smooth="yes"/>
      <point x="410" y="6"/>
      <point x="386" y="2"/>
      <point x="343" y="-13" type="curve"/>
      <point x="343" y="52" type="line"/>
      <point x="285" y="2"/>
      <point x="250" y="-14"/>
      <point x="198" y="-14" type="curve" smooth="yes"/>
      <point x="115" y="-14"/>
      <point x="65" y="38"/>
      <point x="65" y="126" type="curve" smooth="yes"/>
      <point x="65" y="378" type="line" smooth="yes"/>
      <point x="65" y="420"/>
      <point x="57" y="429"/>
    </contour>
    <contour>
      <point x="168" y="645" type="curve" smooth="yes"/>
      <point x="168" y="701"/>
      <point x="217" y="750"/>
      <point x="275" y="750" type="curve" smooth="yes"/>
      <point x="333" y="750"/>
      <point x="381" y="701"/>
      <point x="381" y="643" type="curve" smooth="yes"/>
      <point x="381" y="584"/>
      <point x="333" y="537"/>
      <point x="274" y="537" type="curve" smooth="yes"/>
      <point x="215" y="537"/>
      <point x="168" y="585"/>
    </contour>
    <contour>
      <point x="216" y="643" type="curve" smooth="yes"/>
      <point x="216" y="611"/>
      <point x="242" y="585"/>
      <point x="273" y="585" type="curve" smooth="yes"/>
      <point x="306" y="585"/>
      <point x="333" y="611"/>
      <point x="333" y="642" type="curve" smooth="yes"/>
      <point x="333" y="674"/>
      <point x="306" y="702"/>
      <point x="274" y="702" type="curve" smooth="yes"/>
      <point x="243" y="702"/>
      <point x="216" y="674"/>
    </contour>
  </outline>
</glyph>
<glyph name="Uogonek" format="1">
  <advance width="722"/>
  <unicode hex="0172"/>
  <outline>
    <contour>
      <point x="16" y="651" type="curve"/>
      <point x="16" y="676" type="line"/>
      <point x="354" y="676" type="line"/>
      <point x="354" y="651" type="line"/>
      <point x="306" y="649"/>
      <point x="290" y="645"/>
      <point x="278" y="635" type="curve" smooth="yes"/>
      <point x="263" y="621"/>
      <point x="257" y="599"/>
      <point x="257" y="559" type="curve" smooth="yes"/>
      <point x="257" y="225" type="line" smooth="yes"/>
      <point x="257" y="89"/>
      <point x="302" y="30"/>
      <point x="404" y="30" type="curve" smooth="yes"/>
      <point x="523" y="30"/>
      <point x="579" y="99"/>
      <point x="579" y="247" type="curve" smooth="yes"/>
      <point x="579" y="552" type="line" smooth="yes"/>
      <point x="579" y="625"/>
      <point x="559" y="645"/>
      <point x="481" y="651" type="curve"/>
      <point x="481" y="676" type="line"/>
      <point x="701" y="676" type="line"/>
      <point x="701" y="651" type="line"/>
      <point x="637" y="641"/>
      <point x="623" y="625"/>
      <point x="623" y="566" type="curve" smooth="yes"/>
      <point x="623" y="247" type="line" smooth="yes"/>
      <point x="623" y="199"/>
      <point x="615" y="152"/>
      <point x="600" y="112" type="curve" smooth="yes"/>
      <point x="594" y="95"/>
      <point x="594" y="95"/>
      <point x="567" y="46" type="curve" smooth="yes"/>
      <point x="558" y="29"/>
      <point x="548" y="-10"/>
      <point x="548" y="-29" type="curve" smooth="yes"/>
      <point x="548" y="-81"/>
      <point x="568" y="-104"/>
      <point x="612" y="-104" type="curve" smooth="yes"/>
      <point x="627" y="-104"/>
      <point x="638" y="-101"/>
      <point x="657" y="-91" type="curve" smooth="yes"/>
      <point x="666" y="-87"/>
      <point x="667" y="-86"/>
      <point x="672" y="-84" type="curve"/>
      <point x="694" y="-98" type="line"/>
      <point x="669" y="-144"/>
      <point x="621" y="-173"/>
      <point x="571" y="-173" type="curve" smooth="yes"/>
      <point x="509" y="-173"/>
      <point x="464" y="-139"/>
      <point x="464" y="-92" type="curve" smooth="yes"/>
      <point x="464" y="-61"/>
      <point x="477" y="-37"/>
      <point x="522" y="19" type="curve"/>
      <point x="475" y="-7"/>
      <point x="424" y="-19"/>
      <point x="366" y="-19" type="curve" smooth="yes"/>
      <point x="292" y="-19"/>
      <point x="228" y="-1"/>
      <point x="180" y="34" type="curve" smooth="yes"/>
      <point x="119" y="78"/>
      <point x="98" y="127"/>
      <point x="98" y="225" type="curve" smooth="yes"/>
      <point x="98" y="559" type="line" smooth="yes"/>
      <point x="98" y="631"/>
      <point x="86" y="644"/>
    </contour>
  </outline>
</glyph>
<glyph name="uogonek" format="1">
  <advance width="556"/>
  <unicode hex="0173"/>
  <outline>
    <contour>
      <point x="16" y="437" type="curve"/>
      <point x="16" y="461" type="line"/>
      <point x="204" y="461" type="line"/>
      <point x="204" y="122" type="line" smooth="yes"/>
      <point x="204" y="71"/>
      <point x="219" y="51"/>
      <point x="260" y="51" type="curve" smooth="yes"/>
      <point x="288" y="51"/>
      <point x="309" y="62"/>
      <point x="342" y="95" type="curve"/>
      <point x="342" y="378" type="line" smooth="yes"/>
      <point x="342" y="421"/>
      <point x="330" y="433"/>
      <point x="280" y="437" type="curve"/>
      <point x="280" y="461" type="line"/>
      <point x="481" y="461" type="line"/>
      <point x="481" y="101" type="line" smooth="yes"/>
      <point x="481" y="58"/>
      <point x="493" y="45"/>
      <point x="537" y="43" type="curve"/>
      <point x="537" y="20" type="line"/>
      <point x="475" y="13" type="line" smooth="yes"/>
      <point x="434" y="9"/>
      <point x="411" y="-12"/>
      <point x="411" y="-44" type="curve" smooth="yes"/>
      <point x="411" y="-82"/>
      <point x="434" y="-104"/>
      <point x="474" y="-104" type="curve" smooth="yes"/>
      <point x="489" y="-104"/>
      <point x="500" y="-101"/>
      <point x="520" y="-91" type="curve" smooth="yes"/>
      <point x="528" y="-87"/>
      <point x="529" y="-86"/>
      <point x="534" y="-84" type="curve"/>
      <point x="556" y="-98" type="line"/>
      <point x="531" y="-144"/>
      <point x="483" y="-173"/>
      <point x="433" y="-173" type="curve" smooth="yes"/>
      <point x="372" y="-173"/>
      <point x="327" y="-139"/>
      <point x="327" y="-93" type="curve" smooth="yes"/>
      <point x="327" y="-74"/>
      <point x="332" y="-58"/>
      <point x="343" y="-39" type="curve"/>
      <point x="343" y="52" type="line"/>
      <point x="285" y="2"/>
      <point x="250" y="-14"/>
      <point x="198" y="-14" type="curve" smooth="yes"/>
      <point x="115" y="-14"/>
      <point x="65" y="38"/>
      <point x="65" y="126" type="curve" smooth="yes"/>
      <point x="65" y="378" type="line" smooth="yes"/>
      <point x="65" y="420"/>
      <point x="57" y="429"/>
    </contour>
  </outline>
</glyph>
<glyph name="Zacute" format="1">
  <advance width="667"/>
  <unicode hex="0179"/>
  <outline>
    <contour>
      <point x="28" y="0" type="line"/>
      <point x="28" y="16" type="line"/>
      <point x="410" y="641" type="line"/>
      <point x="397.667" y="640.667"/>
      <point x="384.333" y="640.556"/>
      <point x="372.037" y="640.556" type="curve" smooth="yes"/>
      <point x="347.444" y="640.556"/>
      <point x="327" y="641"/>
      <point x="327" y="641" type="curve" smooth="yes"/>
      <point x="322.993" y="641.054"/>
      <point x="319.062" y="641.082"/>
      <point x="315.205" y="641.082" type="curve" smooth="yes"/>
      <point x="176.614" y="641.082"/>
      <point x="133.7" y="605.237"/>
      <point x="87" y="470" type="curve"/>
      <point x="59" y="470" type="line"/>
      <point x="80" y="676" type="line"/>
      <point x="604" y="676" type="line"/>
      <point x="604" y="660" type="line"/>
      <point x="225" y="35" type="line"/>
      <point x="299" y="35" type="line" smooth="yes"/>
      <point x="395" y="35"/>
      <point x="477" y="50"/>
      <point x="511" y="74" type="curve" smooth="yes"/>
      <point x="558" y="107"/>
      <point x="581" y="147"/>
      <point x="608" y="241" type="curve"/>
      <point x="634" y="241" type="line"/>
      <point x="608" y="0" type="line"/>
    </contour>
    <contour>
      <point x="254" y="738" type="line"/>
      <point x="391" y="895" type="line" smooth="yes"/>
      <point x="408" y="914"/>
      <point x="425" y="923"/>
      <point x="444" y="923" type="curve" smooth="yes"/>
      <point x="473" y="923"/>
      <point x="492" y="905"/>
      <point x="492" y="879" type="curve" smooth="yes"/>
      <point x="492" y="856"/>
      <point x="484" y="846"/>
      <point x="452" y="826" type="curve" smooth="yes"/>
      <point x="310" y="738" type="line"/>
    </contour>
  </outline>
</glyph>
<glyph name="Zdotaccent" format="1">
  <advance width="667"/>
  <unicode hex="017B"/>
  <outline>
    <contour>
      <point x="28" y="0" type="line"/>
      <point x="28" y="16" type="line"/>
      <point x="410" y="641" type="line"/>
      <point x="397.667" y="640.667"/>
      <point x="384.333" y="640.556"/>
      <point x="372.037" y="640.556" type="curve" smooth="yes"/>
      <point x="347.444" y="640.556"/>
      <point x="327" y="641"/>
      <point x="327" y="641" type="curve" smooth="yes"/>
      <point x="322.993" y="641.054"/>
      <point x="319.062" y="641.082"/>
      <point x="315.205" y="641.082" type="curve" smooth="yes"/>
      <point x="176.614" y="641.082"/>
      <point x="133.7" y="605.237"/>
      <point x="87" y="470" type="curve"/>
      <point x="59" y="470" type="line"/>
      <point x="80" y="676" type="line"/>
      <point x="604" y="676" type="line"/>
      <point x="604" y="660" type="line"/>
      <point x="225" y="35" type="line"/>
      <point x="299" y="35" type="line" smooth="yes"/>
      <point x="395" y="35"/>
      <point x="477" y="50"/>
      <point x="511" y="74" type="curve" smooth="yes"/>
      <point x="558" y="107"/>
      <point x="581" y="147"/>
      <point x="608" y="241" type="curve"/>
      <point x="634" y="241" type="line"/>
      <point x="608" y="0" type="line"/>
    </contour>
    <contour>
      <point x="271" y="813" type="curve" smooth="yes"/>
      <point x="271" y="846"/>
      <point x="301" y="876"/>
      <point x="334" y="876" type="curve" smooth="yes"/>
      <point x="370" y="876"/>
      <point x="400" y="846"/>
      <point x="400" y="810" type="curve" smooth="yes"/>
      <point x="400" y="775"/>
      <point x="371" y="747"/>
      <point x="334" y="747" type="curve" smooth="yes"/>
      <point x="299" y="747"/>
      <point x="271" y="776"/>
    </contour>
  </outline>
</glyph>
<glyph name="Zcaron" format="1">
  <advance width="667"/>
  <unicode hex="017D"/>
  <outline>
    <contour>
      <point x="28" y="0" type="line"/>
      <point x="28" y="16" type="line"/>
      <point x="410" y="641" type="line"/>
      <point x="397.667" y="640.667"/>
      <point x="384.333" y="640.556"/>
      <point x="372.037" y="640.556" type="curve" smooth="yes"/>
      <point x="347.444" y="640.556"/>
      <point x="327" y="641"/>
      <point x="327" y="641" type="curve" smooth="yes"/>
      <point x="322.993" y="641.054"/>
      <point x="319.062" y="641.082"/>
      <point x="315.205" y="641.082" type="curve" smooth="yes"/>
      <point x="176.614" y="641.082"/>
      <point x="133.7" y="605.237"/>
      <point x="87" y="470" type="curve"/>
      <point x="59" y="470" type="line"/>
      <point x="80" y="676" type="line"/>
      <point x="604" y="676" type="line"/>
      <point x="604" y="660" type="line"/>
      <point x="225" y="35" type="line"/>
      <point x="299" y="35" type="line" smooth="yes"/>
      <point x="395" y="35"/>
      <point x="477" y="50"/>
      <point x="511" y="74" type="curve" smooth="yes"/>
      <point x="558" y="107"/>
      <point x="581" y="147"/>
      <point x="608" y="241" type="curve"/>
      <point x="634" y="241" type="line"/>
      <point x="608" y="0" type="line"/>
    </contour>
    <contour>
      <point x="166" y="914" type="line"/>
      <point x="222" y="914" type="line"/>
      <point x="334" y="815" type="line"/>
      <point x="446" y="914" type="line"/>
      <point x="503" y="914" type="line"/>
      <point x="380" y="738" type="line"/>
      <point x="288" y="738" type="line"/>
    </contour>
  </outline>
</glyph>
<glyph name="zcaron" format="1">
  <advance width="444"/>
  <unicode hex="017E"/>
  <outline>
    <contour>
      <point x="21" y="0" type="line"/>
      <point x="21" y="25" type="line"/>
      <point x="255" y="429" type="line"/>
      <point x="251.082" y="429.028"/>
      <point x="247.254" y="429.043"/>
      <point x="243.512" y="429.043" type="curve" smooth="yes"/>
      <point x="113.546" y="429.043"/>
      <point x="88.3004" y="411.342"/>
      <point x="64" y="319" type="curve"/>
      <point x="38" y="319" type="line"/>
      <point x="45" y="461" type="line"/>
      <point x="416" y="461" type="line"/>
      <point x="416" y="435" type="line"/>
      <point x="185" y="32" type="line"/>
      <point x="214" y="32" type="line" smooth="yes"/>
      <point x="294" y="32"/>
      <point x="327" y="45"/>
      <point x="359" y="89" type="curve" smooth="yes"/>
      <point x="375" y="110"/>
      <point x="383" y="128"/>
      <point x="392" y="160" type="curve"/>
      <point x="420" y="160" type="line"/>
      <point x="404" y="0" type="line"/>
    </contour>
    <contour>
      <point x="64" y="704" type="line"/>
      <point x="120" y="704" type="line"/>
      <point x="232" y="605" type="line"/>
      <point x="344" y="704" type="line"/>
      <point x="401" y="704" type="line"/>
      <point x="278" y="528" type="line"/>
      <point x="186" y="528" type="line"/>
    </contour>
  </outline>
</glyph>
